<svg width="237" height="224" viewBox="0 0 237 224" fill="none" xmlns="http://www.w3.org/2000/svg">
<g filter="url(#filter0_d_2010_455)">
<path d="M125.714 139.312C123.438 140.925 130.195 158.432 144.708 174.987C159.221 191.542 175.994 200.876 178.27 199.264C169.512 189.567 161.403 180.339 151.863 167.697C137.35 151.142 127.99 137.7 125.714 139.312Z" fill="#C08969"/>
<path d="M125.714 139.312C123.438 140.925 130.195 158.432 144.708 174.987C159.221 191.542 175.994 200.876 178.27 199.264C169.512 189.567 161.403 180.339 151.863 167.697C137.35 151.142 127.99 137.7 125.714 139.312Z" fill="#77ADE9"/>
<path d="M121.241 134.413C118.599 135.483 120.448 153.939 130.08 173.157C139.712 192.375 153.479 205.077 156.121 204.006C150.229 192.694 144.842 181.978 138.983 167.638C129.351 148.42 123.883 133.342 121.241 134.413Z" fill="#77ADE9"/>
<path d="M123.189 140.947C120.341 141.427 106.07 147.971 121.618 180.473C125.939 201.19 135.986 216.452 138.834 215.972C136.076 203.73 133.65 192.174 131.718 176.996C127.398 156.279 126.037 140.467 123.189 140.947Z" fill="#77ADE9"/>
<path d="M103.208 158.692C103.208 175.744 94.2088 190.425 96.0529 190.425C97.897 190.425 109.886 175.744 109.886 158.692C109.886 141.64 108.391 127.816 106.547 127.816C104.703 127.816 103.208 141.64 103.208 158.692Z" fill="#557FAE"/>
<path d="M108.744 166.839C103.717 184.421 89.827 210.151 91.9865 210.151C94.1461 210.151 116.565 183.892 116.565 166.839C116.565 149.787 110.904 136.392 108.744 136.392C106.585 136.392 108.744 149.787 108.744 166.839Z" fill="#5B89BE"/>
<path d="M112.009 167.168C115.203 185.542 110.363 202.433 108.567 210.152C116.199 212.725 130.153 177.827 121.277 162.756C112.401 147.686 111.126 137.314 108.567 138.532C106.007 139.75 103.133 152.098 112.009 167.168Z" fill="#6A9DD7"/>
<path d="M164.67 96.8351C180.981 109.666 191.386 114.912 199.482 124.409C200.725 122.954 190.543 104.417 174.232 91.5866C157.92 78.7562 143.69 69.5346 142.448 70.9897C141.205 72.4448 148.358 84.0047 164.67 96.8351Z" fill="#6A9DD7"/>
<path d="M162.764 85.4736C179.075 98.304 194.992 102.624 203.356 111.807C204.39 110.596 190.412 91.983 174.1 79.1526C157.789 66.3222 143.727 56.903 142.693 58.1144C141.658 59.3257 146.452 72.6432 162.764 85.4736Z" fill="#77ADE9"/>
<path d="M173.677 79.6396C189.668 92.2178 192.447 93.4897 200.621 102.523C201.655 101.311 193.413 87.8312 177.422 75.253C161.432 62.6748 147.63 53.4601 146.596 54.6714C145.561 55.8828 157.686 67.0614 173.677 79.6396Z" fill="#77ADE9"/>
<path d="M141.017 56.9688C137.745 62.103 107.874 60.9888 118.545 68.7455C125.641 90.2281 176.628 76.7655 179.901 71.6313C183.173 66.4972 189.257 67.0973 178.587 59.3406C167.916 51.5839 145.751 53.4288 141.017 56.9688Z" fill="#77ADE9"/>
<path d="M151.704 98.1965C163.584 113.523 166.02 115.635 171.037 125.041C172.626 124.809 169.338 112.684 157.458 97.3575C145.578 82.031 134.659 69.7943 133.07 70.026C131.481 70.2577 139.824 82.8701 151.704 98.1965Z" fill="#6A9DD7"/>
<path d="M139.09 94.9874C149.157 108.768 152.104 110.626 153.84 119.199C157.142 118.9 161.116 107.686 151.05 93.9063C140.983 80.1261 123.926 66.7439 120.623 67.0425C117.32 67.341 129.023 81.2072 139.09 94.9874Z" fill="#6A9DD7"/>
<path d="M125.888 87.2334C134.445 102.104 139.356 106.546 136.128 125.964C138.041 126.111 148.829 110.586 139.975 95.2013C131.122 79.8164 122.394 67.2257 120.481 67.079C118.568 66.9323 117.034 71.8485 125.888 87.2334Z" fill="#AE7655"/>
<path d="M173.981 66.9428C174.237 67.7231 179.117 69.6733 184.88 71.2986C190.643 72.9239 195.107 73.6089 194.851 72.8285C194.594 72.0482 186.58 68.7866 183.952 68.4727C178.001 67.649 173.725 66.1624 173.981 66.9428Z" fill="#77ADE9"/>
<path d="M174.928 62.7897C178.38 64.8604 177.811 66.1842 182.746 68.4729C187.681 70.7617 194.127 70.1518 194.086 68.8184C194.045 67.485 188.786 67.7233 183.851 65.4345C178.916 63.1458 174.887 61.4563 174.928 62.7897Z" fill="#77ADE9"/>
<path d="M184.726 61.3768C180.46 61.0944 178.899 59.706 173.205 56.7242C175.668 60.9249 181.289 66.391 185.555 66.6734C189.821 66.9558 196.791 62.9468 194.329 58.7461C192.145 61.5647 188.991 61.6593 184.726 61.3768Z" fill="#77ADE9"/>
<path d="M184.601 57.6924C179.322 60.3255 168.949 57.5022 172.071 60.6171C175.194 63.7321 182.004 64.1228 187.283 61.4898C192.561 58.8567 194.309 54.197 191.186 51.082C190.43 52.7795 189.879 55.0594 184.601 57.6924Z" fill="#6A9DD7"/>
<path d="M170.271 58.112C160.908 61.1525 129.873 50.6818 132.453 52.557C135.032 54.4323 160.227 69.0911 176.704 62.789C195.242 55.6992 190.576 36.7696 187.996 34.8944C184.203 36.25 185.045 53.3139 170.271 58.112Z" fill="#5B89BE"/>
<path d="M170.406 44.779C162.97 56.4477 135.114 54.4914 135.114 54.4914C135.114 54.4914 167.847 69.6707 179.103 52.008C186.41 40.5426 184.054 33.1208 181.07 28.0457C178.277 23.2949 178.898 31.4543 170.406 44.779Z" fill="#557FAE"/>
<path d="M178.193 69.8775C178.223 71.0106 183.209 74.2392 189.329 77.089C195.45 79.9387 204.511 82.4705 204.48 81.3375C198.008 78.4462 195.339 75.8356 189.219 72.9858C183.098 70.1361 178.162 68.7445 178.193 69.8775Z" fill="#77ADE9"/>
<path d="M173.067 64.5182C172.909 64.9019 173.191 70.6059 182.479 76.6794C191.767 82.7529 202.908 91.8792 208.14 91.2524C208.298 90.8687 194.542 78.3981 185.254 72.3246C175.967 66.2511 173.225 64.1345 173.067 64.5182Z" fill="#77ADE9"/>
<path d="M178.816 78.5518C188.741 88.0633 196.086 89.2917 206.81 101.168C207.366 100.846 200.492 91.2417 190.567 81.7302C180.642 72.2187 172.145 64.7692 171.589 65.0914C171.033 65.4135 168.891 69.0403 178.816 78.5518Z" fill="#77ADE9"/>
<path d="M156.277 96.9028C169.258 110.326 171.996 111.894 177.259 120.936C179.166 120.108 176.162 107.327 163.181 93.9036C150.2 80.4799 138.132 70.2693 136.225 71.0975C134.319 71.9257 143.297 83.4791 156.277 96.9028Z" fill="#6A9DD7"/>
<path d="M74.5963 72.4243C74.5963 88.0556 97.9696 137.607 116.087 155.689C148.523 123.527 146.624 95.3457 146.624 79.7145C146.624 64.0832 141.641 42.4778 116.087 42.4778C90.5327 42.4778 74.5963 56.7931 74.5963 72.4243Z" fill="#D48A62"/>
<path d="M91.7601 36.4618C91.7601 45.7727 102.351 42.6922 117.755 45.9907C142.787 51.3507 129.308 37.5613 144.231 29.4984C144.231 20.1876 131.58 11.1737 117.755 11.1737C103.93 11.1737 91.7601 27.151 91.7601 36.4618Z" fill="#50739C"/>
<path d="M77.2808 78.2128C80.0566 88.6283 89.7381 45.6559 104.484 44.2256C110.815 41.3111 105.606 33.4146 103.685 30.0416C101.764 26.6687 94.4909 27.7801 92.2701 33.262C89.0703 41.1608 66.1776 69.9901 77.2808 78.2128Z" fill="#344E6C"/>
<path d="M111.701 100.689C111.701 114.01 111.311 143.447 118.363 143.447C125.415 143.447 137.238 116.586 137.238 100.689C137.238 87.368 135.963 77.1172 128.911 77.1172C121.859 77.1172 111.701 87.368 111.701 100.689Z" fill="#DEA383"/>
<path d="M131.878 35.9401C131.724 36.6369 137.629 42.1332 139.954 42.5488C142.28 42.9643 143.838 36.637 143.993 35.9402C144.147 35.2433 142.28 34.9182 139.954 34.5026C134.625 25.1736 132.032 35.2432 131.878 35.9401Z" fill="#4F423B"/>
<path d="M134.57 31.5456C134.57 33.914 137.612 38.8154 141.3 38.8154C144.988 38.8154 150.723 44.7778 150.723 42.4094C150.723 40.0411 152.069 26.5957 139.896 25.8769C136.208 25.8769 134.57 29.1773 134.57 31.5456Z" fill="#3B312B"/>
<path d="M49.7675 67.8106C57.9082 77.0792 59.324 74.8547 72.42 83.3818C80.8256 83.3818 72.42 77.8436 72.42 67.8106C86.5778 46.6785 97.1961 44.8246 64.9872 49.6443C56.5816 49.6443 49.7675 57.7776 49.7675 67.8106Z" fill="#77ADE9"/>
<path d="M70.758 34.1091C67.3443 42.3681 65.8271 46.4976 80.2407 43.4944C81.6756 43.1954 76.4477 42.503 76.4477 37.1124C76.4477 31.7217 80.9484 23.2221 79.482 23.2221C75.689 23.2221 73.0338 26.2254 70.758 34.1091Z" fill="#557FAE"/>
<path d="M44.9653 8.95687C40.7931 8.95687 38.5173 22.8469 48.4711 35.6754C61.6549 51.3782 63.9012 51.0352 71.5614 47.6548C80.6201 42.3684 73.4133 44.6208 73.4135 40.4913C53.3104 35.2355 44.9653 24.724 44.9653 8.95687Z" fill="#557FAE"/>
<path d="M24.8619 20.5951C23.9838 22.7036 28.0365 38.675 43.7243 45.0752C59.4121 51.4753 72.4456 49.5497 73.3238 47.4411C74.202 45.3326 73.9287 48.3936 58.2409 41.9934C43.4052 37.5376 25.7401 18.4865 24.8619 20.5951Z" fill="#5B89BE"/>
<path d="M5.28221 50.9833C4.9974 52.8279 19.1722 57.3844 33.5858 61.8893C50.6156 66.0448 57.5767 55.6587 57.8615 53.8141C58.1464 51.9695 51.4133 52.504 33.5859 54.7563C25.2411 54.7563 19.9054 53.1951 5.28221 50.9833Z" fill="#77ADE9"/>
<path d="M3.99995 64.9166C3.99995 66.606 15.188 75.4042 30.7715 75.4042C52.3485 73.2193 56.3442 60.9253 56.3442 59.2359C56.3442 57.5465 43.1583 62.2947 30.7715 66.6648C17.1859 69.2866 17.1859 69.2866 3.99995 64.9166Z" fill="#77ADE9"/>
<path d="M12.7734 86.7601C13.8761 87.6516 35.3743 89.1594 44.0525 78.6445C50.9623 70.2724 55.6698 62.7628 54.5671 61.8713C53.4644 60.9798 46.9691 67.0441 40.0593 75.4162C33.1496 83.7883 11.6708 85.8686 12.7734 86.7601Z" fill="#77ADE9"/>
<path d="M46.3221 74.498C44.1692 82.8593 27.8076 93.8334 19.6268 96.9688C11.446 100.104 47.1832 100.627 51.0583 83.3818C54.0724 69.9689 51.8617 60.3885 50.1972 60.3885C48.5326 60.3885 48.4751 66.1368 46.3221 74.498Z" fill="#77ADE9"/>
<path d="M47.9995 82.9127C47.9995 96.8041 43.4193 108.065 45.7237 108.065C48.028 108.065 56.3442 96.8041 56.3442 82.9127C60.6263 69.9904 60.71 67.2495 58.4057 67.2495C56.1013 67.2495 47.9995 69.0213 47.9995 82.9127Z" fill="#77ADE9"/>
<path d="M56.1852 82.1621C58.8403 93.7998 54.0687 106.939 54.0687 118.577C57.2109 118.577 65.4478 93.3581 65.4478 82.1621C65.4478 70.966 77.0927 62.316 73.9504 62.316C70.8081 62.316 57.1914 65.6051 56.1852 82.1621Z" fill="#6A9DD7"/>
<path d="M62.4129 91.9228C65.4474 103.561 59.8991 120.454 62.4129 120.454C64.9268 120.454 73.0335 106.201 73.0335 94.1753C73.0335 82.1499 78.1293 62.316 75.6155 62.316C73.1016 62.316 62.4129 79.8974 62.4129 91.9228Z" fill="#6A9DD7"/>
<path d="M70.7582 93.799C75.3098 104.311 72.796 119.702 75.3098 119.702C77.8237 119.702 83.2753 103.958 83.2753 93.799C83.2753 83.6397 75.3098 74.2777 76.8271 60.012C74.3132 60.012 70.7582 83.6397 70.7582 93.799Z" fill="#3B5C82"/>
<path d="M76.8271 42.7439C71.5168 42.7438 65.4479 49.5014 74.1719 55.8833C78.3617 55.8833 82.896 55.0428 82.896 54.0061C82.896 52.9694 82.534 51.3783 78.3443 51.3783C74.1719 47.2486 86.9766 42.744 76.8271 42.7439Z" fill="#557FAE"/>
<path d="M10.8274 32.6799C10.8274 33.9198 22.6038 54.3813 42.4697 54.3813C61.8821 54.3813 67.9394 48.8786 69.9585 48.8786C69.9585 48.8786 59.7687 46.5242 42.4697 46.5242C25.1707 46.5242 10.8274 31.4401 10.8274 32.6799Z" fill="#6A9DD7"/>
<ellipse cx="3.81605" cy="1.71533" rx="3.81605" ry="1.71533" transform="matrix(-1 0 0 1 137.553 97.7977)" fill="#3B3B3B"/>
<ellipse cx="6.69715" cy="2.7632" rx="6.69715" ry="2.7632" transform="matrix(-0.635598 0.77202 0.832539 0.553966 114.826 101.228)" fill="#3A312C"/>
<path d="M124.777 114.518C123.877 112.347 123.356 109.842 124.777 105.365C122.89 102.243 121.94 101.985 118.232 102.234C113.688 102.092 115.772 105.357 117.659 108.479C116.534 110.789 123.102 115.336 124.777 114.518Z" fill="#3A312C"/>
<path d="M134.597 107.825C135.138 106.114 136.726 105.406 139.626 103.214C140.081 100.511 139.687 99.9631 137.55 98.6035C135.142 96.6609 134.726 99.5332 134.271 102.236C133.816 104.939 133.296 107.648 134.597 107.825Z" fill="#3A312C"/>
<ellipse cx="3.81605" cy="1.71533" rx="3.81605" ry="1.71533" transform="matrix(-1 0 0 1 137.553 97.7975)" fill="#3A312C"/>
<path d="M121.334 27.469C121.334 28.6532 122.288 28.7555 123.719 29.6132C125.036 29.6132 126.104 28.6532 126.104 27.469C126.104 26.2849 125.036 24.0384 123.719 24.0384C119.903 24.0384 121.334 26.2849 121.334 27.469Z" fill="#3A312C"/>
<path d="M102.819 17.3654C106.705 18.4617 111.066 23.2449 120.029 21.2026C134.463 17.9135 147.231 34.9072 142.235 22.299C140.014 19.5581 129.782 10.7872 120.584 10.7872C111.385 10.7872 105.594 14.6244 102.819 17.3654Z" fill="#344E6C"/>
<path d="M76.1707 49.7074C76.1707 51.2211 80.9513 55.7376 86.1636 55.7376C85.0534 47.5149 92.2705 38.1958 92.8258 34.9068C93.6057 30.287 92.2706 31.0692 84.4981 46.9663C77.281 46.9663 76.1707 48.1936 76.1707 49.7074Z" fill="#344E6C"/>
<path d="M76.7259 68.8941C76.7259 77.0685 82.2775 89.1766 82.8327 88.6284C83.3878 88.0802 79.5017 83.6948 84.4981 69.442C84.4981 61.2677 88.7327 53.5447 85.0534 53.5447C61.7366 39.2921 75.0604 64.5085 76.7259 68.8941Z" fill="#3B5C82"/>
<path d="M96.1564 64.5083C96.1564 74.8019 104.484 66.7011 100.043 74.9238C103.109 74.9238 110.035 70.4165 110.035 60.1229C110.035 49.8293 105.884 44.7738 102.818 44.7738C99.7523 44.7738 89.4945 50.8038 96.1564 64.5083Z" fill="#BF7852"/>
<path d="M82.2778 82.0505C80.6123 98.496 83.3881 112.201 91.1604 117.134C94.8396 117.134 90.05 80.9541 102.819 73.8277C102.819 60.8094 99.8361 49.7077 96.1568 49.7077C91.1604 53.545 80.0572 75.4723 82.2778 82.0505Z" fill="#BF7852"/>
<path d="M89.4951 117.682C96.7119 128.645 108.926 148.38 115.032 156.054C125.151 156.054 96.7119 127.959 96.7119 114.941C96.7119 101.922 97.3922 76.0198 87.2742 76.0198C77.1562 76.0198 81.7226 110.007 89.4951 117.682Z" fill="#BF7852"/>
</g>
<rect x="43.4611" y="102.935" width="45.6536" height="27.6016" rx="2.5" transform="rotate(-27.2968 43.4611 102.935)" fill="#F2ECE3" stroke="#CEC2B0"/>
<path d="M83.3016 82.8623L44.5875 102.841L71.7708 108.018L83.3016 82.8623Z" fill="#E2DACD" stroke="#CEC2B0"/>
<path d="M52.5531 76.6503C52.563 76.346 52.8404 76.1206 53.1402 76.1737L65.7848 78.4123L65.7857 78.4118L82.5959 81.9612C83.0559 82.0583 83.1403 82.6789 82.7227 82.8947L46.5955 101.539C46.1738 101.756 45.7145 101.319 45.9111 100.888L48.9147 94.2867C48.9455 94.2191 48.9711 94.1492 48.9916 94.0778L51.0277 86.9587L51.0302 86.9464L51.0339 86.9346L52.3777 81.1761C52.4001 81.0802 52.4127 80.9823 52.4159 80.8839L52.5531 76.6503Z" fill="#E2DACD" stroke="#CEC2B0"/>
<path d="M22.3588 121.298L40.5006 98.8038C42.3788 96.4751 46.0608 96.4535 47.8827 98.7605L52.0981 104.099C52.4278 104.517 52.8222 104.885 53.2676 105.191L65.0404 113.303C65.4782 113.605 65.961 113.845 66.4739 114.014L73.3463 116.283C76.2406 117.239 77.3039 120.572 75.4731 122.947L57.8332 145.84C56.5223 147.541 54.1376 148.149 52.1404 147.293L43.0492 143.395C42.7492 143.267 42.4655 143.108 42.2027 142.921L29.6185 133.988C29.4014 133.834 29.1993 133.662 29.0151 133.473L22.5969 126.909C21.0873 125.365 20.9869 122.999 22.3588 121.298Z" fill="#F2ECE3" stroke="#CEC2B0"/>
<line y1="-0.5" x2="38.1958" y2="-0.5" transform="matrix(-0.624335 0.782033 -0.815546 -0.577397 52.7943 104.197)" stroke="#CEC2B0"/>
<path d="M66.021 113.314C56.9204 125.126 42.5364 143.434 42.5364 143.434" stroke="#CEC2B0"/>
<path d="M25.7962 121.9C25.7483 121.774 25.5179 121.31 25.5179 121.31C24.9364 121.744 23.3257 123.597 23.1228 124.336C23.2027 124.439 23.2987 124.322 23.3724 124.422C23.7615 123.762 25.1974 122.231 25.7962 121.9Z" fill="#7E7575"/>
<path d="M51.4043 140.747C51.3564 140.622 51.126 140.157 51.126 140.157C50.5446 140.591 48.9339 142.444 48.7309 143.183C48.8108 143.286 48.9069 143.169 48.9805 143.27C49.3696 142.609 50.8055 141.078 51.4043 140.747Z" fill="#7E7575"/>
<path d="M75.2333 118.395C75.1854 118.27 74.955 117.805 74.955 117.805C74.3736 118.239 72.7629 120.092 72.5599 120.831C72.6398 120.934 72.7359 120.817 72.8095 120.918C73.1986 120.257 74.6345 118.726 75.2333 118.395Z" fill="#7E7575"/>
<path d="M57.9775 129.098C57.9295 128.973 57.6991 128.509 57.6991 128.509C57.1177 128.942 55.507 130.795 55.304 131.534C55.384 131.638 55.48 131.521 55.5536 131.621C55.9428 130.96 57.3787 129.429 57.9775 129.098Z" fill="#7E7575"/>
<path d="M49.5622 122.742C49.5142 122.617 49.2839 122.152 49.2839 122.152C48.7024 122.586 47.0917 124.439 46.8887 125.178C46.9687 125.281 47.0647 125.164 47.1384 125.265C47.5275 124.604 48.9634 123.073 49.5622 122.742Z" fill="#7E7575"/>
<path d="M38.9804 132.744C38.9325 132.619 38.7021 132.155 38.7021 132.155C38.1206 132.588 36.5099 134.441 36.307 135.18C36.3869 135.284 36.4829 135.167 36.5566 135.267C36.9457 134.606 38.3816 133.075 38.9804 132.744Z" fill="#7E7575"/>
<path d="M29.9891 116.98C29.9105 116.869 29.5423 116.479 29.5423 116.479C28.7265 117.233 26.5126 120.028 26.2693 120.927C26.3929 120.999 26.5245 120.826 26.6388 120.898C27.1586 119.993 29.1408 117.632 29.9891 116.98Z" fill="#7E7575"/>
<path d="M55.2983 135.657C55.2197 135.545 54.8515 135.156 54.8515 135.156C54.0357 135.91 51.8218 138.704 51.5785 139.603C51.7021 139.675 51.8337 139.502 51.948 139.574C52.4678 138.669 54.45 136.309 55.2983 135.657Z" fill="#7E7575"/>
<path d="M72.1965 122.197C72.1179 122.085 71.7497 121.696 71.7497 121.696C70.9339 122.45 68.72 125.244 68.4767 126.143C68.6003 126.215 68.7319 126.042 68.8462 126.114C69.366 125.209 71.3482 122.848 72.1965 122.197Z" fill="#7E7575"/>
<path d="M55.7058 122.27C55.6272 122.158 55.259 121.769 55.259 121.769C54.4432 122.523 52.2293 125.317 51.986 126.216C52.1096 126.289 52.2412 126.115 52.3554 126.187C52.8753 125.282 54.8575 122.922 55.7058 122.27Z" fill="#7E7575"/>
<path d="M45.3006 134.904C45.222 134.792 44.8539 134.403 44.8539 134.403C44.038 135.157 41.8241 137.952 41.5808 138.851C41.7045 138.923 41.836 138.749 41.9503 138.822C42.4701 137.917 44.4523 135.556 45.3006 134.904Z" fill="#7E7575"/>
<path d="M47.6302 128.699C47.5516 128.588 47.1834 128.198 47.1834 128.198C46.3676 128.952 44.1537 131.747 43.9104 132.646C44.034 132.718 44.1656 132.545 44.2799 132.617C44.7997 131.712 46.7819 129.351 47.6302 128.699Z" fill="#7E7575"/>
<path d="M41.9988 132.35C41.9202 132.238 41.5521 131.849 41.5521 131.849C40.7363 132.603 38.5224 135.398 38.2791 136.297C38.4027 136.369 38.5343 136.196 38.6485 136.268C39.1684 135.363 41.1505 133.002 41.9988 132.35Z" fill="#7E7575"/>
<path d="M46.8896 123.293C46.7934 123.195 46.3272 122.891 46.3272 122.891C45.1005 124.107 41.6822 128.282 41.2358 129.433C41.3993 129.466 41.6034 129.21 41.7539 129.247C42.5863 127.976 45.6299 124.403 46.8896 123.293Z" fill="#7E7575"/>
<path d="M54.9156 133.007C54.8194 132.909 54.3532 132.605 54.3532 132.605C53.1265 133.821 49.7082 137.996 49.2618 139.147C49.4253 139.181 49.6294 138.924 49.7799 138.961C50.6123 137.69 53.6559 134.117 54.9156 133.007Z" fill="#7E7575"/>
<path d="M59.385 114.052C59.2889 113.953 58.8226 113.649 58.8226 113.649C57.596 114.866 54.1777 119.04 53.7312 120.191C53.8948 120.225 54.0989 119.968 54.2494 120.006C55.0818 118.734 58.1254 115.162 59.385 114.052Z" fill="#7E7575"/>
<path d="M76.6703 119.401C76.5633 119.313 76.0365 119.078 76.0365 119.078C74.566 120.691 70.4353 126.054 69.8703 127.424C70.0582 127.426 70.305 127.097 70.4776 127.106C71.4943 125.518 75.1661 120.903 76.6703 119.401Z" fill="#7E7575"/>
<path d="M28.178 121.643C28.0994 121.531 27.7313 121.142 27.7313 121.142C26.9155 121.896 24.7016 124.69 24.4583 125.589C24.5819 125.661 24.7135 125.488 24.8277 125.56C25.3476 124.655 27.3297 122.295 28.178 121.643Z" fill="#7E7575"/>
<path d="M45.0442 128.415C44.9897 128.338 44.7318 128.071 44.7318 128.071C44.1249 128.617 42.4617 130.621 42.266 131.257C42.3539 131.305 42.4529 131.181 42.534 131.229C42.93 130.584 44.416 128.889 45.0442 128.415Z" fill="#7E7575"/>
<path d="M46.3134 121.098C46.2348 120.986 45.8667 120.597 45.8667 120.597C45.0509 121.351 42.837 124.145 42.5936 125.044C42.7173 125.117 42.8488 124.943 42.9631 125.015C43.483 124.11 45.4651 121.75 46.3134 121.098Z" fill="#7E7575"/>
<path d="M32.768 118.568C32.6894 118.456 32.3213 118.066 32.3213 118.066C31.5054 118.821 29.2915 121.615 29.0482 122.514C29.1719 122.586 29.3034 122.413 29.4177 122.485C29.9375 121.58 31.9197 119.219 32.768 118.568Z" fill="#7E7575"/>
<path d="M53.6107 121.384C53.5321 121.272 53.1639 120.883 53.1639 120.883C52.3481 121.637 50.1342 124.431 49.8909 125.33C50.0145 125.403 50.1461 125.229 50.2603 125.302C50.7802 124.396 52.7624 122.036 53.6107 121.384Z" fill="#7E7575"/>
<path d="M38.4543 130.466C38.3757 130.354 38.0075 129.965 38.0075 129.965C37.1917 130.719 34.9778 133.513 34.7345 134.412C34.8581 134.485 34.9897 134.311 35.104 134.383C35.6238 133.478 37.606 131.118 38.4543 130.466Z" fill="#7E7575"/>
<path d="M40.131 124.228C40.018 124.147 39.4629 123.954 39.4629 123.954C37.9238 125.784 33.6041 131.794 33.0162 133.28C33.2138 133.264 33.4719 132.896 33.6535 132.888C34.7154 131.129 38.5559 125.946 40.131 124.228Z" fill="#7E7575"/>
<path d="M30.1676 119.45C30.1652 119.319 30.1284 118.817 30.1284 118.817C29.7428 119.057 28.5556 120.334 28.3137 120.969C28.337 121.088 28.409 121.006 28.4295 121.122C28.7552 120.614 29.7915 119.589 30.1676 119.45Z" fill="#7E7575"/>
<path d="M48.7612 140.646C48.7588 140.515 48.722 140.013 48.722 140.013C48.3364 140.253 47.1492 141.53 46.9074 142.165C46.9307 142.285 47.0026 142.203 47.0231 142.318C47.3488 141.81 48.3851 140.785 48.7612 140.646Z" fill="#7E7575"/>
<path d="M49.3452 129.891C49.3428 129.76 49.306 129.258 49.306 129.258C48.9204 129.499 47.7332 130.775 47.4913 131.41C47.5147 131.53 47.5866 131.448 47.6071 131.563C47.9328 131.055 48.9691 130.03 49.3452 129.891Z" fill="#7E7575"/>
<path d="M40.3773 128.175C40.3749 128.044 40.3381 127.542 40.3381 127.542C39.9525 127.782 38.7653 129.059 38.5234 129.694C38.5468 129.813 38.6187 129.731 38.6392 129.847C38.9649 129.339 40.0012 128.314 40.3773 128.175Z" fill="#7E7575"/>
<path d="M26.8115 125.203C26.7996 125.124 26.7359 124.826 26.7359 124.826C26.4965 124.999 25.8013 125.855 25.6889 126.254C25.7139 126.324 25.7556 126.269 25.7783 126.337C25.9567 126.007 26.5705 125.314 26.8115 125.203Z" fill="#7E7575"/>
<path d="M46.4382 126.418C46.4263 126.34 46.3626 126.042 46.3626 126.042C46.1232 126.215 45.428 127.07 45.3156 127.469C45.3406 127.539 45.3823 127.485 45.4051 127.552C45.5834 127.223 46.1972 126.53 46.4382 126.418Z" fill="#7E7575"/>
<path d="M28.57 123.344C28.5552 123.247 28.473 122.881 28.473 122.881C28.1371 123.098 27.1545 124.163 26.9902 124.657C27.0233 124.743 27.0824 124.675 27.1125 124.758C27.367 124.349 28.2333 123.485 28.57 123.344Z" fill="#7E7575"/>
<path d="M51.3356 127.244C51.3208 127.147 51.2386 126.781 51.2386 126.781C50.9027 126.999 49.9201 128.064 49.7558 128.557C49.7889 128.643 49.848 128.575 49.8782 128.658C50.1326 128.249 50.9989 127.386 51.3356 127.244Z" fill="#7E7575"/>
<path d="M46.9108 132.563C46.896 132.467 46.8138 132.1 46.8138 132.1C46.4779 132.318 45.4953 133.383 45.331 133.876C45.3641 133.962 45.4232 133.894 45.4534 133.977C45.7078 133.568 46.5741 132.705 46.9108 132.563Z" fill="#7E7575"/>
<path d="M40.6657 130.212C40.6509 130.116 40.5687 129.75 40.5687 129.75C40.2328 129.967 39.2502 131.032 39.0859 131.526C39.119 131.611 39.1781 131.543 39.2082 131.626C39.4627 131.218 40.329 130.354 40.6657 130.212Z" fill="#7E7575"/>
<path d="M42.4072 125.834C42.3924 125.737 42.3103 125.371 42.3103 125.371C41.9744 125.589 40.9918 126.654 40.8275 127.147C40.8606 127.233 40.9197 127.165 40.9498 127.248C41.2043 126.839 42.0706 125.976 42.4072 125.834Z" fill="#7E7575"/>
<path d="M45.5633 105.354C45.4396 105.352 44.9707 105.303 44.9707 105.303C45.2573 104.699 46.6481 102.832 47.2863 102.446C47.396 102.481 47.3072 102.594 47.413 102.624C46.8821 103.139 45.7528 104.767 45.5633 105.354Z" fill="#7E7575"/>
<path d="M41.8554 110.242C41.7381 110.211 41.3117 110.027 41.3117 110.027C41.8474 109.136 43.9855 106.497 44.7625 106.03C44.8523 106.11 44.7184 106.269 44.8063 106.34C44.0761 107.034 42.2912 109.355 41.8554 110.242Z" fill="#7E7575"/>
<path d="M45.7803 107.374C45.663 107.343 45.2366 107.159 45.2366 107.159C45.7723 106.268 47.9104 103.629 48.6874 103.163C48.7772 103.242 48.6434 103.401 48.7313 103.473C48.0011 104.167 46.2161 106.487 45.7803 107.374Z" fill="#7E7575"/>
<path d="M40.6817 137.475C40.5644 137.445 40.138 137.26 40.138 137.26C40.6737 136.37 42.8118 133.731 43.5888 133.264C43.6786 133.343 43.5447 133.502 43.6326 133.574C42.9024 134.268 41.1175 136.589 40.6817 137.475Z" fill="#7E7575"/>
<path d="M43.8366 112.035C43.7193 112.005 43.2929 111.82 43.2929 111.82C43.8286 110.93 45.9667 108.291 46.7437 107.824C46.8335 107.903 46.6996 108.062 46.7875 108.134C46.0573 108.828 44.2724 111.149 43.8366 112.035Z" fill="#7E7575"/>
<path d="M47.0031 120.075C46.8858 120.044 46.4594 119.86 46.4594 119.86C46.9951 118.969 49.1332 116.33 49.9102 115.864C50 115.943 49.8661 116.102 49.954 116.174C49.2238 116.868 47.4389 119.189 47.0031 120.075Z" fill="#7E7575"/>
<path d="M44.1504 109.651C44.0299 109.688 43.5637 109.807 43.5637 109.807C43.7103 109.421 44.6536 108.072 45.1892 107.685C45.3033 107.669 45.2418 107.752 45.3511 107.734C44.9478 108.151 44.2063 109.303 44.1504 109.651Z" fill="#7E7575"/>
<path d="M48.2848 127.895C48.1643 127.933 47.6981 128.052 47.6981 128.052C47.8447 127.666 48.788 126.317 49.3236 125.93C49.4377 125.913 49.3762 125.997 49.4855 125.979C49.0822 126.396 48.3407 127.547 48.2848 127.895Z" fill="#7E7575"/>
<path d="M48.7806 105.198C48.7066 105.211 48.4217 105.248 48.4217 105.248C48.5348 105.001 49.1859 104.179 49.53 103.968C49.5988 103.968 49.5567 104.018 49.6228 104.017C49.3552 104.26 48.8373 104.968 48.7806 105.198Z" fill="#7E7575"/>
<path d="M47.454 122.292C47.3799 122.306 47.0951 122.343 47.0951 122.343C47.2082 122.096 47.8593 121.273 48.2033 121.063C48.2722 121.062 48.23 121.113 48.2961 121.111C48.0285 121.355 47.5106 122.062 47.454 122.292Z" fill="#7E7575"/>
<path d="M47.4122 107.187C47.3211 107.203 46.9702 107.245 46.9702 107.245C47.1054 106.907 47.894 105.787 48.3147 105.506C48.3996 105.508 48.3486 105.576 48.4301 105.576C48.1043 105.905 47.478 106.87 47.4122 107.187Z" fill="#7E7575"/>
<defs>
<filter id="filter0_d_2010_455" x="0" y="8.95686" width="212.141" height="215.026" filterUnits="userSpaceOnUse" color-interpolation-filters="sRGB">
<feFlood flood-opacity="0" result="BackgroundImageFix"/>
<feColorMatrix in="SourceAlpha" type="matrix" values="0 0 0 0 0 0 0 0 0 0 0 0 0 0 0 0 0 0 127 0" result="hardAlpha"/>
<feOffset dy="4"/>
<feGaussianBlur stdDeviation="2"/>
<feComposite in2="hardAlpha" operator="out"/>
<feColorMatrix type="matrix" values="0 0 0 0 0 0 0 0 0 0 0 0 0 0 0 0 0 0 0.25 0"/>
<feBlend mode="normal" in2="BackgroundImageFix" result="effect1_dropShadow_2010_455"/>
<feBlend mode="normal" in="SourceGraphic" in2="effect1_dropShadow_2010_455" result="shape"/>
</filter>
</defs>
</svg>
