<svg width="121" height="213" viewBox="105 85 37 45" fill="none" xmlns="http://www.w3.org/2000/svg">
<path style="fill:none;stroke:#2B2B2B;stroke-width:0.42" d="m 129.12601,89.358646 c 0.11385,-0.03253 0.95962,0.276503 2.2608,0.390356 1.30118,0.113853 5.13967,0.650589 5.70894,0.666856 0.56926,0.01627 2.52104,-0.178914 2.78127,0.99215 0.26024,1.171064 -0.0584,3.058673 -0.0651,3.074043 -0.008,0.01857 -0.0516,0.500059 -0.73191,0.390353 -0.99215,-0.195178 -1.08974,-2.651157 -1.87045,-2.634893 -0.67909,0.01415 -1.9843,0.09759 -3.07404,0.227706 -1.08974,0.130119 -3.51319,-0.585531 -3.51319,-0.227706 0,0.357825 0.0976,2.423451 -0.14638,3.008982 -0.24398,0.585534 -0.29277,2.033098 0.0813,1.577684 0.37409,-0.455414 -0.21144,-2.423451 0.48794,-2.569834 0.69939,-0.146384 4.11499,-1.073476 4.70052,-0.520473 0.58553,0.553003 2.52104,1.935507 2.53731,2.634893 0.0163,0.699386 -0.13392,1.412137 -0.30643,1.688161 -0.17252,0.276021 0.40253,0.874069 0.67855,1.414613 0.27602,0.540543 -0.28752,1.495123 -0.24152,1.955153 0.046,0.46004 0.65556,3.94483 0.34503,4.15184 -0.31052,0.20702 -1.2881,1.2306 -1.56413,1.1846 -0.27602,-0.046 -1.54112,-1.03509 -1.67913,-0.90858 -0.13801,0.12651 1.2881,1.32261 1.02358,1.52963 -0.26452,0.20701 -1.65613,0.60955 -1.92065,0.37953 -0.26452,-0.23002 -0.47154,0.58655 -1.10409,0.50604 -0.63255,-0.0805 -1.1846,-0.14951 -1.57563,-1.96666 -0.2807,-1.30445 -0.0874,-1.86789 -0.44031,-1.46317 -9.41464,10.79612 -17.86176,6.02367 -16.48906,15.02277 0.10952,0.71798 0.39103,0.78206 -0.62105,1.56412 -1.01208,0.78206 -1.19609,2.18518 -2.23118,2.30019 -1.03508,0.11501 -2.57621,0.18401 -2.66821,-0.39103 -0.092,-0.57505 1.05808,-0.82807 1.42611,-1.10409 0.36803,-0.27603 1.35711,-2.96724 1.42612,-4.04833 0.069,-1.08109 0.32202,-4.27835 0.55204,-4.55437 0.23002,-0.27602 -2.32319,2.36919 -2.11617,2.71422 0.20702,0.34503 1.38011,0.87407 0.78206,1.54113 -0.59805,0.66705 -2.09317,0.85106 -2.25418,1.38011 -0.16101,0.52904 0.092,1.54112 -0.92007,1.86315 -1.01208,0.32202 -2.20818,0.43703 -2.20818,-0.046 0,-0.48304 2.16217,-1.95515 2.07017,-3.19725 -0.092,-1.24211 0.52904,-3.05925 0.75906,-4.11734 0.23002,-1.05808 1.79414,-8.00464 2.82923,-8.53369 1.03508,-0.52904 0.57504,-1.2881 3.95632,-0.94307 3.38127,0.34502 4.9454,1.95515 5.45144,1.38011 0.50604,-0.57505 4.85339,-6.486526 5.58945,-6.601535 0.73606,-0.115009 0.57505,-2.553208 0.50604,-3.381274 -0.069,-0.828067 0.5622,-5.941626 1.78772,-6.329085 z" id="path1"/>
<path style="fill:none;stroke:#2B2B2B;stroke-width:0.42" d="m 127.56831,92.95051 2.98449,-0.126511" id="path2"/>
<path style="fill:none;stroke:#2B2B2B;stroke-width:0.42" d="m 130.42053,96.91833 c 0,0 0.82807,2.771726 1.80565,2.679718 0.32387,-0.03048 0.21784,2.349532 0.23411,2.495912 0.0163,0.14639 -1.17107,1.21986 -1.05721,1.41504 0.11385,0.19517 -1.44757,2.63489 -1.44757,2.63489 l -2.43971,-0.52047 1.95177,-3.87102 c 0,0 -2.40719,4.71678 -2.37466,4.97702 0.0325,0.26024 -4.2939,0.26024 -5.00954,-0.0976 -0.71565,-0.35782 -0.8783,-0.91082 -0.8783,-0.91082" id="path3"/>
<path style="fill:none;stroke:#2B2B2B;stroke-width:0.42" d="m 126.92731,106.93473 c 0,0 -5.12738,0.75352 -6.37636,1.64404 -1.24897,0.89051 -2.10353,1.88379 -2.10353,1.88379 l -0.36155,2.0208 c 0,0 -0.0328,1.40427 0.23008,1.26728 0.26293,-0.13701 0.82168,-1.33579 0.82168,-1.33579 0,0 0.26295,-1.09602 0.49303,-1.40427 0.23008,-0.30826 5.9162,-0.85627 7.00084,-1.19879 1.08463,-0.34251 2.82663,-1.81529 2.85949,-1.95229 0.0328,-0.137 0.52589,-1.54128 0.52589,-1.54128 l -0.0658,-0.23976" id="path4"/>
<path style="fill:none;stroke:#2B2B2B;stroke-width:0.42" d="m 112.91364,113.59547 c 0,0 1.78552,-2.05168 1.78552,-3.09262 0,-1.04095 0.13012,-2.34213 0.13012,-2.34213 l 1.78912,0.74818" id="path5"/>
<ellipse style="fill:none;stroke:#2B2B2B;stroke-width:0.42" id="path6" ry="8.3197479" rx="8.5101614" cy="120.01591" cx="124.22165"/>
<path style="fill:none;stroke:#2B2B2B;stroke-width:0.42" d="m 116.65093,114.34133 c 0,0 0.2765,-0.97588 0.14638,-2.29333 -0.13011,-1.31744 -0.0325,-1.72406 0.11386,-1.80539" id="path15"/>
<path style="fill:none;stroke:#2B2B2B;stroke-width:0.42" d="m 116.55334,114.4064 c 0,0 1.2036,-3.1879 1.96804,-4.04993" id="path16"/>
<path style="fill:none;stroke:#2B2B2B;stroke-width:0.42" d="m 128.58927,112.97509 c 0,0 0.78071,-4.55413 1.00842,-4.8469 0.2277,-0.29276 2.79754,-4.94449 2.79754,-4.94449 l 2.76501,0.91083" id="path33"/>
</svg>
