<svg width="121" height="213" viewBox="0 0 121 213" fill="none" xmlns="http://www.w3.org/2000/svg">
<path d="M34.5381 23.4098C34.5381 23.4098 34.8941 24.8269 35.2259 25.7481C35.5577 26.669 33.4872 29.8649 33.4458 31.1127C33.4043 32.3606 28.5961 44.7012 28.2643 45.612C27.9359 46.5232 27.8702 46.1056 28.6445 47.8389C29.4223 49.5722 12.6543 60.6935 11.6207 61.56C10.5837 62.4268 12.6543 71.0926 11.6207 77.159C10.5837 83.225 13.1728 99.0407 13.4977 100.196C13.8226 101.352 25.2156 110.09 25.1499 111.895C25.0842 113.701 23.7258 112.401 21.199 112.557C18.6757 112.714 18.0915 108.513 17.2516 109.38C16.4116 110.246 19.0628 120.934 19.5156 122.884C19.9685 124.834 13.6912 125.195 11.6207 125.34C9.54676 125.484 5.92426 113.279 5.3401 112.557C4.75593 111.835 5.27442 103.024 5.3401 102.375C5.40577 101.725 4.62802 88.0755 3.2039 86.198C1.77977 84.3205 1.06769 68.4326 0.808448 65.9061C0.549202 63.38 1.13339 57.6002 1.64842 55.7222C2.16691 53.8447 7.8012 46.4063 8.18834 45.612C8.57548 44.8176 20.086 34.3842 20.7738 34.2362C21.4651 34.0885 24.8319 28.7343 25.1499 28.4385C25.4679 28.1428 28.89 23.9127 34.5381 23.4098ZM34.5381 23.4098C40.1862 22.907 53.8398 25.2677 54.0748 25.0548C54.3064 24.8416 54.2442 22.6409 53.7153 21.3869C53.183 20.1325 54.3271 19.3043 54.0748 18.4999C53.819 17.6951 53.9262 14.6897 53.7153 10.9038C53.501 7.1175 57.407 3.51863 57.407 3.51863C57.407 3.51863 61.0468 0.246352 65.5991 0.810496C70.1515 1.37464 71.8694 2.39034 73.8915 4.6473C75.9171 6.90388 78.4439 13.787 78.5476 15.931C78.6478 18.0749 77.839 25.184 78.5476 25.7481C79.2527 26.3123 77.1304 32.2927 76.8262 33.1954C76.522 34.0981 76.8262 34.7752 76.8262 34.7752L81.3232 33.1954C81.3232 33.1954 85.6509 32.5329 87.6039 33.1954C89.5534 33.8579 90.6803 34.2014 91.6136 34.7752C92.5468 35.3486 95.7269 35.3961 97.1476 35.0648C98.5717 34.7336 101.942 33.716 102.516 33.9288C103.09 34.1417 113.166 33.9288 115.284 35.4905C117.407 37.0526 120.269 39.8213 120.227 40.9808C120.186 42.1404 119.508 43.6546 119.104 43.8679C118.7 44.0807 109.021 53.7016 107.597 54.7127C106.173 55.7238 91.8002 65.834 90.2482 65.9061C88.6927 65.9786 87.2824 68.5734 86.9644 68.9875C86.6464 69.4017 84.8697 70.6441 84.2855 70.9399C83.7048 71.2356 81.662 72.0045 80.6285 71.7682C79.5949 71.5314 79.6468 71.7385 78.5476 71.5017C77.4449 71.2649 76.0657 70.6144 75.5611 70.9399C75.0598 71.2649 71.109 73.8385 69.5708 73.2767C68.0326 72.7144 62.2773 75.288 60.9534 73.2767C59.6261 71.2649 60.2379 70.5257 60.3416 70.437C60.4488 70.348 72.1943 65.0829 72.3534 63.9291C72.5124 62.7758 74.13 63.2786 74.8732 63.1602M74.8732 63.1602C75.6164 63.0419 81.6447 63.7448 84.2855 62.1561C86.9264 60.5674 98.3194 49.8795 96.1832 50.0237C94.047 50.1683 85.0114 49.5903 84.2855 49.374C83.5596 49.1573 77.476 57.1012 77.4104 58.3286C77.3447 59.5563 75.7685 63.4421 74.8732 63.1602Z" stroke="#2B2B2B" stroke-width="1.49" stroke-miterlimit="1.5" stroke-linecap="round" stroke-linejoin="round"/>
<path d="M21.9662 54.1689C21.9662 54.1689 21.8279 59.0654 21.7035 59.6095C21.5756 60.154 20.1964 63.798 20.0477 64.0112C19.8991 64.2241 19.6433 67.3714 19.391 67.7501C19.1352 68.1287 17.2064 71.986 16.6534 72.3172C16.1003 72.6484 14.1923 74.7307 14.13 74.8965C14.0644 75.062 14.766 76.198 14.4688 76.2928C14.1715 76.3873 12.9202 77.831 12.7923 78.2806C12.6644 78.7302 13.5977 80.3864 13.5355 80.8835C13.4733 81.3805 13.2313 100.58 13.9226 100.789" stroke="#2B2B2B" stroke-width="1.49" stroke-miterlimit="1.5" stroke-linecap="round" stroke-linejoin="round"/>
<path d="M16.242 124.869C16.242 124.869 14.2752 136.875 13.9503 138.68C13.6254 140.486 15.8929 148.718 15.6336 150.741C15.3744 152.763 13.0343 159.696 12.7819 160.129C12.5262 160.562 9.55002 177.677 8.90018 177.244C8.25379 176.811 9.67791 185.477 10.4557 186.055C11.2334 186.632 10.8428 188.654 10.4557 189.015C10.0651 189.377 8.57871 191.037 8.90018 193.565C9.2251 196.093 7.41384 206.708 8.25379 207.575C9.09375 208.442 18.5856 207.359 21.9662 207.575C25.3433 207.792 24.7626 206.131 25.9931 206.708C27.2202 207.286 28.7757 211.042 29.2942 209.742C29.8092 208.442 31.6896 204.109 31.5583 203.386C31.4304 202.664 30.9119 202.087 31.5583 200.137C32.2046 198.187 33.4352 195.298 32.7888 193.565C32.1424 191.832 31.5583 192.699 31.5583 190.532C31.5583 188.365 33.5009 161.428 33.2416 160.129C32.9824 158.829 37.3204 145.541 37.2547 143.302C37.1891 141.063 39.0038 140.775 39.0695 139.98C39.1317 139.186 38.5509 134.997 37.9668 134.997C37.3861 134.997 41.3992 119.615 41.2057 119.398C41.0086 119.182 44.9595 111.021 44.6346 110.371C44.3131 109.721 55.1876 119.254 55.3812 119.398C55.5747 119.543 65.4814 134.492 66.0621 136.441C66.6463 138.391 70.6594 148.068 71.565 148.357C72.4707 148.646 77.0679 154.423 76.6151 155.001C76.1623 155.579 78.0427 177.967 79.4323 179.378C80.8253 180.788 83.4799 195.457 83.8602 197.009C84.2369 198.561 85.2498 210.203 87.5242 209.742C89.8021 209.28 107.248 207.24 108.641 206.708C110.03 206.177 107.628 204.827 107.123 203.386C106.618 201.945 105.903 187.966 105.27 186.055C104.638 184.143 99.5808 156.361 98.7893 155.001C98.0012 153.641 96.736 139.94 96.577 138.68C96.4215 137.421 94.4789 130.498 94.2127 130.41C93.95 130.321 94.7451 127.481 94.2127 126.949C93.6839 126.416 89.9438 121.711 89.3251 120.972C88.7029 120.232 81.5339 105.951 80.4174 104.795C79.2698 103.613 69.5187 93.1481 67.5312 92.1775C65.5436 91.2069 66.5772 90.7446 66.7846 90.4673C66.992 90.1901 70.058 87.2783 69.1074 86.6313C68.1534 85.9842 63.5526 82.8874 64.0504 82.0094C64.5481 81.1314 69.6846 73.5052 69.5187 73.0891" stroke="#2B2B2B" stroke-width="1.49" stroke-miterlimit="1.5" stroke-linecap="round" stroke-linejoin="round"/>
<path d="M13.7395 80.7788C13.7395 80.7788 19.3738 92.6571 19.996 92.7034C20.6181 92.7496 30.2275 103.472 30.8082 103.241C31.3889 103.01 39.2182 98.6656 39.3011 98.0648C39.3841 97.4641 42.0353 103.519 42.5745 103.749C43.1138 103.981 46.719 108.695 46.9264 109.065C47.1303 109.434 57.908 101.069 58.5475 100.422C59.187 99.775 66.4389 91.2704 66.273 90.9469" stroke="#2B2B2B" stroke-width="1.49" stroke-miterlimit="1.5" stroke-linecap="round" stroke-linejoin="round"/>
<path d="M39.1767 97.8334C39.1767 97.8334 37.8944 93.4429 38.4716 92.2873C39.0523 91.132 40.4626 81.7035 40.6285 80.7788C40.7944 79.8545 41.2887 69.4091 41.1263 67.5142C40.9603 65.619 38.8034 57.1148 39.1767 55.867C39.55 54.6191 37.9773 45.6989 38.4716 44.451C38.9694 43.2032 39.7609 33.5896 40.0063 33.1735C40.2552 32.7575 39.7989 28.3669 41.1263 28.3669C42.4501 28.3669 49.2873 28.9677 49.5362 29.476" stroke="#2B2B2B" stroke-width="1.49" stroke-miterlimit="1.5" stroke-linecap="round" stroke-linejoin="round"/>
<path d="M53.387 25.0391C53.387 25.0391 50.3209 27.6735 49.9096 29.2449C49.4948 30.8162 46.3873 36.8711 47.0925 38.3961C47.7941 39.9216 48.3334 45.0055 54.0091 45.9298C59.6849 46.8544 60.5974 46.6694 61.344 45.9298C62.0872 45.1905 66.0243 39.9216 65.9413 38.9973" stroke="#2B2B2B" stroke-width="1.49" stroke-miterlimit="1.5" stroke-linecap="round" stroke-linejoin="round"/>
<path d="M76.4665 34.6062C76.4665 34.6062 75.5125 35.7152 75.6784 36.8246C75.8443 37.934 76.1761 47.2699 76.0932 48.2868C76.0102 49.3036 75.5954 53.6946 75.1391 54.4801C74.6829 55.2659 73.3175 58.2702 73.8118 58.7321C74.3096 59.1945 74.1851 61.598 75.6784 60.8584C77.1682 60.1188 76.1761 59.2408 77.0023 58.7321" stroke="#2B2B2B" stroke-width="1.49" stroke-miterlimit="1.5" stroke-linecap="round" stroke-linejoin="round"/>
<path d="M76.5219 33.9984C76.5219 33.9984 74.9733 37.2641 74.9941 39.3703C75.0183 41.4765 72.1942 41.6419 71.5789 41.5709C70.9637 41.5 66.0967 38.9442 65.9412 38.7548C65.7891 38.5655 59.4877 32.0815 59.4877 31.4665C59.4877 30.851 59.3632 28.6511 59.4877 28.3669" stroke="#2B2B2B" stroke-width="1.49" stroke-miterlimit="1.5" stroke-linecap="round" stroke-linejoin="round"/>
<path d="M18.4751 73.5459C18.4751 73.5459 31.7312 87.9661 34.3409 87.6888" stroke="#2B2B2B" stroke-width="1.49" stroke-miterlimit="1.5" stroke-linecap="round" stroke-linejoin="round"/>
<path d="M21.9524 65.6887C21.9524 65.6887 30.7771 72.6216 30.7771 73.5459" stroke="#2B2B2B" stroke-width="1.49" stroke-miterlimit="1.5" stroke-linecap="round" stroke-linejoin="round"/>
<path d="M22.9062 70.0793C23.2381 70.2641 27.5865 80.6173 30.777 79.6004" stroke="#2B2B2B" stroke-width="1.49" stroke-miterlimit="1.5" stroke-linecap="round" stroke-linejoin="round"/>
<path d="M27.5244 52.135C27.5244 52.135 29.3391 64.6835 30.1169 65.6888" stroke="#2B2B2B" stroke-width="1.49" stroke-miterlimit="1.5" stroke-linecap="round" stroke-linejoin="round"/>
<path d="M28.8208 48.7844C28.8208 48.7844 29.1837 54.7351 30.117 55.8904" stroke="#2B2B2B" stroke-width="1.49" stroke-miterlimit="1.5" stroke-linecap="round" stroke-linejoin="round"/>
<path d="M10.9846 208.061C10.9846 208.061 11.0088 209.954 11.7243 210.013C12.4433 210.073 28.0845 211.433 28.4854 210.664C28.8795 209.895 28.8207 210.013 28.8207 210.013" stroke="#2B2B2B" stroke-width="1.49" stroke-miterlimit="1.5" stroke-linecap="round" stroke-linejoin="round"/>
<path d="M57.8735 74.3779C57.8735 74.3779 51.6585 81.3682 49.5361 81.3108" stroke="#2B2B2B" stroke-width="1.49" stroke-miterlimit="1.5" stroke-linecap="round" stroke-linejoin="round"/>
<path d="M49.5362 90.9584C49.5362 90.9584 47.6212 94.0783 49.5362 93.7895C51.4511 93.5007 59.4289 89.0519 59.8921 87.8388C60.3588 86.6253 59.8921 86.4521 59.8921 86.4521" stroke="#2B2B2B" stroke-width="1.49" stroke-miterlimit="1.5" stroke-linecap="round" stroke-linejoin="round"/>
<path d="M42.0214 89.5317C42.8705 89.5317 43.5589 88.7083 43.5589 87.6927C43.5589 86.6771 42.8705 85.8538 42.0214 85.8538C41.1722 85.8538 40.4839 86.6771 40.4839 87.6927C40.4839 88.7083 41.1722 89.5317 42.0214 89.5317Z" fill="#EBEBEB" stroke="#2B2B2B" stroke-width="1.49" stroke-miterlimit="1.5" stroke-linecap="round" stroke-linejoin="round"/>
<path d="M41.4044 55.6071C42.2536 55.6071 42.9419 54.7838 42.9419 53.7682C42.9419 52.7525 42.2536 51.9292 41.4044 51.9292C40.5553 51.9292 39.8669 52.7525 39.8669 53.7682C39.8669 54.7838 40.5553 55.6071 41.4044 55.6071Z" fill="#EBEBEB" stroke="#2B2B2B" stroke-width="1.49" stroke-miterlimit="1.5" stroke-linecap="round" stroke-linejoin="round"/>
<path d="M41.4044 43.7753C42.2536 43.7753 42.9419 42.952 42.9419 41.9364C42.9419 40.9207 42.2536 40.0974 41.4044 40.0974C40.5553 40.0974 39.8669 40.9207 39.8669 41.9364C39.8669 42.952 40.5553 43.7753 41.4044 43.7753Z" fill="#EBEBEB" stroke="#2B2B2B" stroke-width="1.49" stroke-miterlimit="1.5" stroke-linecap="round" stroke-linejoin="round"/>
<path d="M61.4152 53.5734C62.2643 53.5734 62.9527 52.7501 62.9527 51.7345C62.9527 50.7188 62.2643 49.8955 61.4152 49.8955C60.566 49.8955 59.8777 50.7188 59.8777 51.7345C59.8777 52.7501 60.566 53.5734 61.4152 53.5734Z" fill="#EBEBEB" stroke="#2B2B2B" stroke-width="1.49" stroke-miterlimit="1.5" stroke-linecap="round" stroke-linejoin="round"/>
<path d="M60.8979 60.7748C60.8979 60.7748 69.0175 60.9225 70.21 59.0369" stroke="#2B2B2B" stroke-width="1.49" stroke-miterlimit="1.5" stroke-linecap="round" stroke-linejoin="round"/>
<path d="M42.6061 65.2497C43.4552 65.2497 44.1436 64.4264 44.1436 63.4107C44.1436 62.3951 43.4552 61.5718 42.6061 61.5718C41.757 61.5718 41.0686 62.3951 41.0686 63.4107C41.0686 64.4264 41.757 65.2497 42.6061 65.2497Z" fill="#EBEBEB" stroke="#2B2B2B" stroke-width="1.49" stroke-miterlimit="1.5" stroke-linecap="round" stroke-linejoin="round"/>
<path d="M43.5587 74.2624C44.4079 74.2624 45.0962 73.4391 45.0962 72.4234C45.0962 71.4078 44.4079 70.5845 43.5587 70.5845C42.7096 70.5845 42.0212 71.4078 42.0212 72.4234C42.0212 73.4391 42.7096 74.2624 43.5587 74.2624Z" fill="#EBEBEB" stroke="#2B2B2B" stroke-width="1.49" stroke-miterlimit="1.5" stroke-linecap="round" stroke-linejoin="round"/>
<path d="M43.5587 81.7497C44.4079 81.7497 45.0962 80.9264 45.0962 79.9107C45.0962 78.8951 44.4079 78.0718 43.5587 78.0718C42.7096 78.0718 42.0212 78.8951 42.0212 79.9107C42.0212 80.9264 42.7096 81.7497 43.5587 81.7497Z" fill="#EBEBEB" stroke="#2B2B2B" stroke-width="1.49" stroke-miterlimit="1.5" stroke-linecap="round" stroke-linejoin="round"/>
<path d="M88.2502 209.865C88.2502 209.865 87.7732 211.492 88.8344 211.522C89.8921 211.551 107.818 211.699 109.408 211.522C111.002 211.344 114.209 211.903 113.705 210.899C113.2 209.895 108.243 206.908 108.164 206.73" stroke="#2B2B2B" stroke-width="1.49" stroke-miterlimit="1.5" stroke-linecap="round" stroke-linejoin="round"/>
<path d="M53.4905 105.648C53.4905 105.648 69.4911 101.893 74.88 103.972" stroke="#2B2B2B" stroke-width="1.49" stroke-miterlimit="1.5" stroke-linecap="round" stroke-linejoin="round"/>
<path d="M33.501 102.47C33.501 102.47 43.8051 108.941 45.0495 107.901" stroke="#2B2B2B" stroke-width="1.49" stroke-miterlimit="1.5" stroke-linecap="round" stroke-linejoin="round"/>
<path d="M32.0491 103.857C32.0491 103.857 35.9862 109.981 36.9679 109.461" stroke="#2B2B2B" stroke-width="1.49" stroke-miterlimit="1.5" stroke-linecap="round" stroke-linejoin="round"/>
<path d="M36.9678 112.696C36.9678 112.696 33.5492 127.949 36.4009 129.393" stroke="#2B2B2B" stroke-width="1.49" stroke-miterlimit="1.5" stroke-linecap="round" stroke-linejoin="round"/>
<path d="M39.2734 112.003C39.2734 112.003 40.5939 116.856 40.0235 118.069" stroke="#2B2B2B" stroke-width="1.49" stroke-miterlimit="1.5" stroke-linecap="round" stroke-linejoin="round"/>
<path d="M64.1853 110.727C64.1853 110.727 74.5758 111.573 74.88 113.971" stroke="#2B2B2B" stroke-width="1.49" stroke-miterlimit="1.5" stroke-linecap="round" stroke-linejoin="round"/>
<path d="M64.1853 116.933C64.1853 116.933 74.0712 116.243 74.88 118.069" stroke="#2B2B2B" stroke-width="1.49" stroke-miterlimit="1.5" stroke-linecap="round" stroke-linejoin="round"/>
<path d="M60.6421 118.069C60.6421 118.069 74.4478 131.884 74.8798 135.269" stroke="#2B2B2B" stroke-width="1.49" stroke-miterlimit="1.5" stroke-linecap="round" stroke-linejoin="round"/>
<path d="M66.9749 22.5586C66.9749 22.5586 70.0823 22.4856 71.5065 22.6312" stroke="#2B2B2B" stroke-width="1.49" stroke-miterlimit="1.5" stroke-linecap="round" stroke-linejoin="round"/>
<path d="M76.2314 21.4026C76.2314 21.4026 78.1084 21.0416 78.3676 20.4636" stroke="#2B2B2B" stroke-width="1.49" stroke-miterlimit="1.5" stroke-linecap="round" stroke-linejoin="round"/>
</svg>
