<svg width="121" height="213" viewBox="85 100 35 50" fill="none" xmlns="http://www.w3.org/2000/svg">
<path style="fill:none;stroke:#2B2B2B;stroke-width:0.43" d="m 97.100677,116.03287 c 0,0 -1.171064,-1.91924 -1.040945,-2.40719 0.13012,-0.48794 0.910828,-0.91082 0.292767,-1.20359 -0.618061,-0.29276 -0.910828,-0.84577 -0.325297,-1.4313 0.585533,-0.58553 0.585533,-0.78071 0.780708,-1.36624 0.195178,-0.58553 3.090307,0.52047 3.31802,-0.19518 0.2277,-0.71565 0.29276,-1.36624 0.87829,-0.87829 0.58553,0.48794 1.49636,0.32529 2.66742,0.48794 1.17107,0.16265 1.65901,1.62648 1.88672,1.69154 0.2277,0.065 1.00841,0.19517 0.97588,0.87829 -0.0325,0.68312 0.0325,1.10601 0.26024,1.30118 0.22771,0.19518 0.91083,0.35783 0.91083,1.39877 0,1.04095 -0.42289,1.59395 -0.52048,2.14695 -0.0976,0.55301 0,1.13854 -0.58553,1.65901 -0.58553,0.52047 -1.9843,1.52889 -2.73248,1.65901 -0.74818,0.13011 -4.619192,0 -6.24567,-0.78071 -1.626476,-0.78071 -2.04936,-0.22771 -2.04936,-0.22771 0,0 -1.919245,-1.13853 -1.821656,-1.85418 0.09759,-0.71565 -0.292764,-2.21201 1.171064,-1.88672 1.463829,0.3253 2.179479,1.00842 2.179479,1.00842 z" id="path1"/>
<path style="fill:none;stroke:#2B2B2B;stroke-width:0.43" d="m 106.9227,112.92043 c 0.046,-0.25302 -0.10207,-1.98247 0.47298,-2.07447 0.57504,-0.092 1.93215,-0.64406 1.2651,-1.1501 -0.66705,-0.50604 -1.93216,-0.39103 -1.35711,-1.08109 0.57505,-0.69005 1.35711,-0.87406 0.78206,-1.65613 -0.57504,-0.78206 -1.19609,-1.2881 -1.49512,-1.2881 -0.29902,0 0.48304,-0.75906 -0.27602,-0.94308 -0.75906,-0.18401 -1.2421,0.25302 -1.38011,-0.18401 -0.13801,-0.43704 -0.80507,-1.49512 -2.11617,-1.42612 -1.31111,0.069 -1.86315,1.12709 -1.74814,1.2651 0.115,0.13802 -0.46004,-0.32202 -1.150096,-0.23001 -0.690057,0.092 -1.219099,0.59804 -1.219099,0.59804 0,0 -0.09201,-0.43703 -0.920075,-0.43703 -0.828067,0 -1.771142,0.43703 -1.817145,0.78206 -0.04601,0.34503 0.115009,1.1961 -0.04601,1.56413 -0.161012,0.36803 -1.127091,0.64405 -1.127091,0.64405 l -0.253021,0.89707 -0.805063,0.13801 -0.322027,0.98908 c 0,0 0.483039,0.27603 0.460039,0.78207 -0.02299,0.50604 -0.36803,1.17309 -0.414036,1.2651 -0.046,0.092 -0.207015,2.59921 -0.207015,2.59921 0,0 -0.345028,0.59805 -0.437037,-0.092 -0.09201,-0.69005 -0.207015,-0.98908 -0.253021,-1.10409 -0.046,-0.11501 -0.115009,-3.01324 0.04601,-3.24326 0.161012,-0.23002 1.081088,-0.94308 0.207015,-1.08109 -0.874069,-0.13801 -1.771142,0.78207 -1.771142,0.92008 0,0.13801 0.276022,1.58712 0.02299,1.56412 -0.253019,-0.023 -1.058085,0.18402 -0.782064,0.75907 0.276024,0.57504 0.782064,0.94307 0.805067,1.03508 0.02299,0.092 -0.437036,0.52904 -0.299025,1.01208 0.138012,0.48304 1.058085,1.44912 1.058085,1.44912 0,0 0.713057,0.20701 0.805066,0.25302 0.09201,0.046 -0.391033,1.17309 0.09201,1.2421 0.48304,0.069 0.854186,0.20332 1.003697,0.0164" id="path2"/>
<path style="fill:none;stroke:#2B2B2B;stroke-width:0.43" d="m 92.07644,108.52852 c 0,0 -1.311106,-0.5693 -2.001162,-1.36286 -0.709548,-0.81598 -0.690057,-2.62221 -0.690057,-2.62221 0,0 4.968401,0.89707 5.014407,1.08108 0.046,0.18402 -0.207018,-1.51812 0.06901,-2.16217 0.276021,-0.64405 0.621048,-2.11617 0.966076,-2.09317 0.34503,0.023 1.242102,0.92007 1.265102,1.2881 0.02299,0.36803 0.253021,1.65614 0.253021,1.65614" id="path3"/>
<path style="fill:none;stroke:#2B2B2B;stroke-width:0.43" d="m 99.898217,119.70871 c 0,0 0.569263,0.19517 0.292763,0.71565 -0.276496,0.52047 -0.504205,0.553 -0.390352,0.78071 0.113856,0.2277 -0.14638,1.36624 1.642742,1.07347 1.78913,-0.29276 2.5373,-0.56927 2.56984,-1.21986 0.0325,-0.65059 -0.24398,-1.07282 -0.3253,-1.23547" id="path4"/>
<path style="fill:none;stroke:#2B2B2B;stroke-width:0.43" d="m 104.58945,119.63266 c 0,0 1.35711,-0.115 2.19668,0.42554 0.83957,0.54054 2.9848,1.97637 2.87095,2.31793 -0.11385,0.34156 -1.13853,1.26865 -1.28492,1.39877 -0.14638,0.13012 -0.48794,0.53674 -0.48794,0.53674 0,0 -1.30118,-0.0976 -1.1548,0 0.14638,0.0976 0.2765,0.60179 0.2765,0.60179 l -1.67527,1.18733 -2.89513,0.0813 -0.66685,0.53673 c 0,0 0.30903,0.22771 0.58553,0.14639 0.2765,-0.0813 -0.71565,0.553 -0.71565,0.553 0,0 0.34156,1.33371 1.30118,1.21986 0.95962,-0.11386 1.62648,-0.79698 2.40718,-0.71565 0.94329,0.0983 2.13069,-0.81324 2.13069,-0.81324 0,0 0.81324,2.56983 0.34156,2.99272 -0.47168,0.42288 -2.0331,0.69938 -2.37465,0.76444 -0.34157,0.0651 -3.85476,0.39035 -4.32643,0 -0.47168,-0.39035 -2.537308,-1.31745 -2.488513,-1.75659 0.04879,-0.43915 0.536736,-0.0325 0.585531,-1.2036 0.04879,-1.17106 0.03253,-1.83792 0.03253,-1.83792 0,0 -0.894564,0.76445 -1.284917,0.68312 -0.390356,-0.0813 -2.309598,-1.95177 -2.309598,-1.95177 0,0 1.821653,-3.44813 2.699951,-3.61078 0.878297,-0.16265 1.447564,-0.24397 1.447564,-0.24397" id="path5"/>
<path style="fill:none;stroke:#2B2B2B;stroke-width:0.43" d="m 109.62455,122.54691 c 0,0 0.92709,1.03281 0.91083,1.58581 -0.0163,0.55301 -0.39036,1.33372 -0.79698,1.46384 -0.40661,0.13011 -2.14695,1.36624 -2.14695,1.36624" id="path6"/>
<path style="fill:none;stroke:#2B2B2B;stroke-width:0.43" d="m 107.87864,124.32585 -0.89958,0.59801" id="path7"/>
<path style="fill:none;stroke:#2B2B2B;stroke-width:0.43" d="m 95.772763,124.93725 c 0,0 -3.949343,-4.15449 -5.582476,-4.13149 -1.633133,0.023 -1.334108,0.069 -1.334108,0.069 0,0 0.552045,2.41519 1.449117,2.76022 0.897073,0.34503 2.047166,0.66705 2.047166,0.66705 0,0 1.886151,3.7033 3.266263,3.49629 1.380111,-0.20702 2.070169,-1.1501 2.070169,-1.1501" id="path8"/>
<path style="fill:none;stroke:#2B2B2B;stroke-width:0.43" d="m 98.698422,129.29867 -2.573655,1.16787 c 0,0 0.483039,-0.11501 1.035084,0.82807 0.552043,0.94307 1.702136,3.7263 1.886151,3.7723 0.184015,0.046 1.794148,1.51812 2.714218,1.31111 0.92008,-0.20702 3.31227,1.12709 3.31227,1.12709 0,0 2.18518,-4.76139 2.09317,-5.33643 -0.092,-0.57505 0.11501,-1.73664 0.11501,-1.73664" id="path9"/>
<path style="fill:none;stroke:#2B2B2B;stroke-width:0.43" d="m 101.89878,136.3801 c 0,0 -0.11385,2.06562 0.81324,2.83007 0.9271,0.76444 1.23613,2.78127 1.23613,2.78127 0,0 1.04094,0.63433 1.52888,0.0325 0.48795,-0.60179 0.55301,-0.94335 0.55301,-0.94335 0,0 -1.21986,-3.15537 -1.25239,-3.48066 -0.0325,-0.3253 -0.19518,-0.34157 -0.19518,-0.34157" id="path10"/>
<path style="fill:none;stroke:#2B2B2B;stroke-width:0.43" d="m 96.246776,130.45159 c 0,0 -1.992433,0.0406 -1.748461,1.21172 0.243972,1.17107 0.699384,2.48851 1.106003,2.96019 0.40662,0.47168 1.203595,1.7078 1.203595,1.7078 0,0 0.804763,0.23218 1.203592,0.16265 0.300999,-0.0525 0.641606,-0.1701 0.813239,-0.42288 0.22501,-0.33139 0.121993,-1.19547 0.121993,-1.19547" id="path11"/>
<path style="fill:none;stroke:#2B2B2B;stroke-width:0.43" d="m 98.906068,135.00572 c 0,0 1.528892,1.85419 1.480092,2.09003 -0.0488,0.23584 -2.15508,3.88728 -2.15508,3.88728 l -0.878297,0.35782 -1.471962,-0.0813 c 0,0 -0.211442,-1.04095 -0.178914,-1.1304 0.03253,-0.0895 0.569267,-1.49636 0.601798,-1.50449 0.03253,-0.008 0.772575,-0.82951 0.707517,-1.34998 -0.06506,-0.52047 -0.18902,-0.98238 -0.18902,-0.98238" id="path12"/>
<path style="fill:none;stroke:#2B2B2B;stroke-width:0.43" d="m 103.95012,141.98552 c 0,0 0.25826,0.98181 -0.44112,1.9089 -0.69939,0.92709 -1.4313,1.31745 -1.2036,1.69154 0.22771,0.37409 0.30904,0.91082 0.50421,0.91082 0.19518,0 2.16322,-0.19517 2.16322,-0.19517 0,0 2.29333,-2.14695 2.30959,-2.43972 0.0163,-0.29277 -0.10831,-0.93957 -0.10831,-0.93957 l -1.1548,-1.82166" id="path13"/>
</svg>
