<svg width="121" height="213" viewBox="85 80 50 85" fill="none" xmlns="http://www.w3.org/2000/svg">
<path style="fill:none;stroke:#2B2B2B;stroke-width:0.62" d="m 112.47089,89.94418 c 0,0 -0.6506,-3.106571 0.45541,-4.131252 1.106,-1.024681 1.85418,-1.463831 2.04936,-1.057212 0.19518,0.40662 0.63433,0.992151 0.8783,0.390356 0.24397,-0.601797 1.36624,-2.212009 1.7078,-2.212009 0.34156,0 -0.50421,1.593948 0.0163,1.886714 0.52048,0.292765 0.56927,0.260237 0.86203,0.195176 0.29277,-0.06506 1.00842,0.796975 1.13854,1.447564 0.13012,0.650592 1.13853,0.536739 1.13853,0.536739 0,0 0.48795,2.212009 0.14638,2.699951 -0.34156,0.487942 -2.17947,2.992718 -2.17947,2.992718 0,0 -0.52048,-0.08133 -0.19518,-0.683119 0.32529,-0.601798 1.44756,-1.480096 1.25238,-2.081893 -0.19517,-0.601795 -0.84576,-1.854184 -0.91082,-1.870448 -0.0651,-0.01627 -2.43972,-0.03253 -2.43972,-0.03253 0,0 -0.91082,-0.943358 -1.12227,-1.252389 -0.21144,-0.309031 -1.07347,0.04879 -1.07347,0.04879 0,0 -0.56927,0.520473 -0.99215,1.610212 -0.42289,1.089739 -0.73192,1.512626 -0.73192,1.512626 z" id="path1"/>
<path style="fill:none;stroke:#2B2B2B;stroke-width:0.62" d="m 120.09093,90.871272 c 0,0 0.60993,1.171061 0.28463,1.626475 -0.32529,0.455414 -1.659,0.422884 -1.659,0.422884 0,0 -0.0163,0.504208 -0.56927,0.84577 -0.553,0.341558 -2.32586,0.536736 -2.63489,0.487942 -0.30903,-0.0488 -0.2765,0.845767 -0.2765,0.845767 0,0 -0.16265,0.520475 -0.6018,0.406619 -0.43915,-0.113853 -1.1548,-0.601794 -1.08974,-0.780708 0.0651,-0.178912 0.40662,-0.796973 0.40662,-0.796973 0,0 -1.65901,-0.666856 -1.72407,-1.366242 -0.065,-0.699384 -0.19517,-2.033096 -0.19517,-2.033096 0,0 -0.65059,0 -0.61807,-0.487941 0.0325,-0.487945 -0.16264,-1.138534 0.22771,-1.284918 0.39036,-0.146383 0.553,-0.178914 0.553,-0.178914" id="path2"/>
<path style="fill:none;stroke:#2B2B2B;stroke-width:0.62" d="m 115.21963,95.181435 0.95962,1.089739 c 0,0 -1.88671,2.325862 0.81324,3.106571" id="path3"/>
<path style="fill:none;stroke:#2B2B2B;stroke-width:0.62" d="m 116.87864,99.377745 c 0,0 -0.0976,5.546285 -1.36624,5.773995" id="path4"/>
<path style="fill:none;stroke:#2B2B2B;stroke-width:0.62" d="m 115.57746,105.13547 c 0,0 -2.39093,-1.83792 -3.35055,-1.75659 -0.95962,0.0813 -3.9686,-0.22771 -3.9686,-0.22771 0,0 1.9599,-2.11442 2.39905,-6.912525" id="path5"/>
<path style="fill:none;stroke:#2B2B2B;stroke-width:0.62" d="m 110.63297,96.303705 c 0,0 0.81324,-2.065626 2.84633,-1.593948" id="path6"/>
<path style="fill:none;stroke:#2B2B2B;stroke-width:0.62" d="m 116.15938,96.285779 c 0,0 2.4612,0.667054 3.84132,-0.39103 1.38011,-1.058088 4.23234,-4.025326 4.80738,-5.152417 0.57505,-1.12709 0.73606,0.483039 0.73606,0.483039 0,0 -1.2651,5.19842 -2.99024,6.233504 -1.72514,1.035082 -2.4957,1.871777 -5.57794,1.91778" id="path7"/>
<path style="fill:none;stroke:#2B2B2B;stroke-width:0.62" d="m 125.07261,90.305296 c 0,0 -0.37953,-1.575628 0,-1.863151 0.37953,-0.287522 0.57504,0.598049 0.57504,0.598049 0,0 0.43704,-2.024163 1.1846,-1.805647 0.74756,0.21852 0.54054,2.058668 0.54054,2.058668 0,0 -0.85107,0.914323 -1.90915,1.305356" id="path8"/>
<path style="fill:none;stroke:#2B2B2B;stroke-width:0.62" d="m 110.67565,96.264173 c 0,0 -1.39382,1.953763 -2.47491,2.528808 -1.08109,0.575048 -2.4612,1.058088 -2.4612,1.058088" id="path9"/>
<path style="fill:none;stroke:#2B2B2B;stroke-width:0.62" d="m 109.59457,100.7874 c 0,0 -2.91195,0.90382 -4.7981,0.83481" id="path10"/>
<path style="fill:none;stroke:#2B2B2B;stroke-width:0.62" d="m 105.80855,99.828066 c 0,0 -1.2881,1.012084 -1.03508,1.771144" id="path11"/>
<path style="fill:none;stroke:#2B2B2B;stroke-width:0.62" d="m 115.52053,105.12734 c 0,0 -0.008,3.13097 -2.02497,3.1635 -2.01683,0.0325 -4.06619,-1.10601 -5.26978,-0.553 -1.20359,0.553 -2.24454,2.37465 -2.66742,3.12283 -0.42289,0.74818 -1.91924,2.11442 -1.91924,2.11442 l -1.88672,-1.30118 c 0,0 1.91924,-5.56255 3.35054,-6.24567 1.4313,-0.68312 3.1635,-2.31773 3.1635,-2.31773" id="path12"/>
<path style="fill:none;stroke:#2B2B2B;stroke-width:0.62" d="m 108.13174,103.14033 c 0,0 -3.05925,-1.19609 -3.38128,-0.87407 -0.32202,0.32203 0,1.10409 -0.48304,1.08109 -0.48303,-0.023 -1.38011,0 -1.38011,0 0,0 0,0.85107 0.69006,1.35711 0.69005,0.50604 1.74814,0.57505 1.74814,0.57505" id="path13"/>
<path style="fill:none;stroke:#2B2B2B;stroke-width:0.62" d="m 101.09317,105.69354 0.43703,0.59805 c 0,0 -2.438195,2.4612 -3.542282,1.95516 -1.104091,-0.50604 -0.998609,-2.27974 -0.998609,-2.27974" id="path14"/>
<path style="fill:none;stroke:#2B2B2B;stroke-width:0.62" d="m 97.021839,105.94656 c 0,0 -0.506042,0.96608 -1.49512,0.92008 -0.989082,-0.046 -1.58713,-0.43704 -1.702139,-0.48304 -0.115009,-0.046 0.115009,2.4612 1.173096,2.4612 1.058085,0 2.898233,-0.59805 2.898233,-0.59805" id="path15"/>
<path style="fill:none;stroke:#2B2B2B;stroke-width:0.62" d="m 103.63912,112.95883 -0.95962,1.77286 -0.43915,-1.90298 -0.52048,0.0163 c 0,0 0.65059,1.52889 0.26024,1.31745 -0.39036,-0.21144 -0.66686,-1.91924 -0.66686,-1.91924 l 0.47168,-0.5774" id="path16"/>
<path style="fill:none;stroke:#2B2B2B;stroke-width:0.62" d="m 100.02834,113.7558 c 0,0 -0.796979,-0.42288 -0.862037,0.0325 -0.06506,0.45542 1.187327,1.26865 1.187327,1.26865 l 0.6018,-0.16264 z" id="path17"/>
<path style="fill:none;stroke:#2B2B2B;stroke-width:0.62" d="m 98.694625,90.887536 c -0.03253,-0.162648 2.277065,-3.285485 4.749315,-2.830071 2.47224,0.455414 2.79754,5.172197 2.79754,5.172197 0,0 0.19518,1.854184 -1.78913,0.780708 -1.9843,-1.073472 -5.334841,-0.780708 -5.334841,-0.780708 0,0 -0.780709,-1.333712 -0.422884,-2.342126 z" id="path18"/>
<path style="fill:none;stroke:#2B2B2B;stroke-width:0.62" d="m 105.26559,94.319401 c 0,0 0.58554,1.902979 0.39036,1.968037 -0.19518,0.06506 -0.92709,-2.08189 -3.17163,-2.146948 -2.24454,-0.06506 -3.578253,-0.09759 -3.675842,-0.162648 -0.09759,-0.06506 0.365957,-0.805105 0.365957,-0.805105" id="path19"/>
<path style="fill:none;stroke:#2B2B2B;stroke-width:0.62" d="m 105.68848,96.222379 c 0,0 0.16268,3.431869 -0.0325,3.561985 -0.19518,0.13012 -0.89457,1.528886 -1.10601,1.528886 -0.21144,0 -1.106,0.42289 -1.106,0.42289 0,0 0.26023,-4.79811 -0.63433,-4.066196 -0.89456,0.731914 -0.48794,3.984866 -0.48794,3.984866 0,0 -3.204161,-0.94335 -3.529456,-2.309593 -0.325295,-1.366242 0.243972,-2.765012 -0.325295,-2.716218 -0.569267,0.0488 -1.821656,1.724065 -1.821656,1.724065 0,0 -0.975886,-1.870448 -0.341558,-2.586098 0.634325,-0.715648 1.366239,-1.837918 2.439715,-1.886712" id="path20"/>
<path style="fill:none;stroke:#2B2B2B;stroke-width:0.62" d="m 96.653809,98.470957 c 0,0 -0.920075,1.702133 -1.012081,2.737223 -0.09201,1.03508 -0.299024,3.05924 0.36803,3.56529 0.667054,0.50604 0.437036,1.74814 2.530205,1.49512 2.093167,-0.25302 2.599207,-0.66706 2.599207,-0.66706 0,0 1.91856,-1.03496 1.91856,-1.541" id="path21"/>
<path style="fill:none;stroke:#2B2B2B;stroke-width:0.62" d="m 104.68146,101.4152 0.023,0.87406" id="path22"/>
<path style="fill:none;stroke:#2B2B2B;stroke-width:0.62" d="m 101.5762,106.33759 c 0,0 0.43704,1.40312 1.08109,1.10409 0.64406,-0.29902 1.28811,-1.01208 1.26511,-1.56413 -0.023,-0.55204 -0.29903,-1.12709 -0.29903,-1.12709" id="path23"/>
<path style="fill:none;stroke:#2B2B2B;stroke-width:0.62" d="m 101.89823,107.11965 c 0,0 -2.254179,4.60038 -4.393352,4.8534 -2.139172,0.25302 -3.45028,0.48304 -4.69238,-0.92008 -1.242099,-1.40311 -3.450277,-3.7033 -3.450277,-3.7033 0,0 -0.759061,0.41404 -0.874073,0.57505 -0.115009,0.16101 2.116172,5.35943 4.761387,7.03857 2.645214,1.67913 3.772304,2.4842 5.520446,1.88615 1.748139,-0.59805 2.438199,-1.05808 2.438199,-1.05808 l -0.15288,-0.80762" id="path24"/>
<path style="fill:none;stroke:#2B2B2B;stroke-width:0.62" d="m 100.11559,113.65218 c 0,0 0.77056,-1.35711 1.16159,-1.42611" id="path25"/>
<path style="fill:none;stroke:#2B2B2B;stroke-width:0.62" d="m 102.7033,114.66426 c 0,0 -0.18402,2.50721 2.18518,2.34619 2.36919,-0.16101 4.34735,0.046 4.34735,0.046 0,0 -1.72514,-4.09433 -1.26511,-5.75047 0.46004,-1.65613 -0.50604,-2.5072 2.66822,-2.96724 3.17426,-0.46003 3.19726,7.22259 3.19726,7.22259 0,0 -1.1961,6.2105 -1.31111,6.37151 -0.11501,0.16101 -0.94307,2.23118 -2.13917,2.02416 -1.1961,-0.20701 -4.78439,-2.13917 -4.85339,-2.25418 -0.069,-0.11501 -4.60037,-5.08341 -3.7263,-5.52044 0.87407,-0.43704 5.29042,4.87639 6.34851,4.78438 1.05808,-0.092 1.70214,-0.36803 1.05808,-4.00232" id="path26"/>
<path style="fill:none;stroke:#2B2B2B;stroke-width:0.62" d="m 102.20178,116.186 0.45551,-1.61374" id="path27"/>
<path style="fill:none;stroke:#2B2B2B;stroke-width:0.62" d="m 101.78125,116.1961 -0.58063,-0.42356" id="path28"/>
<path style="fill:none;stroke:#2B2B2B;stroke-width:0.62" d="m 113.47543,108.29067 c 0,0 5.97304,4.97719 6.68869,7.70967 0.71565,2.73248 -1.69153,3.96861 -1.69153,3.96861 0,0 -2.27707,1.17106 -3.12284,0.91082 -0.84577,-0.26024 -2.21201,-1.4313 -2.21201,-1.4313" id="path29"/>
<path style="fill:none;stroke:#2B2B2B;stroke-width:0.62" d="m 120.16412,115.93528 c 0,0 4.35896,2.66742 4.35896,7.1565 0,4.48908 -2.92766,9.6938 -2.92766,9.6938 0,0 -5.07461,5.53003 -4.81437,6.24568 0.26024,0.71564 2.34213,5.3999 2.60236,7.61191 0.26024,2.21201 1.36624,7.02638 0.65059,7.54685 -0.71565,0.52047 -1.75659,1.30118 -2.08189,0.45541 -0.32529,-0.84576 -5.26978,-11.58051 -5.26978,-11.58051 0,0 -2.53731,-4.09873 -0.91083,-7.09144 1.62648,-2.99272 5.26979,-9.49863 4.81437,-10.08416 -0.45541,-0.58553 -1.17106,-1.4313 -1.36624,-0.58553 -0.19518,0.84577 0.3253,2.01683 -1.49636,4.03366 -1.82165,2.01683 -7.02638,7.54686 -6.96132,8.19745 0.0651,0.65059 0.97589,6.96132 0.84577,10.21427 -0.13012,3.25295 0.3253,5.46496 -0.71565,5.85532 -1.04095,0.39035 -2.27707,0.91083 -2.5373,-0.58553 -0.26024,-1.49636 -2.73249,-11.19016 -2.66743,-13.72747 0.0651,-2.5373 0.13012,-5.92038 1.10601,-7.09144 0.97588,-1.17106 3.90354,-8.84803 5.3999,-8.97815" id="path30"/>
<path style="fill:none;stroke:#2B2B2B;stroke-width:0.62" d="m 106.35533,153.81593 c 0,0 0.92709,0.97589 0.48795,1.44757 -0.43915,0.47167 -1.28492,0.68312 -1.4801,0.71565 -0.19518,0.0325 -3.61078,-0.11386 -3.61078,-0.11386 0,0 0.56927,-1.106 3.38307,-1.80539" id="path31"/>
<path style="fill:none;stroke:#2B2B2B;stroke-width:0.62" d="m 119.72467,154.54949 c 0,0 1.65614,1.40311 0.94308,1.86315 -0.71306,0.46004 -3.63429,0.66705 -3.7493,0.66705 -0.11501,0 -2.27719,-0.41403 -2.27719,-0.41403 0,0 3.77231,-1.1961 3.86431,-1.54113" id="path32"/>
<path style="fill:none;stroke:#2B2B2B;stroke-width:0.62" d="m 89.270212,107.33817 c 0,0 -0.299024,-1.44911 -1.138592,-1.65613 -0.839568,-0.20702 -1.150091,0.0115 -1.150091,0.0115 0,0 0.713057,0.046 0.87407,0.40253 0.161012,0.35653 -0.701556,-0.046 -0.701556,-0.046 0,0 0.195513,0.71305 0.793562,1.15009 0.598048,0.43704 0.598048,0.56355 0.598048,0.56355" id="path33"/>
</svg>
