<svg viewBox="0 0 202 192" fill="none" xmlns="http://www.w3.org/2000/svg">
<g>
<g filter="url(#filter1_f_50_322)">
<path d="M2.83432 6.33048C5.45675 8.72534 7.90745 12.9483 10.2773 18.4767C12.6522 24.0169 14.9655 30.9171 17.291 38.7126C21.9386 54.2929 26.659 73.5317 32.0233 92.6881C37.3931 111.864 43.4154 130.987 50.6832 146.419C57.9612 161.873 66.4454 173.529 76.6848 177.902L77.5248 178.255C113.14 192.964 154.258 178.267 178.108 152.473C190.12 139.481 197.72 123.705 198.041 107.502C198.361 91.3122 191.414 74.6436 174.23 59.843L174.488 59.5497L174.746 59.2557C192.084 74.1889 199.153 91.0701 198.827 107.518C198.502 123.953 190.797 139.902 178.688 152.998C154.673 178.971 113.214 193.839 77.2215 178.973L76.3722 178.617C65.8448 174.121 57.2569 162.221 49.9698 146.748C42.6728 131.254 36.6369 112.078 31.2653 92.8962C25.8883 73.6945 21.1842 54.5153 16.5359 38.9328C14.2134 31.1472 11.9102 24.2798 9.55267 18.7802C7.19001 13.2686 4.79184 9.17884 2.29995 6.90319L2.83432 6.33048Z" fill="#CECECE"/>
</g>
<g filter="url(#filter2_f_50_322)">
<path d="M21.0575 18.293C37.9742 51.7652 50.4049 153.381 83.61 168.918C141.835 196.163 231.14 113.65 163.473 57.2142" stroke="#CECECE"/>
</g>
<g filter="url(#filter3_f_50_322)">
<path d="M37.9742 33.4722C50.9568 61.4955 58.3334 145.517 86.7574 159.577C143.409 187.6 213.829 98.0814 149.31 55.2681" stroke="#CECECE"/>
</g>
<g>
<path d="M145.472 86.5736C137.008 105.041 141.88 103.105 126.914 103.106C111.947 103.106 107.517 118.967 107.517 99.1164C104.671 80.3943 120.802 43.0679 132.188 53.5959C139.779 53.5959 122.7 74.6517 145.472 86.5736Z" fill="#E9C1B2"/>
<path d="M146.327 23.5907C146.299 41.1755 133.958 66.9186 125.966 66.9242C117.974 66.9298 103.616 54.0537 104.749 44.1723C106.877 25.6198 110.415 14.8892 124.668 13.9519C134.081 13.3328 146.346 11.4688 146.327 23.5907Z" fill="#E9C1B2"/>
<path d="M135.984 57.4248C133.137 62.2102 135.035 60.296 131.239 62.2102" stroke="#D5B1A3" stroke-width="0.2"/>
<path d="M150.217 30.6265C150.217 30.6265 140.728 46.8968 139.779 50.7251C138.83 54.5534 136.932 20.0987 108.224 27.8506C109.072 11.7047 140.346 7.03662 140.346 7.03662C140.346 7.03662 150.56 19.4969 150.217 30.6265Z" fill="#8C5C4A"/>
<path d="M148.33 20.1304C142.358 40.4725 147.669 21.6339 142.336 20.2188C137.004 18.8036 111.955 19.6038 126.296 12.4738C131.997 6.49232 141.75 3.7558 147.082 5.17095C149.83 7.66289 152.205 16.2187 148.33 20.1304Z" fill="#8C5C4A"/>
<path d="M148.637 24.6018C150.054 29.9297 147.411 30.2977 144.042 36.1668C137.881 46.8967 114.16 24.602 120.094 26.6157C118.904 17.2273 129.32 15.4047 135.073 15.1577C140.827 14.9106 150.952 19.1595 148.637 24.6018Z" fill="#8C5C4A"/>
<path d="M117.955 25.8411C122.383 31.2645 135.984 44.9825 144.523 32.5406" stroke="#825341" stroke-width="0.5"/>
<path d="M139.779 44.9827C140.412 41.1544 141.487 32.5408 144.523 32.5408" stroke="#825341" stroke-width="0.5"/>
<path d="M141.677 28.7951C141.677 27.838 143.575 22.013 144.523 21.0559" stroke="#825341" stroke-width="0.5"/>
<path d="M134.086 19.1416C137.565 20.4177 144.523 22.3957 144.523 20.0987" stroke="#825341" stroke-width="0.5"/>
<path d="M128.393 9.57104C127.444 14.3564 146.939 23.3039 148.319 20.0989" stroke="#CC6C4E" stroke-width="0.5"/>
<path d="M128.393 9.57104C124.597 13.3993 147.56 24.8842 148.319 21.0559" stroke="#8B4E49" stroke-width="0.8"/>
<ellipse cx="148.319" cy="20.0987" rx="0.948868" ry="0.957073" fill="#D9D9D9"/>
<path d="M149.889 21.0351C149.889 22.0923 148.94 21.9924 148.94 22.9493C148.416 22.9493 147.992 22.9494 147.992 21.0351C148.94 19.1211 148.94 19.1211 148.94 18.1641C148.94 18.1641 149.889 20.0782 149.889 21.0351Z" fill="#DBB352"/>
<path d="M83.5705 60.2299C103.087 83.6596 118.837 71.5682 95.1627 87.5728C95.1627 87.5728 73.9184 79.0102 72.7094 55.7764C71.2443 27.6202 70.8964 10.2617 77.9489 20.1022C77.9489 20.1022 77.3178 33.2061 83.5705 60.2299Z" fill="#E9C1B2"/>
<path d="M109.415 79.4374C109.839 84.2873 109.112 87.6038 103.703 87.6038C98.293 87.6038 99.1965 107.649 99.1965 102.255C99.1965 96.8604 79.1724 72.0248 99.1968 69.6055C120.802 66.9953 109.415 71.7806 109.415 79.4374Z" fill="#DE7C5D"/>
<g>
<path d="M160.669 152.405C154.285 148.281 161.656 159.775 136.975 156.432C135.032 148.908 135.085 135.522 140.519 132.841C149.314 133.243 147.607 129.961 153.077 132.642C157.982 135.046 168.588 154.269 160.669 152.405Z" fill="#E9C1B2"/>
</g>
<path d="M149.437 97.7047C159.145 115.596 114.296 140.506 111.542 142.841C100.876 151.886 100.387 117.534 88.7264 106.963C75.256 94.7504 120.802 54.5535 110.364 75.609C128.393 89.965 128.964 59.972 149.437 97.7047Z" fill="#DE7C5D"/>
<path d="M153.669 92.8834C153.669 104.073 146.751 117.904 138.965 117.904C131.179 117.904 124.867 106.702 124.867 92.8834C126.772 90.4084 127.581 67.6076 137.295 73.0796C137.295 73.0796 153.669 77.8711 153.669 92.8834Z" fill="#DE7C5D"/>
<path d="M152.202 103.347C152.202 113.815 146.773 128.617 143.611 128.617C143.611 128.617 140.751 116.973 140.751 106.506C140.751 96.0387 144.626 89.0876 147.788 89.0876C155.907 92.8782 153.742 92.8782 152.202 103.347Z" fill="#E9C1B2"/>
<path d="M139.362 146.352C147.539 154.877 151.203 145.312 151.203 145.312C153.356 140.111 155.558 139.158 154.207 133.298C148.286 89.6077 147.11 113.351 143.358 112.615C142.366 94.2889 133.754 142.661 139.362 146.352Z" fill="#E9C1B2"/>
<path d="M80.3552 13.764C84.1228 12.7238 77.1259 21.566 74.973 21.0458C73.3584 20.5258 69.5908 19.5245 69.5908 16.3646C69.5908 13.2048 70.129 8.56274 74.4348 8.56274C78.7406 8.56274 77.6641 13.764 80.3552 13.764Z" fill="#E9C1B2"/>
</g>
<g>
<path d="M83.0906 173.537C84.6863 174.512 84.5014 176.29 82.6308 176.324C80.6514 176.359 79.1797 173.594 80.5089 176.672C80.7375 177.202 81.1644 177.731 81.8549 178.033C87.6328 180.557 86.4297 171.292 86.517 169.842C86.831 164.628 85.4751 150.085 94.3269 146.544C94.8109 146.351 96.2501 147.392 95.6656 147.841C94.8148 148.495 89.7281 147.479 88.4481 156.24C87.9531 159.628 88.065 176.816 86.0777 178.4C78.7697 184.227 73.3152 167.56 83.0906 173.537ZM94.0363 147.827C92.5996 146.677 95.0409 146.148 96.0978 147.692C98.0606 150.561 97.7107 154.155 95.7841 156.263C92.8852 159.435 79.601 162.384 82.3097 167.265C84.4188 171.066 101.389 169.809 94.1984 164.72C90.5339 162.126 100.61 163.787 96.1798 169.599C91.7499 175.411 83.305 171.249 80.8788 167.444C74.8138 157.93 105.831 157.272 94.0363 147.827ZM95.1177 163.802L94.1984 164.72C94.1984 164.72 88.4111 160.025 90.0709 165.82C90.1623 166.139 89.251 164.267 89.3958 162.535C89.5208 161.04 95.1177 163.802 95.1177 163.802Z" fill="#839F7F"/>
</g>
<g>
<path d="M161.667 50.1302L157.64 67.0968L155.666 67.6357L161.14 47.6886L161.667 50.1302Z" fill="#D9A373"/>
<path d="M156.856 66.2437C156.127 67.7383 155.732 67.6476 154.641 67.7295C152.459 67.8932 151.525 66.005 152.271 65.1909C152.774 64.6416 153.637 63.8427 155 64.1557C156.364 64.4688 157.293 65.3469 156.856 66.2437Z" fill="#D9A373"/>
<path d="M163.367 55.0975L164.145 51.9517L162.616 49.2964L161.762 45.5151L161.223 47.7647L161.219 49.6524L163.217 52.3402L163.367 55.0975Z" fill="#D9A373" stroke="#D9A373" stroke-width="0.4" stroke-linecap="round" stroke-linejoin="round"/>
</g>
<g>
<path d="M127.937 146.374L132.862 177.286L129.908 178.791L125.442 142.74L127.937 146.374Z" fill="#D9A373"/>
<path d="M132.052 175.838C130.765 178.668 131.753 177.988 128.613 179.524C123.913 181.824 120.905 179.107 121.826 177.405C122.448 176.257 123.623 174.497 126.664 174.031C129.705 173.564 132.775 174.248 132.052 175.838Z" fill="#D9A373"/>
</g>
<g>
<path d="M71.4417 106.147V132.904L69.197 133.791L70.0949 102.752L71.4417 106.147Z" fill="#9C5953"/>
<path d="M71.0427 131.574C69.8308 133.791 70.5945 133.346 68.2368 134.234C64.7075 135.564 62.9159 132.888 63.7473 131.574C64.3084 130.687 65.323 129.357 67.4926 129.357C69.6621 129.357 71.7235 130.328 71.0427 131.574Z" fill="#9C5953"/>
</g>
<g>
<path d="M185.414 76.881L195.66 103.315L194.552 105.3L183.919 75.9291L185.414 76.881Z" fill="#A9C9D4"/>
<path d="M195.264 103.131C195.413 102.694 195.037 105.121 193.98 105.9C191.865 107.46 189.683 106.366 189.91 105.152C190.064 104.332 190.421 103.055 192.013 102.454C193.606 101.853 194.888 104.239 195.264 103.131Z" fill="#A9C9D4"/>
<path d="M168.856 89.3612L178.134 113.289L176.685 115.362L166.474 86.7057L168.144 86.0735L168.856 89.3612Z" fill="#A9C9D4"/>
<path d="M177.325 113.023C177.73 112.034 177.161 115.176 176.117 115.988C174.028 117.613 171.782 116.355 171.972 115.043C172.1 114.159 172.419 112.784 174.011 112.183C175.603 111.582 176.849 114.184 177.325 113.023Z" fill="#A9C9D4"/>
<path d="M187.637 82.9486L189.211 86.9345L171.133 98.6387L169.932 94.5092L187.637 82.9486Z" fill="#A9C9D4"/>
<path d="M184.617 74.8166L186.187 78.8063L168.064 90.5517L166.553 86.654L184.617 74.8166Z" fill="#A9C9D4"/>
</g>
<g>
<path d="M67.2774 47.7836L62.8613 68.3823L61.2293 69.1533L66.6563 46.5764L67.2774 47.7836Z" fill="#3F5C3F"/>
<path d="M62.6816 68.1013C62.9761 67.892 61.652 69.2393 60.5759 69.2864C58.4241 69.3808 57.387 67.8045 58.0771 67.1463C58.5429 66.7022 59.3506 66.0588 60.7199 66.3428C62.0892 66.6268 61.9346 68.6322 62.6816 68.1013Z" fill="#3F5C3F"/>
<path d="M50.3429 48.6455L46.341 67.2905L44.4324 67.975L49.8499 46.0177L51.2832 46.3164L50.3429 48.6455Z" fill="#3F5C3F"/>
<path d="M45.9127 66.7886C46.6281 66.3431 44.8557 68.0539 43.7742 68.1266C41.6117 68.272 40.6025 66.5677 41.3089 65.8341C41.7856 65.3391 42.6098 64.6193 43.9789 64.9031C45.348 65.187 45.0735 67.3112 45.9127 66.7886Z" fill="#3F5C3F"/>
<path d="M66.1955 52.4373L65.5363 55.5224L47.8488 55.3503L48.8298 52.3287L66.1955 52.4373Z" fill="#3F5C3F"/>
<path d="M67.6395 46.1534L66.9758 49.2392L49.2389 49.0741L49.9028 46.0684L67.6395 46.1534Z" fill="#3F5C3F"/>
</g>
</g>
<defs>
<filter id="filter0_d_50_322" x="-2.12651" y="0" width="204.4" height="192.2" filterUnits="userSpaceOnUse" color-interpolation-filters="sRGB">
<feFlood flood-opacity="0" result="BackgroundImageFix"/>
<feColorMatrix in="SourceAlpha" type="matrix" values="0 0 0 0 0 0 0 0 0 0 0 0 0 0 0 0 0 0 127 0" result="hardAlpha"/>
<feOffset dy="4"/>
<feGaussianBlur stdDeviation="1.1"/>
<feComposite in2="hardAlpha" operator="out"/>
<feColorMatrix type="matrix" values="0 0 0 0 0 0 0 0 0 0 0 0 0 0 0 0 0 0 0.25 0"/>
<feBlend mode="normal" in2="BackgroundImageFix" result="effect1_dropShadow_50_322"/>
<feBlend mode="normal" in="SourceGraphic" in2="effect1_dropShadow_50_322" result="shape"/>
</filter>
<filter id="filter1_f_50_322" x="-7.31945e-05" y="4.03057" width="201.138" height="183.149" filterUnits="userSpaceOnUse" color-interpolation-filters="sRGB">
<feFlood flood-opacity="0" result="BackgroundImageFix"/>
<feBlend mode="normal" in="SourceGraphic" in2="BackgroundImageFix" result="shape"/>
<feGaussianBlur stdDeviation="1.15" result="effect1_foregroundBlur_50_322"/>
</filter>
<filter id="filter2_f_50_322" x="18.3112" y="15.7674" width="172.224" height="161.32" filterUnits="userSpaceOnUse" color-interpolation-filters="sRGB">
<feFlood flood-opacity="0" result="BackgroundImageFix"/>
<feBlend mode="normal" in="SourceGraphic" in2="BackgroundImageFix" result="shape"/>
<feGaussianBlur stdDeviation="1.15" result="effect1_foregroundBlur_50_322"/>
</filter>
<filter id="filter3_f_50_322" x="35.2205" y="30.962" width="142.615" height="136.749" filterUnits="userSpaceOnUse" color-interpolation-filters="sRGB">
<feFlood flood-opacity="0" result="BackgroundImageFix"/>
<feBlend mode="normal" in="SourceGraphic" in2="BackgroundImageFix" result="shape"/>
<feGaussianBlur stdDeviation="1.15" result="effect1_foregroundBlur_50_322"/>
</filter>
<filter id="filter4_d_50_322" x="65.5908" y="4.80444" width="101.924" height="160.246" filterUnits="userSpaceOnUse" color-interpolation-filters="sRGB">
<feFlood flood-opacity="0" result="BackgroundImageFix"/>
<feColorMatrix in="SourceAlpha" type="matrix" values="0 0 0 0 0 0 0 0 0 0 0 0 0 0 0 0 0 0 127 0" result="hardAlpha"/>
<feOffset dy="4"/>
<feGaussianBlur stdDeviation="2"/>
<feComposite in2="hardAlpha" operator="out"/>
<feColorMatrix type="matrix" values="0 0 0 0 0 0 0 0 0 0 0 0 0 0 0 0 0 0 0.25 0"/>
<feBlend mode="normal" in2="BackgroundImageFix" result="effect1_dropShadow_50_322"/>
<feBlend mode="normal" in="SourceGraphic" in2="effect1_dropShadow_50_322" result="shape"/>
</filter>
<filter id="filter5_d_50_322" x="130.91" y="130.678" width="37.5053" height="35.2719" filterUnits="userSpaceOnUse" color-interpolation-filters="sRGB">
<feFlood flood-opacity="0" result="BackgroundImageFix"/>
<feColorMatrix in="SourceAlpha" type="matrix" values="0 0 0 0 0 0 0 0 0 0 0 0 0 0 0 0 0 0 127 0" result="hardAlpha"/>
<feOffset dy="4"/>
<feGaussianBlur stdDeviation="2.45"/>
<feComposite in2="hardAlpha" operator="out"/>
<feColorMatrix type="matrix" values="0 0 0 0 0 0 0 0 0 0 0 0 0 0 0 0 0 0 0.25 0"/>
<feBlend mode="normal" in2="BackgroundImageFix" result="effect1_dropShadow_50_322"/>
<feBlend mode="normal" in="SourceGraphic" in2="effect1_dropShadow_50_322" result="shape"/>
</filter>
<filter id="filter6_d_50_322" x="73.809" y="146.521" width="27.6011" height="41.136" filterUnits="userSpaceOnUse" color-interpolation-filters="sRGB">
<feFlood flood-opacity="0" result="BackgroundImageFix"/>
<feColorMatrix in="SourceAlpha" type="matrix" values="0 0 0 0 0 0 0 0 0 0 0 0 0 0 0 0 0 0 127 0" result="hardAlpha"/>
<feOffset dy="4"/>
<feGaussianBlur stdDeviation="2"/>
<feComposite in2="hardAlpha" operator="out"/>
<feColorMatrix type="matrix" values="0 0 0 0 0 0 0 0 0 0 0 0 0 0 0 0 0 0 0.25 0"/>
<feBlend mode="normal" in2="BackgroundImageFix" result="effect1_dropShadow_50_322"/>
<feBlend mode="normal" in="SourceGraphic" in2="effect1_dropShadow_50_322" result="shape"/>
</filter>
<filter id="filter7_d_50_322" x="148.018" y="45.3152" width="20.3274" height="30.4243" filterUnits="userSpaceOnUse" color-interpolation-filters="sRGB">
<feFlood flood-opacity="0" result="BackgroundImageFix"/>
<feColorMatrix in="SourceAlpha" type="matrix" values="0 0 0 0 0 0 0 0 0 0 0 0 0 0 0 0 0 0 127 0" result="hardAlpha"/>
<feOffset dy="4"/>
<feGaussianBlur stdDeviation="2"/>
<feComposite in2="hardAlpha" operator="out"/>
<feColorMatrix type="matrix" values="0 0 0 0 0 0 0 0 0 0 0 0 0 0 0 0 0 0 0.25 0"/>
<feBlend mode="normal" in2="BackgroundImageFix" result="effect1_dropShadow_50_322"/>
<feBlend mode="normal" in="SourceGraphic" in2="effect1_dropShadow_50_322" result="shape"/>
</filter>
<filter id="filter8_d_50_322" x="117.66" y="142.74" width="19.2019" height="45.6687" filterUnits="userSpaceOnUse" color-interpolation-filters="sRGB">
<feFlood flood-opacity="0" result="BackgroundImageFix"/>
<feColorMatrix in="SourceAlpha" type="matrix" values="0 0 0 0 0 0 0 0 0 0 0 0 0 0 0 0 0 0 127 0" result="hardAlpha"/>
<feOffset dy="4"/>
<feGaussianBlur stdDeviation="2"/>
<feComposite in2="hardAlpha" operator="out"/>
<feColorMatrix type="matrix" values="0 0 0 0 0 0 0 0 0 0 0 0 0 0 0 0 0 0 0.25 0"/>
<feBlend mode="normal" in2="BackgroundImageFix" result="effect1_dropShadow_50_322"/>
<feBlend mode="normal" in="SourceGraphic" in2="effect1_dropShadow_50_322" result="shape"/>
</filter>
<filter id="filter9_d_50_322" x="59.546" y="102.752" width="15.8958" height="39.8433" filterUnits="userSpaceOnUse" color-interpolation-filters="sRGB">
<feFlood flood-opacity="0" result="BackgroundImageFix"/>
<feColorMatrix in="SourceAlpha" type="matrix" values="0 0 0 0 0 0 0 0 0 0 0 0 0 0 0 0 0 0 127 0" result="hardAlpha"/>
<feOffset dy="4"/>
<feGaussianBlur stdDeviation="2"/>
<feComposite in2="hardAlpha" operator="out"/>
<feColorMatrix type="matrix" values="0 0 0 0 0 0 0 0 0 0 0 0 0 0 0 0 0 0 0.25 0"/>
<feBlend mode="normal" in2="BackgroundImageFix" result="effect1_dropShadow_50_322"/>
<feBlend mode="normal" in="SourceGraphic" in2="effect1_dropShadow_50_322" result="shape"/>
</filter>
<filter id="filter10_d_50_322" x="162.474" y="74.8167" width="37.1864" height="49.9399" filterUnits="userSpaceOnUse" color-interpolation-filters="sRGB">
<feFlood flood-opacity="0" result="BackgroundImageFix"/>
<feColorMatrix in="SourceAlpha" type="matrix" values="0 0 0 0 0 0 0 0 0 0 0 0 0 0 0 0 0 0 127 0" result="hardAlpha"/>
<feOffset dy="4"/>
<feGaussianBlur stdDeviation="2"/>
<feComposite in2="hardAlpha" operator="out"/>
<feColorMatrix type="matrix" values="0 0 0 0 0 0 0 0 0 0 0 0 0 0 0 0 0 0 0.25 0"/>
<feBlend mode="normal" in2="BackgroundImageFix" result="effect1_dropShadow_50_322"/>
<feBlend mode="normal" in="SourceGraphic" in2="effect1_dropShadow_50_322" result="shape"/>
</filter>
<filter id="filter11_d_50_322" x="37.0856" y="46.0178" width="34.554" height="31.2727" filterUnits="userSpaceOnUse" color-interpolation-filters="sRGB">
<feFlood flood-opacity="0" result="BackgroundImageFix"/>
<feColorMatrix in="SourceAlpha" type="matrix" values="0 0 0 0 0 0 0 0 0 0 0 0 0 0 0 0 0 0 127 0" result="hardAlpha"/>
<feOffset dy="4"/>
<feGaussianBlur stdDeviation="2"/>
<feComposite in2="hardAlpha" operator="out"/>
<feColorMatrix type="matrix" values="0 0 0 0 0 0 0 0 0 0 0 0 0 0 0 0 0 0 0.25 0"/>
<feBlend mode="normal" in2="BackgroundImageFix" result="effect1_dropShadow_50_322"/>
<feBlend mode="normal" in="SourceGraphic" in2="effect1_dropShadow_50_322" result="shape"/>
</filter>
</defs>
</svg>
