<svg width="204" height="236" viewBox="0 0 204 236" fill="none" xmlns="http://www.w3.org/2000/svg">
<g filter="url(#filter0_d_93_448)">
<path d="M77.8426 157.67C80.1183 159.144 73.3623 175.158 58.8511 190.3C44.3398 205.442 27.5684 213.98 25.2927 212.505C34.0498 203.636 42.158 195.195 51.6969 183.632C66.2081 168.49 75.5669 156.195 77.8426 157.67Z" fill="#849F80"/>
<path d="M77.8426 157.67C80.1183 159.144 73.3623 175.158 58.8511 190.3C44.3398 205.442 27.5684 213.98 25.2927 212.505C34.0498 203.636 42.158 195.195 51.6969 183.632C66.2081 168.49 75.5669 156.195 77.8426 157.67Z" fill="#849F80"/>
<path d="M82.315 153.188C84.9567 154.167 83.1073 171.049 73.4766 188.626C63.8459 206.204 50.0809 217.822 47.4391 216.843C53.33 206.496 58.7171 196.694 64.5748 183.578C74.2055 166 79.6732 152.21 82.315 153.188Z" fill="#849F80"/>
<path d="M80.3671 159.165C83.215 159.604 97.4838 165.589 81.9376 195.317C77.6178 214.267 67.5716 228.226 64.7237 227.787C67.4821 216.59 69.9072 206.02 71.8394 192.137C76.1592 173.188 77.5192 158.726 80.3671 159.165Z" fill="#849F80"/>
<path d="M100.346 175.395C100.346 190.992 109.344 204.42 107.5 204.42C105.656 204.42 93.6683 190.992 93.6683 175.395C93.6683 159.798 95.1631 147.154 97.007 147.154C98.8508 147.154 100.346 159.798 100.346 175.395Z" fill="#738D70"/>
<path d="M94.8102 182.848C99.8369 198.929 113.725 222.464 111.566 222.464C109.407 222.464 86.9908 198.445 86.9908 182.848C86.9908 167.251 92.6509 154.999 94.8102 154.999C96.9695 154.999 94.8102 167.251 94.8102 182.848Z" fill="#759371"/>
<path d="M91.5454 183.147C88.352 199.954 93.1915 215.403 94.9876 222.463C87.3565 224.817 73.4042 192.897 82.2789 179.112C91.1537 165.328 92.4288 155.841 94.9877 156.955C97.5465 158.069 100.42 169.363 91.5454 183.147Z" fill="#769672"/>
<path d="M34.0497 70.2759C20.0034 71.1176 12.1173 69.1137 4.00197 72.2371C3.82121 70.197 16.4373 60.5646 30.4836 59.7229C44.5299 58.8811 56.0632 59.8525 56.2439 61.8925C56.4247 63.9325 48.096 69.4341 34.0497 70.2759Z" fill="#849F80"/>
<path d="M39.2961 61.6468C25.2498 62.4886 14.5409 56.2172 6.38666 58.9012C6.23618 57.2029 21.0581 49.8922 35.1044 49.0505C49.1507 48.2087 60.6595 48.9031 60.8099 50.6014C60.9604 52.2996 53.3424 60.8051 39.2961 61.6468Z" fill="#849F80"/>
<path d="M35.1693 49.7377C21.3991 50.5629 19.3399 49.9152 11.3497 52.5893C11.1992 50.8911 20.8542 44.4129 34.6244 43.5877C48.3946 42.7625 59.6795 43.4702 59.83 45.1685C59.9804 46.8668 48.9395 48.9125 35.1693 49.7377Z" fill="#849F80"/>
<path d="M62.1895 50.6638C62.1895 57.1625 79.7305 74.9823 70.7745 74.9823C58.8509 89.1029 34.5264 45.3954 34.5264 38.8966C34.5264 32.3978 30.817 29.0908 39.773 29.0908C48.7289 29.0908 60.7683 44.6247 62.1895 50.6638Z" fill="#849F80"/>
<path d="M40.9887 79.6075C28.5717 85.3949 26.4027 85.69 20.0863 90.672C19.2596 89.4724 25.5779 81.0508 37.9949 75.2634C50.4119 69.476 61.1481 65.7569 61.9748 66.9565C62.8015 68.1561 53.4057 73.8201 40.9887 79.6075Z" fill="#849F80"/>
<path d="M49.3973 84.7634C38.5858 90.3537 36.2161 90.1076 32.0863 96.4323C30.3011 94.0973 32.1211 81.898 42.9325 76.3077C53.744 70.7174 68.4198 69.8674 70.205 72.2024C71.9902 74.5374 60.2087 79.1731 49.3973 84.7634Z" fill="#759371"/>
<path d="M59.8049 86.3575C49.4602 93.8403 45.0195 94.5945 39.7731 113.422C38.6222 112.346 38.1095 92.1327 48.8116 84.3914C59.5138 76.6501 69.1226 71.2469 70.2735 72.323C71.4245 73.3991 70.5071 78.6162 59.8049 86.3575Z" fill="#738D70"/>
<path d="M39.6358 38.5629C39.2037 39.0768 35.692 37.6955 31.7923 35.4776C27.8926 33.2597 25.0816 31.0451 25.5138 30.5312C25.946 30.0172 31.7353 32.2354 33.3574 33.6165C37.0722 36.6464 40.068 38.049 39.6358 38.5629Z" fill="#849F80"/>
<path d="M40.6114 34.3752C37.8748 33.996 37.7169 35.4986 34.0495 34.3752C30.3821 33.2517 26.9081 28.6712 27.419 27.5435C27.9298 26.4157 30.8592 29.9288 34.5266 31.0522C38.1939 32.1756 41.1222 33.2474 40.6114 34.3752Z" fill="#849F80"/>
<path d="M35.5078 26.9921C38.0579 29.4303 39.4603 29.2104 43.8164 30.2115C40.8684 32.2968 35.6461 33.4905 33.096 31.0523C30.5459 28.6141 28.0132 20.7631 30.9612 18.6778C31.1836 22.4893 32.9577 24.5539 35.5078 26.9921Z" fill="#849F80"/>
<path d="M36.9262 23.883C38.9914 29.4799 45.9735 33.5607 43.0439 34.2918C40.1142 35.0229 36.065 31.0784 33.9999 25.4815C31.9348 19.8846 32.6356 14.7547 35.5653 14.0236C35.3785 15.9675 34.8611 18.2861 36.9262 23.883Z" fill="#849F80"/>
<path d="M44.9923 33.2575C49.2509 41.7747 70.8802 52.233 68.715 52.233C66.5498 52.233 46.7398 49.0704 39.5922 33.2575C31.5512 15.4679 41.147 2.02686 43.3122 2.02686C44.9923 5.58477 38.2718 19.8164 44.9923 33.2575Z" fill="#759371"/>
<path d="M49.789 21.6388C49.789 36.4089 66.4821 52.2331 66.4821 52.2331C66.4821 52.2331 42.1578 44.7805 42.1578 22.4233C42.1578 7.91039 46.2225 2.97204 49.789 0.45798C53.1276 -1.89543 49.789 4.7725 49.789 21.6388Z" fill="#738D70"/>
<path d="M128.953 96.4899C128.953 110.787 105.583 156.11 87.4681 172.649C55.0356 143.231 56.9342 117.455 56.9342 103.158C56.9342 88.8606 61.9172 69.0989 87.4681 69.0989C113.019 69.0989 128.953 82.1926 128.953 96.4899Z" fill="#E6BB54"/>
<path d="M111.792 63.5964C111.792 72.1126 101.203 69.2951 85.8008 72.3121C60.772 77.2146 74.249 64.602 59.328 57.2272C59.328 48.711 71.9778 40.4663 85.8008 40.4663C99.6238 40.4663 111.792 55.0801 111.792 63.5964Z" fill="#849F80"/>
<path d="M126.269 101.784C123.494 111.311 113.814 72.0059 99.0699 70.6976C92.7394 68.0318 97.9478 60.8092 99.8687 57.7241C101.79 54.639 109.061 55.6556 111.282 60.6697C114.481 67.8944 137.371 94.2634 126.269 101.784Z" fill="#849F80"/>
<path d="M91.8537 122.342C91.8537 134.526 92.2437 161.451 85.1926 161.451C78.1415 161.451 66.3195 136.883 66.3195 122.342C66.3195 110.158 67.5948 100.782 74.6458 100.782C81.6969 100.782 91.8537 110.158 91.8537 122.342Z" fill="#F1C66E"/>
<path d="M68.9813 63.5855C69.1353 64.2229 67.3753 65.0478 65.0501 65.4278C62.7248 65.8079 60.715 65.5993 60.5609 64.9619C60.4069 64.3245 62.1669 63.4997 64.4922 63.1196C69.8209 54.5867 68.8272 62.9481 68.9813 63.5855Z" fill="#AD795B"/>
<path d="M68.8669 59.6852C68.8669 61.8515 65.8774 63.6076 62.1897 63.6076C58.5019 63.6076 53.6046 64.5971 53.6046 62.4309C53.6046 60.2646 57.0414 57.0002 63.5414 54.5002C67.2291 54.5002 68.8669 57.519 68.8669 59.6852Z" fill="#94684E"/>
<path d="M36.1474 38.454C35.7156 39.4148 31.6754 39.0724 27.1232 37.689C22.571 36.3056 16.4479 32.7977 16.8797 31.8368C21.6492 33.4057 24.1345 32.826 28.6867 34.2094C33.2389 35.5927 36.5791 37.4931 36.1474 38.454Z" fill="#849F80"/>
<path d="M41.0463 37.0413C40.9967 37.4726 38.7498 42.2294 31.2022 41.6428C23.6546 41.0562 13.928 41.945 11.1561 38.1128C11.2057 37.6814 23.6546 35.5439 31.2022 36.1305C38.7498 36.7172 41.0958 36.6099 41.0463 37.0413Z" fill="#849F80"/>
<path d="M32.6187 45.5651C23.4489 47.5518 18.7872 43.9961 8.29434 47.5263C8.09303 46.8978 15.5469 42.9121 24.7167 40.9254C33.8866 38.9387 41.4834 37.8376 41.6847 38.466C41.886 39.0944 41.7885 43.5784 32.6187 45.5651Z" fill="#849F80"/>
<path d="M38.8388 75.6125C26.4861 79.0619 24.3426 78.6957 18.0182 83.2084C17.2274 81.2931 23.6225 72.1262 35.9751 68.6768C48.3278 65.2274 58.9827 63.9838 59.7735 65.899C60.5643 67.8142 51.1915 72.1631 38.8388 75.6125Z" fill="#849F80"/>
<path d="M153.272 92.0048C144.549 100.589 143.032 98.5289 128.999 106.426C119.992 106.426 128.999 101.297 128.999 92.0048C113.829 72.4326 102.451 70.7155 136.963 75.1794C145.97 75.1794 153.272 82.7124 153.272 92.0048Z" fill="#849F80"/>
<path d="M132.792 61.4442C136.205 68.9984 137.722 72.7755 123.31 70.0285C121.876 69.7551 127.103 69.1218 127.103 64.1912C127.103 59.2605 122.603 51.4863 124.069 51.4863C127.861 51.4863 130.516 54.2333 132.792 61.4442Z" fill="#738D70"/>
<path d="M158.581 38.4385C162.753 38.4385 165.029 51.1432 155.076 62.877C141.894 77.2397 135.447 80.6734 131.988 73.834C122.931 68.9987 130.137 71.059 130.137 67.2818C150.237 62.4746 158.581 52.8601 158.581 38.4385Z" fill="#738D70"/>
<path d="M178.682 49.0832C179.56 51.0118 175.508 65.6202 159.822 71.4742C144.136 77.3282 130.708 80.5103 129.83 78.5817C128.952 76.6531 129.621 74.5094 145.307 68.6554C160.141 64.5799 177.804 47.1546 178.682 49.0832Z" fill="#759371"/>
<path d="M192.715 60.1376C192.715 61.2716 180.89 78.6181 161.076 79.987C143.78 79.987 129.758 75.9879 129.758 74.8538C129.758 73.7197 143.78 72.8004 161.076 72.8004C178.373 72.8004 192.715 59.0035 192.715 60.1376Z" fill="#769472"/>
<path d="M198.259 76.8788C198.544 78.566 184.371 82.7336 169.959 86.8541C152.932 90.655 145.971 81.1552 145.686 79.468C145.402 77.7809 152.134 78.2698 169.959 80.3299C178.303 80.3299 183.638 78.9018 198.259 76.8788Z" fill="#849F80"/>
<path d="M199.541 89.623C199.541 91.1682 188.355 99.2156 172.773 99.2156C151.199 97.2172 147.203 85.9723 147.203 84.4271C147.203 82.8819 160.388 87.2248 172.773 91.222C186.357 93.6201 186.357 93.62 199.541 89.623Z" fill="#849F80"/>
<path d="M190.769 109.602C189.666 110.418 168.171 111.797 159.494 102.179C152.585 94.5216 147.878 87.6528 148.98 86.8374C150.083 86.022 156.578 91.5688 163.486 99.2264C170.395 106.884 191.872 108.787 190.769 109.602Z" fill="#849F80"/>
<path d="M157.225 98.3867C159.377 106.034 175.737 116.072 183.917 118.94C192.096 121.808 156.364 122.286 152.489 106.512C149.475 94.244 151.686 85.4812 153.35 85.4812C155.014 85.4812 155.072 90.739 157.225 98.3867Z" fill="#849F80"/>
<path d="M155.547 106.083C155.547 118.789 160.127 129.089 157.823 129.089C155.519 129.089 147.204 118.789 147.204 106.083C142.922 94.2638 142.838 91.7568 145.142 91.7568C147.446 91.7568 155.547 93.3775 155.547 106.083Z" fill="#849F80"/>
<path d="M147.363 105.396C144.708 116.041 149.479 128.059 149.479 138.704C146.337 138.704 138.101 115.637 138.101 105.396C138.101 95.1558 126.458 87.2439 129.6 87.2439C132.742 87.2439 146.357 90.2523 147.363 105.396Z" fill="#759371"/>
<path d="M141.136 114.324C138.101 124.969 143.649 140.421 141.136 140.421C138.622 140.421 130.516 127.383 130.516 116.384C130.516 105.385 125.421 87.2439 127.935 87.2439C130.448 87.2439 141.136 103.325 141.136 114.324Z" fill="#759371"/>
<path d="M132.792 116.041C128.241 125.655 130.754 139.733 128.241 139.733C125.727 139.733 120.276 125.333 120.276 116.041C120.276 106.748 128.241 98.1852 126.724 85.137C129.237 85.137 132.792 106.748 132.792 116.041Z" fill="#738D70"/>
<path d="M126.723 69.3423C132.033 69.3422 138.101 75.5231 129.378 81.3604C125.189 81.3604 120.655 80.5916 120.655 79.6434C120.655 78.6952 121.017 77.2399 125.206 77.2399C129.378 73.4626 116.575 69.3424 126.723 69.3423Z" fill="#738D70"/>
<ellipse cx="69.8208" cy="121.266" rx="3.81558" ry="1.56894" fill="#3B3B3B"/>
<ellipse cx="6.36235" cy="2.69279" rx="6.36235" ry="2.69279" transform="matrix(0.668963 0.743296 -0.854203 0.51994 88.7296 122.835)" fill="#3A312C"/>
<path d="M80.518 134.48C81.4175 132.495 80.2003 130.714 78.7798 126.619C80.6664 123.764 81.6165 123.528 85.3233 123.755C89.867 123.626 87.7832 126.612 85.8966 129.467C84.0099 132.322 82.1926 135.229 80.518 134.48Z" fill="#3A312C"/>
<path d="M68.9608 128.869C68.4196 127.304 66.8322 126.656 63.932 124.651C63.4768 122.179 63.8716 121.678 66.0083 120.435C68.4154 118.658 68.8315 121.285 69.2867 123.757C69.7419 126.229 70.2614 128.708 68.9608 128.869Z" fill="#3A312C"/>
<ellipse cx="69.8208" cy="121.266" rx="3.81558" ry="1.56894" fill="#3A312C"/>
<path d="M82.2217 55.371C82.2217 56.4542 81.2677 56.5477 79.837 57.3322C78.52 57.3322 77.4523 56.4542 77.4523 55.371C77.4523 54.2879 78.52 52.2332 79.8371 52.2332C83.6525 52.2332 82.2217 54.2879 82.2217 55.371Z" fill="#3A312C"/>
<path d="M100.735 46.1294C96.8494 47.1322 92.4887 51.5072 83.5272 49.6392C69.0948 46.6308 56.3279 62.1742 61.3235 50.642C63.5439 48.135 73.775 40.1125 82.9721 40.1125C92.1692 40.1125 97.9596 43.6224 100.735 46.1294Z" fill="#738D70"/>
<path d="M127.38 75.7115C127.38 77.0961 122.6 81.2271 117.388 81.2271C118.498 73.7061 111.282 65.1823 110.727 62.174C109.947 57.9484 111.282 58.6639 119.053 73.2043C126.269 73.2043 127.38 74.3269 127.38 75.7115Z" fill="#738D70"/>
<path d="M126.825 93.2611C126.825 100.738 121.274 111.813 120.719 111.311C120.163 110.81 124.049 106.799 119.053 93.7623C119.053 86.2855 114.819 79.2216 118.498 79.2216C141.812 66.1853 128.49 89.2497 126.825 93.2611Z" fill="#738D70"/>
<path d="M107.396 89.2497C107.396 98.6648 99.0698 91.2553 103.511 98.7763C100.445 98.7763 93.5189 94.6536 93.5189 85.2385C93.5189 75.8233 97.6694 71.1992 100.735 71.1992C103.801 71.1992 114.057 76.7146 107.396 89.2497Z" fill="#D8B04F"/>
<path d="M121.274 105.295C122.939 120.337 120.163 132.872 112.392 137.384C108.713 137.384 113.502 104.292 100.735 97.7736C100.735 85.8662 103.718 75.7119 107.396 75.7119C112.392 79.2217 123.494 99.2778 121.274 105.295Z" fill="#D8B04F"/>
<path d="M114.057 137.886C106.841 147.914 94.6288 165.964 88.5228 172.984C78.406 172.984 106.841 147.286 106.841 135.379C106.841 123.471 106.161 99.7793 116.278 99.7793C126.394 99.7793 121.829 130.866 114.057 137.886Z" fill="#D8B04F"/>
</g>
<defs>
<filter id="filter0_d_93_448" x="0" y="0" width="203.541" height="235.797" filterUnits="userSpaceOnUse" color-interpolation-filters="sRGB">
<feFlood flood-opacity="0" result="BackgroundImageFix"/>
<feColorMatrix in="SourceAlpha" type="matrix" values="0 0 0 0 0 0 0 0 0 0 0 0 0 0 0 0 0 0 127 0" result="hardAlpha"/>
<feOffset dy="4"/>
<feGaussianBlur stdDeviation="2"/>
<feComposite in2="hardAlpha" operator="out"/>
<feColorMatrix type="matrix" values="0 0 0 0 0 0 0 0 0 0 0 0 0 0 0 0 0 0 0.25 0"/>
<feBlend mode="normal" in2="BackgroundImageFix" result="effect1_dropShadow_93_448"/>
<feBlend mode="normal" in="SourceGraphic" in2="effect1_dropShadow_93_448" result="shape"/>
</filter>
</defs>
</svg>
