<svg viewBox="0 0 234 171" fill="none" xmlns="http://www.w3.org/2000/svg">
<g filter="url(#filter0_d_2002_489)">
<path d="M163.295 64.4725C159.554 92.0246 148.041 108.025 139.651 106.813C131.261 105.601 117.101 80.79 126.93 55.1783C130.671 27.6262 155.521 29.1545 164.017 18.2592C157.482 39.4089 173.158 37.871 163.295 64.4725Z" fill="#F1E9DD"/>
</g>
<g filter="url(#filter1_d_2002_489)">
<path d="M121.369 55.544C124.477 82.9669 121.532 105.856 114.793 106.669C108.053 107.482 100.07 85.9098 96.9625 58.4869C99.6331 38.4334 102.59 33.1478 95.694 12.3039C108.401 37.9578 124.382 23.5277 121.369 55.544Z" fill="#F1E9DD"/>
</g>
<g filter="url(#filter2_d_2002_489)">
<path d="M112.286 68.2566C115.819 98.1377 111.299 106.103 104.614 107.299C97.9277 108.494 85.3102 107.541 80.3237 77.876C75.3373 48.2108 77.174 4.27635 83.8599 3.08055C96.3049 46.3684 106.474 19.1115 112.286 68.2566Z" fill="#F1E9DD"/>
</g>
<g filter="url(#filter3_d_2002_489)">
<path d="M102.288 87.7063C107.274 117.371 91.163 111.123 84.4771 112.319C77.7913 113.515 64.5151 95.7232 57.251 71.6729C47.0816 47.6223 61.1722 48.3446 48.7549 27.8358C55.4408 26.64 118.684 42.5766 102.288 87.7063Z" fill="#F1E9DD"/>
</g>
<g filter="url(#filter4_d_2002_489)">
<path d="M68.7949 63.6674C81.6049 90.3207 87.0817 114.644 81.0276 117.996C74.9734 121.347 59.681 102.457 46.8709 75.8041C44.9507 53.1401 37.1083 55.7039 20.7697 55.7039C20.7697 44.1677 55.9848 37.0141 68.7949 63.6674Z" fill="#F1E9DD"/>
</g>
<g filter="url(#filter5_d_2002_489)">
<path d="M143.847 54.9713C140.524 80.3535 131.034 99.8422 122.649 98.5005C114.265 97.1588 110.162 75.4948 113.485 50.1127C109.334 34.892 130.155 26.3217 122.649 12.4442C148.559 28.4777 140.882 37.9399 143.847 54.9713Z" fill="#F1E9DD"/>
</g>
<g filter="url(#filter6_d_2002_489)">
<path d="M199.671 64.1099C188.423 93.7238 154.254 118.94 145.982 115.407C137.709 111.873 134.983 83.8853 146.23 54.2714C169.715 28.6381 169.242 31.9188 201.344 28.3668C179.91 38.676 199.733 48.7947 199.671 64.1099Z" fill="#F1E9DD"/>
</g>
<g filter="url(#filter7_d_2002_489)">
<path d="M191.793 93.8584C181.148 122.599 164.317 137.164 156.973 133.851C149.629 130.538 210.893 80.5925 188.051 64.2221C165.209 47.8517 191.793 66.111 204.849 40.4616C221.863 50.7958 221.389 109.333 191.793 93.8584Z" fill="#F1E9DD"/>
</g>
<g filter="url(#filter8_d_2002_489)">
<path d="M204.15 101.684C204.15 133.012 167.636 158.409 122.593 158.409C77.5502 158.409 41.0358 133.012 41.0358 101.684C41.0358 70.355 93.938 48.2954 138.981 48.2954C184.024 48.2954 204.15 70.355 204.15 101.684Z" fill="#E6BB54"/>
</g>
<g filter="url(#filter9_d_2002_489)">
<path d="M59.1678 82.1047C63.8284 111.769 75.3618 157.646 65.1004 142.203C57.9282 140.01 41.1987 116.1 36.5381 86.4351C31.8775 56.7705 13.5801 75.5708 6.39131 71.0847C6.39131 71.0847 47.5649 43.5262 59.1678 82.1047Z" fill="#F1E9DD"/>
</g>
<g filter="url(#filter10_d_2002_489)">
<path d="M79.5164 101.032C94.4024 114.455 74.8142 142.611 68.5652 143.807C38.2231 127.584 47.2786 114.429 38.9617 105.028C13.9022 76.7006 -10.8724 127.888 14.9133 89.9211C34.18 74.7027 68.5651 71.6567 79.5164 101.032Z" fill="#F1E9DD"/>
</g>
<g filter="url(#filter11_d_2002_489)">
<path d="M85.8696 113.414C98.5125 124.287 83.5239 147.594 78.176 148.618C52.3398 135.566 58.2374 124.607 51.1849 116.977C29.9355 93.9854 17.1584 132.584 30.7212 104.793C43.3087 87.6904 82.4719 81.5462 85.8696 113.414Z" fill="#F1E9DD"/>
</g>
<g filter="url(#filter12_d_2002_489)">
<path d="M98.5727 107.541C103.233 137.205 108.749 139.799 102.874 150.221C94.9679 151.734 66.5534 151.824 47.6672 127.774C27.3281 90.897 72.3645 102.121 72.3647 73.2603C85.4399 82.8809 74.0887 92.6435 98.5727 107.541Z" fill="#F1E9DD"/>
</g>
<g filter="url(#filter13_d_2002_489)">
<path d="M116.335 113.162C122.261 155.246 122.261 149.011 110.409 155.246C83.7429 152.129 67.4464 139.659 67.4465 119.397C67.4465 90.1287 91.5467 87.9816 101.917 72.395C101.917 84.6224 116.335 83.8941 116.335 113.162Z" fill="#F1E9DD"/>
</g>
<g filter="url(#filter14_d_2002_489)">
<path d="M155.178 117.875C171.744 162.187 147.266 149.526 133.865 160.921C104.541 153.324 95.7888 143.196 102.959 116.609C106.715 102.682 131.221 98.6809 112.714 81.4745C121.453 81.4745 155.178 94.1015 155.178 117.875Z" fill="#F1E9DD"/>
</g>
<g filter="url(#filter15_d_2002_489)">
<path d="M178.678 114.214C188.473 151.7 170.999 145.802 160.442 161.245C152.448 160.488 143.922 137.959 145.999 111.228C148.076 84.4972 156.578 77.9417 165.014 72.3124C156.735 94.5187 180.755 87.4834 178.678 114.214Z" fill="#F1E9DD"/>
</g>
<g filter="url(#filter16_d_2002_489)">
<path d="M205.963 113.977C197.807 123.637 198.833 134.631 180.589 141.989C171.344 142.767 170.614 122.282 175.448 110.006C180.467 89.3449 179.107 74.4231 186.379 75.8133C183.867 83.756 220.705 96.518 205.963 113.977Z" fill="#F1E9DD"/>
</g>
<path d="M210.493 98.5225C210.493 121.782 196.083 132.497 188.355 138.125C181.61 137.061 188.355 94.8757 188.355 94.8757C188.355 94.8757 191.959 73.1941 219.577 66.0989C254.668 57.0837 210.493 71.148 210.493 98.5225Z" fill="#F1E9DD"/>
<g filter="url(#filter17_d_2002_489)">
<path d="M163.154 156.055C163.853 160.163 157.387 164.95 148.713 166.747C140.038 168.544 132.44 166.67 131.741 162.562C131.043 158.454 140.039 147.207 148.713 145.41C157.387 143.614 162.456 151.947 163.154 156.055Z" fill="#3F5C3F"/>
</g>
<path d="M181.324 145.408C175.956 154.072 171.658 156.849 171.658 156.849C165.495 160.34 159.632 161.306 158.562 159.006C157.493 156.707 165.495 142.486 171.658 138.995C177.821 135.504 180.255 143.109 181.324 145.408Z" fill="#3F5C3F"/>
<path d="M190.041 145.411C182.777 145.411 180.524 148.626 180.524 148.626C176.966 151.824 173.382 151.751 172.965 150.853C172.547 149.955 178.207 142.966 181.964 140.838C185.721 138.71 189.624 144.513 190.041 145.411Z" fill="#3F5C3F"/>
<g filter="url(#filter18_d_2002_489)">
<path d="M136.287 159.84C136.287 164.267 129.133 167.856 120.307 167.856C111.481 167.856 104.326 164.267 104.326 159.84C104.326 155.412 107.122 148.616 115.948 148.616C124.774 148.616 136.287 155.412 136.287 159.84Z" fill="#3F5C3F"/>
</g>
<g filter="url(#filter19_d_2002_489)">
<path d="M111.578 155.098C111.059 159.238 103.551 161.513 94.8087 160.179C87.6954 157.2 84.7897 153.993 76.0729 150.786C76.5917 146.646 87.9444 143.851 96.6872 145.185C105.43 146.519 112.097 150.957 111.578 155.098Z" fill="#3F5C3F"/>
</g>
<defs>
<filter id="filter0_d_2002_489" x="119.587" y="18.2593" width="51.0627" height="96.6182" filterUnits="userSpaceOnUse" color-interpolation-filters="sRGB">
<feFlood flood-opacity="0" result="BackgroundImageFix"/>
<feColorMatrix in="SourceAlpha" type="matrix" values="0 0 0 0 0 0 0 0 0 0 0 0 0 0 0 0 0 0 127 0" result="hardAlpha"/>
<feOffset dy="4"/>
<feGaussianBlur stdDeviation="2"/>
<feComposite in2="hardAlpha" operator="out"/>
<feColorMatrix type="matrix" values="0 0 0 0 0 0 0 0 0 0 0 0 0 0 0 0 0 0 0.25 0"/>
<feBlend mode="normal" in2="BackgroundImageFix" result="effect1_dropShadow_2002_489"/>
<feBlend mode="normal" in="SourceGraphic" in2="effect1_dropShadow_2002_489" result="shape"/>
</filter>
<filter id="filter1_d_2002_489" x="91.694" y="12.3038" width="34.9132" height="102.387" filterUnits="userSpaceOnUse" color-interpolation-filters="sRGB">
<feFlood flood-opacity="0" result="BackgroundImageFix"/>
<feColorMatrix in="SourceAlpha" type="matrix" values="0 0 0 0 0 0 0 0 0 0 0 0 0 0 0 0 0 0 127 0" result="hardAlpha"/>
<feOffset dy="4"/>
<feGaussianBlur stdDeviation="2"/>
<feComposite in2="hardAlpha" operator="out"/>
<feColorMatrix type="matrix" values="0 0 0 0 0 0 0 0 0 0 0 0 0 0 0 0 0 0 0.25 0"/>
<feBlend mode="normal" in2="BackgroundImageFix" result="effect1_dropShadow_2002_489"/>
<feBlend mode="normal" in="SourceGraphic" in2="effect1_dropShadow_2002_489" result="shape"/>
</filter>
<filter id="filter2_d_2002_489" x="73.4857" y="3.08057" width="44.0336" height="112.522" filterUnits="userSpaceOnUse" color-interpolation-filters="sRGB">
<feFlood flood-opacity="0" result="BackgroundImageFix"/>
<feColorMatrix in="SourceAlpha" type="matrix" values="0 0 0 0 0 0 0 0 0 0 0 0 0 0 0 0 0 0 127 0" result="hardAlpha"/>
<feOffset dy="4"/>
<feGaussianBlur stdDeviation="2"/>
<feComposite in2="hardAlpha" operator="out"/>
<feColorMatrix type="matrix" values="0 0 0 0 0 0 0 0 0 0 0 0 0 0 0 0 0 0 0.25 0"/>
<feBlend mode="normal" in2="BackgroundImageFix" result="effect1_dropShadow_2002_489"/>
<feBlend mode="normal" in="SourceGraphic" in2="effect1_dropShadow_2002_489" result="shape"/>
</filter>
<filter id="filter3_d_2002_489" x="48.7549" y="27.7737" width="64.2373" height="92.6021" filterUnits="userSpaceOnUse" color-interpolation-filters="sRGB">
<feFlood flood-opacity="0" result="BackgroundImageFix"/>
<feColorMatrix in="SourceAlpha" type="matrix" values="0 0 0 0 0 0 0 0 0 0 0 0 0 0 0 0 0 0 127 0" result="hardAlpha"/>
<feOffset dx="4" dy="4"/>
<feGaussianBlur stdDeviation="2"/>
<feComposite in2="hardAlpha" operator="out"/>
<feColorMatrix type="matrix" values="0 0 0 0 0 0 0 0 0 0 0 0 0 0 0 0 0 0 0.25 0"/>
<feBlend mode="normal" in2="BackgroundImageFix" result="effect1_dropShadow_2002_489"/>
<feBlend mode="normal" in="SourceGraphic" in2="effect1_dropShadow_2002_489" result="shape"/>
</filter>
<filter id="filter4_d_2002_489" x="20.7697" y="45.363" width="70.7238" height="81.0179" filterUnits="userSpaceOnUse" color-interpolation-filters="sRGB">
<feFlood flood-opacity="0" result="BackgroundImageFix"/>
<feColorMatrix in="SourceAlpha" type="matrix" values="0 0 0 0 0 0 0 0 0 0 0 0 0 0 0 0 0 0 127 0" result="hardAlpha"/>
<feOffset dx="4" dy="4"/>
<feGaussianBlur stdDeviation="2"/>
<feComposite in2="hardAlpha" operator="out"/>
<feColorMatrix type="matrix" values="0 0 0 0 0 0 0 0 0 0 0 0 0 0 0 0 0 0 0.25 0"/>
<feBlend mode="normal" in2="BackgroundImageFix" result="effect1_dropShadow_2002_489"/>
<feBlend mode="normal" in="SourceGraphic" in2="effect1_dropShadow_2002_489" result="shape"/>
</filter>
<filter id="filter5_d_2002_489" x="108.332" y="12.4442" width="39.5156" height="94.1216" filterUnits="userSpaceOnUse" color-interpolation-filters="sRGB">
<feFlood flood-opacity="0" result="BackgroundImageFix"/>
<feColorMatrix in="SourceAlpha" type="matrix" values="0 0 0 0 0 0 0 0 0 0 0 0 0 0 0 0 0 0 127 0" result="hardAlpha"/>
<feOffset dy="4"/>
<feGaussianBlur stdDeviation="2"/>
<feComposite in2="hardAlpha" operator="out"/>
<feColorMatrix type="matrix" values="0 0 0 0 0 0 0 0 0 0 0 0 0 0 0 0 0 0 0.25 0"/>
<feBlend mode="normal" in2="BackgroundImageFix" result="effect1_dropShadow_2002_489"/>
<feBlend mode="normal" in="SourceGraphic" in2="effect1_dropShadow_2002_489" result="shape"/>
</filter>
<filter id="filter6_d_2002_489" x="132.757" y="28.3668" width="70.5876" height="95.3717" filterUnits="userSpaceOnUse" color-interpolation-filters="sRGB">
<feFlood flood-opacity="0" result="BackgroundImageFix"/>
<feColorMatrix in="SourceAlpha" type="matrix" values="0 0 0 0 0 0 0 0 0 0 0 0 0 0 0 0 0 0 127 0" result="hardAlpha"/>
<feOffset dx="-2" dy="4"/>
<feGaussianBlur stdDeviation="2"/>
<feComposite in2="hardAlpha" operator="out"/>
<feColorMatrix type="matrix" values="0 0 0 0 0 0 0 0 0 0 0 0 0 0 0 0 0 0 0.25 0"/>
<feBlend mode="normal" in2="BackgroundImageFix" result="effect1_dropShadow_2002_489"/>
<feBlend mode="normal" in="SourceGraphic" in2="effect1_dropShadow_2002_489" result="shape"/>
</filter>
<filter id="filter7_d_2002_489" x="152.358" y="37.4617" width="67.8146" height="101.852" filterUnits="userSpaceOnUse" color-interpolation-filters="sRGB">
<feFlood flood-opacity="0" result="BackgroundImageFix"/>
<feColorMatrix in="SourceAlpha" type="matrix" values="0 0 0 0 0 0 0 0 0 0 0 0 0 0 0 0 0 0 127 0" result="hardAlpha"/>
<feOffset dy="1"/>
<feGaussianBlur stdDeviation="2"/>
<feComposite in2="hardAlpha" operator="out"/>
<feColorMatrix type="matrix" values="0 0 0 0 0 0 0 0 0 0 0 0 0 0 0 0 0 0 0.25 0"/>
<feBlend mode="normal" in2="BackgroundImageFix" result="effect1_dropShadow_2002_489"/>
<feBlend mode="normal" in="SourceGraphic" in2="effect1_dropShadow_2002_489" result="shape"/>
</filter>
<filter id="filter8_d_2002_489" x="39.0358" y="41.2954" width="171.114" height="118.114" filterUnits="userSpaceOnUse" color-interpolation-filters="sRGB">
<feFlood flood-opacity="0" result="BackgroundImageFix"/>
<feColorMatrix in="SourceAlpha" type="matrix" values="0 0 0 0 0 0 0 0 0 0 0 0 0 0 0 0 0 0 127 0" result="hardAlpha"/>
<feOffset dx="2" dy="-3"/>
<feGaussianBlur stdDeviation="2"/>
<feComposite in2="hardAlpha" operator="out"/>
<feColorMatrix type="matrix" values="0 0 0 0 0.901961 0 0 0 0 0.733333 0 0 0 0 0.329412 0 0 0 0.42 0"/>
<feBlend mode="normal" in2="BackgroundImageFix" result="effect1_dropShadow_2002_489"/>
<feBlend mode="normal" in="SourceGraphic" in2="effect1_dropShadow_2002_489" result="shape"/>
</filter>
<filter id="filter9_d_2002_489" x="2.39131" y="61.5482" width="70.8369" height="91.7487" filterUnits="userSpaceOnUse" color-interpolation-filters="sRGB">
<feFlood flood-opacity="0" result="BackgroundImageFix"/>
<feColorMatrix in="SourceAlpha" type="matrix" values="0 0 0 0 0 0 0 0 0 0 0 0 0 0 0 0 0 0 127 0" result="hardAlpha"/>
<feOffset dy="4"/>
<feGaussianBlur stdDeviation="2"/>
<feComposite in2="hardAlpha" operator="out"/>
<feColorMatrix type="matrix" values="0 0 0 0 0 0 0 0 0 0 0 0 0 0 0 0 0 0 0.25 0"/>
<feBlend mode="normal" in2="BackgroundImageFix" result="effect1_dropShadow_2002_489"/>
<feBlend mode="normal" in="SourceGraphic" in2="effect1_dropShadow_2002_489" result="shape"/>
</filter>
<filter id="filter10_d_2002_489" x="0" y="78.6152" width="88.9778" height="73.1918" filterUnits="userSpaceOnUse" color-interpolation-filters="sRGB">
<feFlood flood-opacity="0" result="BackgroundImageFix"/>
<feColorMatrix in="SourceAlpha" type="matrix" values="0 0 0 0 0 0 0 0 0 0 0 0 0 0 0 0 0 0 127 0" result="hardAlpha"/>
<feOffset dy="4"/>
<feGaussianBlur stdDeviation="2"/>
<feComposite in2="hardAlpha" operator="out"/>
<feColorMatrix type="matrix" values="0 0 0 0 0 0 0 0 0 0 0 0 0 0 0 0 0 0 0.25 0"/>
<feBlend mode="normal" in2="BackgroundImageFix" result="effect1_dropShadow_2002_489"/>
<feBlend mode="normal" in="SourceGraphic" in2="effect1_dropShadow_2002_489" result="shape"/>
</filter>
<filter id="filter11_d_2002_489" x="21.1297" y="90.7279" width="73.6795" height="65.8898" filterUnits="userSpaceOnUse" color-interpolation-filters="sRGB">
<feFlood flood-opacity="0" result="BackgroundImageFix"/>
<feColorMatrix in="SourceAlpha" type="matrix" values="0 0 0 0 0 0 0 0 0 0 0 0 0 0 0 0 0 0 127 0" result="hardAlpha"/>
<feOffset dy="4"/>
<feGaussianBlur stdDeviation="2"/>
<feComposite in2="hardAlpha" operator="out"/>
<feColorMatrix type="matrix" values="0 0 0 0 0 0 0 0 0 0 0 0 0 0 0 0 0 0 0.25 0"/>
<feBlend mode="normal" in2="BackgroundImageFix" result="effect1_dropShadow_2002_489"/>
<feBlend mode="normal" in="SourceGraphic" in2="effect1_dropShadow_2002_489" result="shape"/>
</filter>
<filter id="filter12_d_2002_489" x="42.3923" y="73.2603" width="75.0263" height="89.5161" filterUnits="userSpaceOnUse" color-interpolation-filters="sRGB">
<feFlood flood-opacity="0" result="BackgroundImageFix"/>
<feColorMatrix in="SourceAlpha" type="matrix" values="0 0 0 0 0 0 0 0 0 0 0 0 0 0 0 0 0 0 127 0" result="hardAlpha"/>
<feOffset dx="8" dy="8"/>
<feGaussianBlur stdDeviation="2"/>
<feComposite in2="hardAlpha" operator="out"/>
<feColorMatrix type="matrix" values="0 0 0 0 0 0 0 0 0 0 0 0 0 0 0 0 0 0 0.25 0"/>
<feBlend mode="normal" in2="BackgroundImageFix" result="effect1_dropShadow_2002_489"/>
<feBlend mode="normal" in="SourceGraphic" in2="effect1_dropShadow_2002_489" result="shape"/>
</filter>
<filter id="filter13_d_2002_489" x="63.4465" y="72.395" width="60.7811" height="90.8508" filterUnits="userSpaceOnUse" color-interpolation-filters="sRGB">
<feFlood flood-opacity="0" result="BackgroundImageFix"/>
<feColorMatrix in="SourceAlpha" type="matrix" values="0 0 0 0 0 0 0 0 0 0 0 0 0 0 0 0 0 0 127 0" result="hardAlpha"/>
<feOffset dy="4"/>
<feGaussianBlur stdDeviation="2"/>
<feComposite in2="hardAlpha" operator="out"/>
<feColorMatrix type="matrix" values="0 0 0 0 0 0 0 0 0 0 0 0 0 0 0 0 0 0 0.25 0"/>
<feBlend mode="normal" in2="BackgroundImageFix" result="effect1_dropShadow_2002_489"/>
<feBlend mode="normal" in="SourceGraphic" in2="effect1_dropShadow_2002_489" result="shape"/>
</filter>
<filter id="filter14_d_2002_489" x="96.5882" y="81.4745" width="68.1459" height="87.446" filterUnits="userSpaceOnUse" color-interpolation-filters="sRGB">
<feFlood flood-opacity="0" result="BackgroundImageFix"/>
<feColorMatrix in="SourceAlpha" type="matrix" values="0 0 0 0 0 0 0 0 0 0 0 0 0 0 0 0 0 0 127 0" result="hardAlpha"/>
<feOffset dy="4"/>
<feGaussianBlur stdDeviation="2"/>
<feComposite in2="hardAlpha" operator="out"/>
<feColorMatrix type="matrix" values="0 0 0 0 0 0 0 0 0 0 0 0 0 0 0 0 0 0 0.25 0"/>
<feBlend mode="normal" in2="BackgroundImageFix" result="effect1_dropShadow_2002_489"/>
<feBlend mode="normal" in="SourceGraphic" in2="effect1_dropShadow_2002_489" result="shape"/>
</filter>
<filter id="filter15_d_2002_489" x="141.682" y="72.3124" width="43.8765" height="96.9324" filterUnits="userSpaceOnUse" color-interpolation-filters="sRGB">
<feFlood flood-opacity="0" result="BackgroundImageFix"/>
<feColorMatrix in="SourceAlpha" type="matrix" values="0 0 0 0 0 0 0 0 0 0 0 0 0 0 0 0 0 0 127 0" result="hardAlpha"/>
<feOffset dy="4"/>
<feGaussianBlur stdDeviation="2"/>
<feComposite in2="hardAlpha" operator="out"/>
<feColorMatrix type="matrix" values="0 0 0 0 0 0 0 0 0 0 0 0 0 0 0 0 0 0 0.25 0"/>
<feBlend mode="normal" in2="BackgroundImageFix" result="effect1_dropShadow_2002_489"/>
<feBlend mode="normal" in="SourceGraphic" in2="effect1_dropShadow_2002_489" result="shape"/>
</filter>
<filter id="filter16_d_2002_489" x="169.506" y="69.7236" width="44.9506" height="74.2866" filterUnits="userSpaceOnUse" color-interpolation-filters="sRGB">
<feFlood flood-opacity="0" result="BackgroundImageFix"/>
<feColorMatrix in="SourceAlpha" type="matrix" values="0 0 0 0 0 0 0 0 0 0 0 0 0 0 0 0 0 0 127 0" result="hardAlpha"/>
<feOffset dx="1" dy="-2"/>
<feGaussianBlur stdDeviation="2"/>
<feComposite in2="hardAlpha" operator="out"/>
<feColorMatrix type="matrix" values="0 0 0 0 0 0 0 0 0 0 0 0 0 0 0 0 0 0 0.25 0"/>
<feBlend mode="normal" in2="BackgroundImageFix" result="effect1_dropShadow_2002_489"/>
<feBlend mode="normal" in="SourceGraphic" in2="effect1_dropShadow_2002_489" result="shape"/>
</filter>
<filter id="filter17_d_2002_489" x="126.703" y="140.16" width="39.5031" height="30.2689" filterUnits="userSpaceOnUse" color-interpolation-filters="sRGB">
<feFlood flood-opacity="0" result="BackgroundImageFix"/>
<feColorMatrix in="SourceAlpha" type="matrix" values="0 0 0 0 0 0 0 0 0 0 0 0 0 0 0 0 0 0 127 0" result="hardAlpha"/>
<feOffset dx="-1" dy="-1"/>
<feGaussianBlur stdDeviation="2"/>
<feComposite in2="hardAlpha" operator="out"/>
<feColorMatrix type="matrix" values="0 0 0 0 0 0 0 0 0 0 0 0 0 0 0 0 0 0 0.25 0"/>
<feBlend mode="normal" in2="BackgroundImageFix" result="effect1_dropShadow_2002_489"/>
<feBlend mode="normal" in="SourceGraphic" in2="effect1_dropShadow_2002_489" result="shape"/>
</filter>
<filter id="filter18_d_2002_489" x="98.3258" y="143.616" width="39.9616" height="27.2404" filterUnits="userSpaceOnUse" color-interpolation-filters="sRGB">
<feFlood flood-opacity="0" result="BackgroundImageFix"/>
<feColorMatrix in="SourceAlpha" type="matrix" values="0 0 0 0 0 0 0 0 0 0 0 0 0 0 0 0 0 0 127 0" result="hardAlpha"/>
<feOffset dx="-2" dy="-1"/>
<feGaussianBlur stdDeviation="2"/>
<feComposite in2="hardAlpha" operator="out"/>
<feColorMatrix type="matrix" values="0 0 0 0 0 0 0 0 0 0 0 0 0 0 0 0 0 0 0.25 0"/>
<feBlend mode="normal" in2="BackgroundImageFix" result="effect1_dropShadow_2002_489"/>
<feBlend mode="normal" in="SourceGraphic" in2="effect1_dropShadow_2002_489" result="shape"/>
</filter>
<filter id="filter19_d_2002_489" x="70.0729" y="139.849" width="43.5335" height="23.7112" filterUnits="userSpaceOnUse" color-interpolation-filters="sRGB">
<feFlood flood-opacity="0" result="BackgroundImageFix"/>
<feColorMatrix in="SourceAlpha" type="matrix" values="0 0 0 0 0 0 0 0 0 0 0 0 0 0 0 0 0 0 127 0" result="hardAlpha"/>
<feOffset dx="-2" dy="-1"/>
<feGaussianBlur stdDeviation="2"/>
<feComposite in2="hardAlpha" operator="out"/>
<feColorMatrix type="matrix" values="0 0 0 0 0 0 0 0 0 0 0 0 0 0 0 0 0 0 0.25 0"/>
<feBlend mode="normal" in2="BackgroundImageFix" result="effect1_dropShadow_2002_489"/>
<feBlend mode="normal" in="SourceGraphic" in2="effect1_dropShadow_2002_489" result="shape"/>
</filter>
</defs>
</svg>
