<svg width="105" height="267" viewBox="0 0 105 267" fill="none" xmlns="http://www.w3.org/2000/svg">
<g clip-path="url(#clip0_2011_855)">
<path d="M17.9627 25.815C18.8916 24.686 19.3294 24.0866 19.3294 23.4614C19.3294 22.2266 18.1413 21.628 16.5408 21.628C15.8352 21.628 15.3798 21.6287 14.2288 22.0908C14.2288 22.0908 13.4831 22.6176 11.7378 22.5635C9.97628 22.6173 9.23006 22.0842 9.23006 22.0842C8.07907 21.6224 7.63993 21.6273 6.93532 21.6273C5.33479 21.6273 4.14581 22.2252 4.14581 23.4607C4.14581 24.0859 4.58495 24.6846 5.51343 25.8143C5.51343 25.8143 7.26863 28.0641 8.78956 29.1226C9.88854 29.8864 11.4909 29.8836 11.4909 29.8836H11.9852C11.9852 29.8836 13.6576 29.8871 14.6879 29.1226C16.1618 28.0257 17.9627 25.8146 17.9627 25.815ZM7.82762 31.3882C9.50096 31.3882 10.8573 33.0198 10.8573 35.0324C10.8573 37.0449 9.50096 38.6765 7.82762 38.6765C6.15427 38.6765 4.79796 37.0449 4.79796 35.0324C4.79796 33.0198 6.15427 31.3882 7.82762 31.3882ZM4.92414 27.8589C6.15744 28.2984 6.43874 29.8567 5.55187 31.3397C4.665 32.8226 2.94643 33.6688 1.71313 33.2296C0.479826 32.7905 0.198976 31.2318 1.0854 29.7489C1.97227 28.2659 3.69084 27.4201 4.92414 27.8589ZM14.8715 31.3882C16.5448 31.3882 17.9016 33.0198 17.9016 35.0324C17.9016 37.0449 16.5448 38.6765 14.8715 38.6765C13.1981 38.6765 11.8418 37.0449 11.8418 35.0324C11.8418 33.0198 13.1981 31.3882 14.8715 31.3882ZM20.9864 33.23C19.7527 33.6695 18.0346 32.8233 17.1477 31.34C16.2608 29.8567 16.5421 28.2984 17.7759 27.8589C19.0096 27.4197 20.7277 28.2659 21.6146 29.7489C22.5015 31.2318 22.2202 32.7905 20.9864 33.23Z" fill="#D7B6A4"/>
</g>
<g clip-path="url(#clip1_2011_855)">
<path d="M47.8636 5.07823C48.3463 3.77379 48.5496 3.0947 48.3254 2.49735C47.8827 1.31765 46.5329 1.03444 45.0037 1.42349C44.3297 1.59499 43.8948 1.70636 42.9608 2.42773C42.9608 2.42773 42.4372 3.11231 40.7503 3.48485C39.0866 3.9644 38.1825 3.63649 38.1825 3.63649C36.9172 3.47501 36.4994 3.58642 35.8262 3.7577C34.297 4.14675 33.3754 5.0071 33.8184 6.18747C34.0426 6.78482 34.6769 7.25008 35.969 8.1037C35.969 8.1037 38.4527 9.82665 40.2854 10.4682C41.6093 10.9308 43.1392 10.5387 43.1392 10.5387L43.6115 10.4185C43.6115 10.4185 45.2106 10.0153 45.9208 9.03446C46.9357 7.62823 47.8635 5.0779 47.8636 5.07823ZM40.1787 12.8666C41.7775 12.4599 43.6584 13.6891 44.38 15.6119C45.1017 17.5347 44.3909 19.4233 42.7921 19.8301C41.1934 20.2369 39.3124 19.0076 38.5908 17.0848C37.8692 15.162 38.58 13.2734 40.1787 12.8666ZM36.1391 10.2004C37.4751 10.3206 38.3026 11.7411 37.987 13.3735C37.6714 15.0059 36.3329 16.2321 34.9971 16.1123C33.6613 15.9925 32.834 14.5716 33.1492 12.9393C33.4648 11.3069 34.8035 10.081 36.1391 10.2004ZM46.9086 11.1544C48.5074 10.7477 50.3887 11.9768 51.1104 13.8996C51.832 15.8224 51.1208 17.7111 49.522 18.1179C47.9233 18.5246 46.0423 17.2954 45.3207 15.3726C44.5991 13.4498 45.3099 11.5612 46.9086 11.1544ZM53.4114 11.4277C52.3902 12.1476 50.4453 11.7567 49.0661 10.5551C47.6869 9.35353 47.3969 7.79627 48.418 7.07645C49.4393 6.35697 51.3843 6.74782 52.7634 7.94907C54.1424 9.15033 54.4326 10.7079 53.4114 11.4277Z" fill="#D7B6A4"/>
</g>
<g clip-path="url(#clip2_2011_855)">
<path d="M69.1078 48.0111C70.5457 47.3345 71.2594 46.9552 71.594 46.3939C72.2546 45.2854 71.5083 44.317 70.0714 43.7365C69.4381 43.4806 69.0288 43.3161 67.7483 43.3136C67.7483 43.3136 66.7969 43.516 65.2591 42.8344C63.6489 42.2438 63.2642 41.4946 63.2642 41.4946C62.478 40.6625 62.0811 40.5076 61.4486 40.252C60.0117 39.6715 58.6244 39.7771 57.9634 40.8862C57.6289 41.4475 57.7028 42.1443 57.9319 43.4952C57.9319 43.4952 58.3039 46.1516 59.103 47.6535C59.6809 48.7378 61.1209 49.3164 61.1209 49.3164L61.5647 49.4957C61.5647 49.4957 63.0642 50.1054 64.3982 49.7928C66.3082 49.3427 69.108 48.0108 69.1078 48.0111ZM57.0272 49.3385C58.5295 49.9454 58.8741 51.9021 57.7974 53.7089C56.7206 55.5156 54.63 56.4885 53.1278 55.8815C51.6255 55.2746 51.2809 53.3179 52.3576 51.5112C53.4344 49.7044 55.525 48.7316 57.0272 49.3385ZM56.3089 45.117C57.181 45.9589 56.5998 47.4599 55.0102 48.4695C53.4206 49.4792 51.425 49.6155 50.5528 48.7739C49.6805 47.9324 50.2623 46.4312 51.8515 45.4214C53.4411 44.4118 55.4365 44.2757 56.3089 45.117ZM63.3508 51.8933C64.8531 52.5002 65.1981 54.4571 64.1214 56.2638C63.0446 58.0706 60.9536 59.0433 59.4514 58.4363C57.9491 57.8294 57.6045 55.8727 58.6813 54.066C59.758 52.2592 61.8486 51.2864 63.3508 51.8933ZM67.8551 55.7646C66.5123 55.7117 65.4226 54.3289 65.4201 52.6756C65.4175 51.0223 66.5038 49.7254 67.8465 49.7783C69.1891 49.8315 70.2788 51.2143 70.2815 52.8673C70.2843 54.5203 69.1978 55.8176 67.8551 55.7646Z" fill="#D7B6A4"/>
</g>
<g clip-path="url(#clip3_2011_855)">
<path d="M17.7793 69.9688C17.8783 68.6076 17.8831 67.9082 17.4955 67.3705C16.7301 66.3087 15.3373 66.2932 13.961 66.9658C13.3543 67.2623 12.9631 67.4543 12.2598 68.3355C12.2598 68.3355 11.9451 69.1019 10.4108 69.7888C8.9293 70.5753 7.95714 70.4305 7.95714 70.4305C6.68106 70.5171 6.30646 70.7058 5.70055 71.0019C4.32421 71.6746 3.67249 72.6885 4.43837 73.7508C4.82596 74.2885 5.57474 74.6188 7.07347 75.2C7.07347 75.2 9.97759 76.3971 11.9416 76.6681C13.3602 76.8631 14.7364 76.1873 14.7364 76.1873L15.1614 75.9796C15.1614 75.9796 16.6018 75.2797 17.0138 74.1893C17.6012 72.6267 17.7791 69.9685 17.7793 69.9688ZM12.5189 79.0206C13.9579 78.3174 16.1357 79.1505 17.3834 80.8811C18.631 82.6117 18.4761 84.5848 17.0372 85.288C15.5982 85.9913 13.4204 85.1582 12.1728 83.4276C10.9252 81.6969 11.08 79.7239 12.5189 79.0206ZM7.83425 77.2059C9.16726 77.0655 10.3752 78.2874 10.5319 79.9353C10.6886 81.5832 9.7353 83.0331 8.40251 83.1738C7.06972 83.3144 5.86193 82.0921 5.70487 80.4444C5.54819 78.7964 6.50167 77.3468 7.83425 77.2059ZM18.5762 76.0604C20.0151 75.3572 22.1933 76.1901 23.441 77.9207C24.6886 79.6513 24.5334 81.6246 23.0944 82.3278C21.6555 83.0311 19.4776 82.198 18.23 80.4674C16.9824 78.7367 17.1372 76.7637 18.5762 76.0604ZM24.9764 75.0744C24.1879 75.9709 22.1858 75.9652 20.5037 75.0624C18.8215 74.1596 18.0973 72.7013 18.8858 71.8049C19.6745 70.9088 21.6765 70.9144 23.3585 71.8169C25.0404 72.7194 25.7648 74.178 24.9764 75.0744Z" fill="#D7B6A4"/>
</g>
<g clip-path="url(#clip4_2011_855)">
<path d="M92.6316 171.441C92.7306 170.08 92.7354 169.381 92.3478 168.843C91.5824 167.781 90.1896 167.766 88.8133 168.438C88.2066 168.735 87.8154 168.927 87.1121 169.808C87.1121 169.808 86.7974 170.574 85.2631 171.261C83.7816 172.048 82.8094 171.903 82.8094 171.903C81.5334 171.989 81.1588 172.178 80.5528 172.474C79.1765 173.147 78.5248 174.161 79.2907 175.223C79.6783 175.761 80.427 176.091 81.9258 176.672C81.9258 176.672 84.8299 177.87 86.7939 178.141C88.2125 178.336 89.5886 177.66 89.5886 177.66L90.0137 177.452C90.0137 177.452 91.4541 176.752 91.866 175.662C92.4535 174.099 92.6314 171.441 92.6316 171.441ZM87.3712 180.493C88.8102 179.79 90.988 180.623 92.2356 182.354C93.4833 184.084 93.3284 186.057 91.8895 186.76C90.4505 187.464 88.2727 186.631 87.0251 184.9C85.7775 183.169 85.9323 181.196 87.3712 180.493ZM82.6865 178.678C84.0196 178.538 85.2275 179.76 85.3842 181.408C85.5409 183.056 84.5876 184.506 83.2548 184.646C81.922 184.787 80.7142 183.565 80.5572 181.917C80.4005 180.269 81.354 178.819 82.6865 178.678ZM93.4285 177.533C94.8674 176.83 97.0456 177.663 98.2932 179.393C99.5409 181.124 99.3857 183.097 97.9467 183.8C96.5077 184.503 94.3299 183.67 93.0823 181.94C91.8347 180.209 91.9895 178.236 93.4285 177.533ZM99.8286 176.547C99.0402 177.443 97.0381 177.438 95.356 176.535C93.6738 175.632 92.9496 174.174 93.7381 173.277C94.5268 172.381 96.5288 172.387 98.2108 173.289C99.8927 174.192 100.617 175.65 99.8286 176.547Z" fill="#D7B6A4"/>
</g>
<g clip-path="url(#clip5_2011_855)">
<path d="M57.1193 185.371C57.8664 184.154 58.2081 183.514 58.1116 182.894C57.921 181.669 56.6501 181.2 55.0626 181.367C54.3628 181.441 53.9111 181.489 52.8408 182.068C52.8408 182.068 52.1824 182.669 50.443 182.798C48.704 183.035 47.8816 182.585 47.8816 182.585C46.6686 182.247 46.2338 182.298 45.5349 182.372C43.9474 182.539 42.8603 183.257 43.0511 184.482C43.1476 185.102 43.6756 185.65 44.7709 186.674C44.7709 186.674 46.8592 188.721 48.5312 189.612C49.7392 190.255 51.3281 190.084 51.3281 190.084L51.8184 190.033C51.8184 190.033 53.4778 189.861 54.3817 188.995C55.6743 187.753 57.1192 185.371 57.1193 185.371ZM47.9268 191.96C49.5866 191.785 51.1838 193.261 51.4945 195.258C51.8051 197.254 50.7117 199.014 49.0519 199.189C47.3922 199.364 45.795 197.888 45.4843 195.892C45.1736 193.896 46.267 192.135 47.9268 191.96ZM44.502 188.763C45.7932 189.07 46.3128 190.586 45.662 192.15C45.0113 193.714 43.4373 194.733 42.1462 194.426C40.8551 194.12 40.3359 192.603 40.9862 191.04C41.637 189.476 43.211 188.457 44.502 188.763ZM54.9136 191.223C56.5733 191.048 58.171 192.524 58.4817 194.52C58.7923 196.517 57.6985 198.277 56.0387 198.452C54.3789 198.627 52.7817 197.151 52.471 195.155C52.1604 193.158 53.2538 191.398 54.9136 191.223ZM61.2632 192.41C60.1073 192.975 58.2725 192.315 57.1639 190.937C56.0552 189.558 56.0936 187.983 57.2495 187.418C58.4055 186.854 60.2403 187.513 61.3489 188.891C62.4575 190.269 62.4191 191.845 61.2632 192.41Z" fill="#D7B6A4"/>
</g>
<g clip-path="url(#clip6_2011_855)">
<path d="M40.1576 222.96C41.5944 222.282 42.3075 221.901 42.6411 221.34C43.2998 220.23 42.5519 219.263 41.1141 218.684C40.4803 218.429 40.0708 218.265 38.7902 218.264C38.7902 218.264 37.8392 218.467 36.3002 217.787C34.6891 217.199 34.3031 216.45 34.3031 216.45C33.5155 215.619 33.1184 215.464 32.4854 215.209C31.0476 214.63 29.6604 214.738 29.0013 215.847C28.6677 216.409 28.7428 217.106 28.9742 218.456C28.9742 218.456 29.3506 221.112 30.1522 222.613C30.732 223.697 32.1729 224.274 32.1729 224.274L32.617 224.453C32.617 224.453 34.1176 225.061 35.451 224.747C37.3602 224.294 40.1578 222.959 40.1576 222.96ZM28.0793 224.301C29.5825 224.906 29.9304 226.862 28.8567 228.67C27.783 230.478 25.694 231.453 24.1908 230.848C22.6875 230.243 22.3396 228.287 23.4133 226.479C24.4871 224.671 26.576 223.696 28.0793 224.301ZM27.3539 220.08C28.2274 220.921 27.6487 222.423 26.0608 223.434C24.4728 224.446 22.4775 224.584 21.6039 223.744C20.7302 222.903 21.3095 221.401 22.897 220.39C24.4849 219.378 26.4801 219.24 27.3539 220.08ZM34.4072 226.848C35.9104 227.454 36.2587 229.41 35.185 231.218C34.1113 233.026 32.0219 234.001 30.5186 233.396C29.0154 232.791 28.6675 230.834 29.7412 229.026C30.8149 227.218 32.9039 226.243 34.4072 226.848ZM38.9179 230.715C37.575 230.663 36.483 229.282 36.4777 227.628C36.4723 225.975 37.5565 224.677 38.8993 224.728C40.2419 224.78 41.3339 226.162 41.3395 227.815C41.345 229.468 40.2607 230.766 38.9179 230.715Z" fill="#D7B6A4"/>
</g>
<g clip-path="url(#clip7_2011_855)">
<path d="M77.9596 215.621C78.9104 214.348 79.3619 213.678 79.393 213.025C79.4545 211.737 78.3402 211.233 76.7988 211.396C76.1193 211.468 75.6807 211.515 74.5493 212.115C74.5493 212.115 73.8048 212.741 72.1268 212.862C70.4277 213.098 69.7356 212.618 69.7356 212.618C68.6501 212.253 68.227 212.303 67.5484 212.375C66.007 212.538 64.8322 213.283 64.7707 214.573C64.7395 215.225 65.1326 215.805 65.9705 216.89C65.9705 216.89 67.5488 219.059 68.9609 220.008C69.9812 220.693 71.5244 220.527 71.5244 220.527L72.0005 220.477C72.0005 220.477 73.6109 220.31 74.6412 219.407C76.1152 218.112 77.9596 215.621 77.9596 215.621ZM67.9216 222.471C69.5331 222.3 70.7581 223.865 70.6579 225.965C70.5576 228.066 69.1702 229.907 67.5587 230.077C65.9472 230.248 64.7223 228.683 64.8225 226.583C64.9227 224.483 66.3101 222.642 67.9216 222.471ZM65.3012 219.084C66.4671 219.417 66.6604 221.014 65.7324 222.652C64.8045 224.29 63.1073 225.349 61.9414 225.016C60.7756 224.684 60.5827 223.086 61.5102 221.448C62.4382 219.809 64.1354 218.751 65.3012 219.084ZM74.7052 221.753C76.3167 221.582 77.542 223.147 77.4418 225.247C77.3416 227.347 75.9537 229.188 74.3422 229.359C72.7307 229.53 71.5058 227.965 71.606 225.865C71.7062 223.764 73.0937 221.923 74.7052 221.753ZM80.5024 223.051C79.2924 223.636 77.6799 222.928 76.8997 221.47C76.1194 220.013 76.4679 218.358 77.678 217.773C78.888 217.189 80.5005 217.897 81.2807 219.354C82.061 220.811 81.7124 222.467 80.5024 223.051Z" fill="#D7B6A4"/>
</g>
<path d="M18.9426 14.2393C27.6857 20.4907 44.4815 51.1793 44.4815 67.0919C44.4815 86.4144 21.7771 116.821 28.606 130.174C34.1279 140.972 74.1619 154.611 74.1619 180.754C74.1619 190.432 76.2326 198.371 53.4546 222.24C35.2323 241.335 45.862 259.37 53.4546 266" stroke="#C08969" stroke-opacity="0.34" stroke-width="0.7"/>
<defs>
<clipPath id="clip0_2011_855">
<rect width="22.0877" height="17.0493" fill="white" transform="matrix(1 0 0 -1 0.306152 38.6765)"/>
</clipPath>
<clipPath id="clip1_2011_855">
<rect width="21.7754" height="17.3987" fill="white" transform="matrix(0.969127 -0.246564 -0.351371 -0.936236 35.6061 21.6584)"/>
</clipPath>
<clipPath id="clip2_2011_855">
<rect width="21.3863" height="17.8179" fill="white" transform="matrix(0.927189 0.374594 0.511948 -0.859016 46.3754 53.1536)"/>
</clipPath>
<clipPath id="clip3_2011_855">
<rect width="21.1406" height="18.0737" fill="white" transform="matrix(0.898449 -0.439078 -0.584791 -0.811184 10.5693 88.449)"/>
</clipPath>
<clipPath id="clip4_2011_855">
<rect width="21.1406" height="18.0737" fill="white" transform="matrix(0.898449 -0.439078 -0.584791 -0.811184 85.4216 189.921)"/>
</clipPath>
<clipPath id="clip5_2011_855">
<rect width="22.0301" height="17.1146" fill="white" transform="matrix(0.99448 -0.104924 -0.153785 -0.988104 41.5916 199.976)"/>
</clipPath>
<clipPath id="clip6_2011_855">
<rect width="21.3903" height="17.8137" fill="white" transform="matrix(0.927641 0.373473 0.510632 -0.859799 17.4338 228.128)"/>
</clipPath>
<clipPath id="clip7_2011_855">
<rect width="21.3903" height="17.8137" fill="white" transform="matrix(0.994441 -0.105296 0.0476602 -0.998864 60.3152 230.844)"/>
</clipPath>
</defs>
</svg>
