<svg width="135" height="157" viewBox="0 0 135 157" fill="none" xmlns="http://www.w3.org/2000/svg">
<g filter="url(#filter0_d_2011_823)">
<path d="M38.5762 108.618C37.2983 114.3 40.5865 109.779 35.5788 108.618C30.5711 107.457 21.601 105.434 20.8071 98.9836C19.869 91.3605 23.0586 79.6691 28.0663 80.8297C21.4288 110.34 39.8541 102.936 38.5762 108.618Z" fill="#D7B6A4"/>
</g>
<ellipse cx="8.45422" cy="2.77186" rx="8.45422" ry="2.77186" transform="matrix(0.935427 -0.353521 0.344317 0.938853 64.5747 87.9958)" fill="#D7B6A4"/>
<path d="M82.0817 89.794C82.0817 93.4746 82.7432 96.4584 81.5346 96.4584C80.326 96.4584 77.705 93.4746 77.705 89.794C77.705 86.1133 79.2318 84.2402 80.4404 84.2402C81.649 84.2402 82.0817 86.1133 82.0817 89.794Z" fill="#D7B6A4"/>
<g filter="url(#filter1_d_2011_823)">
<path d="M76.0641 100.9C73.4102 113.024 70.0457 121.45 43.7856 127.003C38.649 127.003 28.4667 110.342 35.5789 106.454C42.1437 105.343 50.3507 81.4624 59.1042 78.6854C67.8577 71.4657 79.3463 85.9064 76.0641 100.9Z" fill="#E4CABB"/>
</g>
<g filter="url(#filter2_d_2011_823)">
<path d="M40.6687 113.076C40.6687 116.526 37.9744 121.198 34.6507 121.198C31.327 121.198 19.8791 122.968 17.1437 113.076C19.3321 111.514 26.4443 115.679 34.1036 107.869C37.4273 107.869 40.6687 109.625 40.6687 113.076Z" fill="#D7B6A4"/>
<path d="M23.0202 115.592C23.3665 117.71 18.3323 117.113 13.8611 117.866C9.39 118.619 8.93745 125.086 4.01356 118.976C3.66728 116.858 10.0315 114.534 14.2976 113.12C20.4263 110.646 22.674 113.474 23.0202 115.592Z" fill="#D7B6A4"/>
</g>
<g filter="url(#filter3_d_2011_823)">
<path d="M48.1618 129.179C48.1618 133.473 46.5206 138.62 43.238 138.62C40.5025 134.732 37.2199 129.03 37.2199 124.736C37.2199 120.442 40.5186 121.403 43.238 121.403C45.9574 121.403 48.1618 124.884 48.1618 129.179Z" fill="#D7B6A4"/>
<path d="M44.619 139.233C43.6093 142.141 42.8057 145.521 41.5849 145.084C37.0569 142.388 39.8501 140.396 40.8598 137.488C41.8695 134.58 42.3907 132.867 43.6116 133.304C48.6694 132.161 45.6287 136.325 44.619 139.233Z" fill="#D7B6A4"/>
<path d="M42.6909 144.081C40.9045 147.435 49.4005 150.304 44.5212 151.992C40.4694 153.393 42.0889 149.307 39.5461 146.686C38.3861 143.525 38.0069 140.723 39.4084 140.194C40.8099 139.664 41.531 140.919 42.6909 144.081Z" fill="#D7B6A4"/>
</g>
<ellipse cx="8.45422" cy="2.77186" rx="8.45422" ry="2.77186" transform="matrix(0.935427 -0.353521 0.344317 0.938853 58.0096 96.8757)" fill="#D7B6A4"/>
<path d="M75.5166 98.6736C75.5166 102.354 74.5369 105.338 73.3283 105.338C72.1197 105.338 71.1399 102.354 71.1399 98.6736C71.1399 94.9929 72.6668 93.1199 73.8754 93.1199C75.084 93.1199 75.5166 94.9929 75.5166 98.6736Z" fill="#D7B6A4"/>
<g filter="url(#filter4_d_2011_823)">
<path d="M50.625 54.3909C50.5182 55.4148 46.4271 55.7901 41.4874 55.2292C36.5477 54.6682 32.7593 57.1105 32.8662 56.0866C32.9731 55.0626 39.2271 49.6383 44.1668 50.1993C49.1065 50.7603 50.7319 53.3669 50.625 54.3909Z" fill="#D7B6A4"/>
</g>
<g filter="url(#filter5_d_2011_823)">
<ellipse cx="55.9033" cy="68.5704" rx="14.7502" ry="17.2508" fill="#E4CABB"/>
<path d="M67.0778 76.508C65.29 82.5691 62.1611 86.299 49.1987 86.7652C42.4942 85.8328 32.6608 81.6366 34.0016 76.508C32.6606 70.9131 38.9183 69.0482 49.1987 66.2507C59.0731 66.2507 67.0778 70.8431 67.0778 76.508Z" fill="#E4CABB"/>
<g filter="url(#filter6_d_2011_823)">
<path d="M78.2523 57.3924C78.2523 58.6798 71.3212 54.7047 66.6309 54.7047C61.9406 54.7047 58.5853 55.0597 58.5853 53.7722C58.5853 52.4847 59.7057 49.4663 64.396 49.4663C69.0863 49.4663 77.8053 54.7047 78.2523 57.3924Z" fill="#D7B6A4"/>
</g>
</g>
<g clip-path="url(#clip0_2011_823)">
<g filter="url(#filter7_d_2011_823)">
<path d="M48.1239 28.494L53.5723 29.1843L51.6658 32.3474C51.5193 32.0124 51.2786 31.7243 50.9525 31.5277C50.0441 30.9802 48.817 31.3506 48.2116 32.3549C47.6063 33.3593 47.8519 34.6173 48.7603 35.1648C49.6687 35.7123 50.8959 35.342 51.5012 34.3376L54.7233 28.9918C55.1087 28.3523 55.432 27.816 55.6488 27.3642C55.6795 27.3003 55.7088 27.2362 55.7351 27.1756C55.8718 26.8601 55.9667 26.546 55.9701 26.238C55.9717 26.084 55.9505 25.9315 55.9003 25.7811C55.8908 25.7529 55.8803 25.7248 55.8688 25.6968L55.8665 25.6912C55.6674 25.2121 55.2537 24.9884 54.7688 24.8553C54.2998 24.7267 53.6642 24.6571 52.8848 24.5718L51.5294 24.4235C51.1641 24.3835 50.8546 24.3496 50.5947 24.3511C50.3182 24.3527 50.0564 24.3933 49.7951 24.5315C49.5338 24.6698 49.3387 24.8708 49.1608 25.1096C48.9936 25.334 48.8188 25.6241 48.6124 25.9664L45.9304 30.4162C45.7838 30.0812 45.5432 29.793 45.2171 29.5965C44.3087 29.049 43.0815 29.4193 42.4762 30.4237C41.8709 31.428 42.1165 32.6861 43.0249 33.2336C43.9333 33.7811 45.1604 33.4107 45.7658 32.4064L48.1239 28.494Z" fill="#E6C392"/>
</g>
</g>
<g filter="url(#filter8_d_2011_823)">
<path d="M118.09 46.2013C117.055 45.3616 115.503 45.5106 114.341 46.5612C114.079 46.798 113.86 47.0924 113.648 47.4117C113.488 47.6527 113.307 47.946 113.097 48.2931L112.804 48.78C112.801 48.7852 112.797 48.7903 112.794 48.7954L107.589 57.4312C107.346 56.1206 106.641 54.983 105.52 54.307C103.179 52.8964 99.9097 54.0295 98.2169 56.8381C96.5241 59.6466 97.0491 63.0668 99.3896 64.4775C101.73 65.8881 104.999 64.755 106.692 61.9464L112.364 52.5367C112.421 52.6528 112.486 52.7746 112.557 52.908L114.099 55.8131C114.337 56.2619 114.531 56.6271 114.701 56.9073C114.873 57.1898 115.055 57.4457 115.289 57.6349C116.324 58.4745 117.876 58.3255 119.038 57.2749C119.3 57.0382 119.519 56.7437 119.731 56.4245C119.941 56.1077 120.187 55.7003 120.489 55.1997L120.542 55.1111C120.767 54.7388 120.942 54.4476 121.065 54.1451C121.38 53.3664 121.435 52.5336 121.221 51.8057C121.138 51.5228 120.999 51.2619 120.822 50.9282L119.28 48.0231C119.042 47.5743 118.848 47.209 118.678 46.9289C118.506 46.6464 118.323 46.3906 118.09 46.2013Z" fill="#AAB7A4"/>
</g>
<g filter="url(#filter9_d_2011_823)">
<path d="M78.9598 28.9698L86.3295 29.7158L83.6128 34.2232C83.4274 33.7599 83.1122 33.3661 82.6775 33.104C81.4663 32.374 79.7851 32.9425 78.9225 34.3737C78.0599 35.8049 78.3424 37.5569 79.5536 38.2869C80.7648 39.0169 82.446 38.4485 83.3086 37.0173L87.9001 29.3995C88.4493 28.4883 88.9099 27.724 89.2227 27.0824C89.2669 26.9917 89.3094 26.9007 89.3475 26.8148C89.5459 26.3673 89.6875 25.9236 89.7045 25.4921C89.713 25.2763 89.6904 25.0636 89.6282 24.855C89.6166 24.8159 89.6035 24.7769 89.589 24.7381L89.5861 24.7304C89.3351 24.0674 88.7824 23.7709 88.1294 23.6042C87.4979 23.443 86.6377 23.3714 85.583 23.2835L83.7487 23.1307C83.2543 23.0895 82.8354 23.0546 82.4825 23.0672C82.107 23.0806 81.7499 23.1481 81.3895 23.3523C81.0291 23.5565 80.7561 23.846 80.5049 24.1876C80.2688 24.5087 80.0196 24.922 79.7256 25.4099L75.9038 31.7508C75.7183 31.2875 75.4032 30.8937 74.9684 30.6317C73.7572 29.9016 72.0761 30.4701 71.2134 31.9013C70.3508 33.3325 70.6334 35.0845 71.8446 35.8145C73.0558 36.5446 74.7369 35.9761 75.5995 34.5449L78.9598 28.9698Z" fill="#E6C392"/>
</g>
<defs>
<filter id="filter0_d_2011_823" x="17.6437" y="78.7495" width="23.9963" height="36.6719" filterUnits="userSpaceOnUse" color-interpolation-filters="sRGB">
<feFlood flood-opacity="0" result="BackgroundImageFix"/>
<feColorMatrix in="SourceAlpha" type="matrix" values="0 0 0 0 0 0 0 0 0 0 0 0 0 0 0 0 0 0 127 0" result="hardAlpha"/>
<feOffset dy="1"/>
<feGaussianBlur stdDeviation="1.5"/>
<feComposite in2="hardAlpha" operator="out"/>
<feColorMatrix type="matrix" values="0 0 0 0 0 0 0 0 0 0 0 0 0 0 0 0 0 0 0.25 0"/>
<feBlend mode="normal" in2="BackgroundImageFix" result="effect1_dropShadow_2011_823"/>
<feBlend mode="normal" in="SourceGraphic" in2="effect1_dropShadow_2011_823" result="shape"/>
</filter>
<filter id="filter1_d_2011_823" x="31.1371" y="75.7686" width="49.5007" height="56.2341" filterUnits="userSpaceOnUse" color-interpolation-filters="sRGB">
<feFlood flood-opacity="0" result="BackgroundImageFix"/>
<feColorMatrix in="SourceAlpha" type="matrix" values="0 0 0 0 0 0 0 0 0 0 0 0 0 0 0 0 0 0 127 0" result="hardAlpha"/>
<feOffset dx="1" dy="2"/>
<feGaussianBlur stdDeviation="1.5"/>
<feComposite in2="hardAlpha" operator="out"/>
<feColorMatrix type="matrix" values="0 0 0 0 0 0 0 0 0 0 0 0 0 0 0 0 0 0 0.25 0"/>
<feBlend mode="normal" in2="BackgroundImageFix" result="effect1_dropShadow_2011_823"/>
<feBlend mode="normal" in="SourceGraphic" in2="effect1_dropShadow_2011_823" result="shape"/>
</filter>
<filter id="filter2_d_2011_823" x="0" y="106.869" width="42.6688" height="19.7085" filterUnits="userSpaceOnUse" color-interpolation-filters="sRGB">
<feFlood flood-opacity="0" result="BackgroundImageFix"/>
<feColorMatrix in="SourceAlpha" type="matrix" values="0 0 0 0 0 0 0 0 0 0 0 0 0 0 0 0 0 0 127 0" result="hardAlpha"/>
<feOffset dx="-1" dy="2"/>
<feGaussianBlur stdDeviation="1.5"/>
<feComposite in2="hardAlpha" operator="out"/>
<feColorMatrix type="matrix" values="0 0 0 0 0 0 0 0 0 0 0 0 0 0 0 0 0 0 0.25 0"/>
<feBlend mode="normal" in2="BackgroundImageFix" result="effect1_dropShadow_2011_823"/>
<feBlend mode="normal" in="SourceGraphic" in2="effect1_dropShadow_2011_823" result="shape"/>
</filter>
<filter id="filter3_d_2011_823" x="35.2199" y="119.311" width="16.9419" height="36.9656" filterUnits="userSpaceOnUse" color-interpolation-filters="sRGB">
<feFlood flood-opacity="0" result="BackgroundImageFix"/>
<feColorMatrix in="SourceAlpha" type="matrix" values="0 0 0 0 0 0 0 0 0 0 0 0 0 0 0 0 0 0 127 0" result="hardAlpha"/>
<feOffset dx="1" dy="1"/>
<feGaussianBlur stdDeviation="1.5"/>
<feComposite in2="hardAlpha" operator="out"/>
<feColorMatrix type="matrix" values="0 0 0 0 0 0 0 0 0 0 0 0 0 0 0 0 0 0 0.25 0"/>
<feBlend mode="normal" in2="BackgroundImageFix" result="effect1_dropShadow_2011_823"/>
<feBlend mode="normal" in="SourceGraphic" in2="effect1_dropShadow_2011_823" result="shape"/>
</filter>
<filter id="filter4_d_2011_823" x="28.864" y="48.1587" width="23.7659" height="12.1816" filterUnits="userSpaceOnUse" color-interpolation-filters="sRGB">
<feFlood flood-opacity="0" result="BackgroundImageFix"/>
<feColorMatrix in="SourceAlpha" type="matrix" values="0 0 0 0 0 0 0 0 0 0 0 0 0 0 0 0 0 0 127 0" result="hardAlpha"/>
<feOffset dx="-1" dy="1"/>
<feGaussianBlur stdDeviation="1.5"/>
<feComposite in2="hardAlpha" operator="out"/>
<feColorMatrix type="matrix" values="0 0 0 0 0 0 0 0 0 0 0 0 0 0 0 0 0 0 0.25 0"/>
<feBlend mode="normal" in2="BackgroundImageFix" result="effect1_dropShadow_2011_823"/>
<feBlend mode="normal" in="SourceGraphic" in2="effect1_dropShadow_2011_823" result="shape"/>
</filter>
<filter id="filter5_d_2011_823" x="30.8215" y="47.4663" width="50.4307" height="43.2988" filterUnits="userSpaceOnUse" color-interpolation-filters="sRGB">
<feFlood flood-opacity="0" result="BackgroundImageFix"/>
<feColorMatrix in="SourceAlpha" type="matrix" values="0 0 0 0 0 0 0 0 0 0 0 0 0 0 0 0 0 0 127 0" result="hardAlpha"/>
<feOffset dy="1"/>
<feGaussianBlur stdDeviation="1.5"/>
<feComposite in2="hardAlpha" operator="out"/>
<feColorMatrix type="matrix" values="0 0 0 0 0 0 0 0 0 0 0 0 0 0 0 0 0 0 0.25 0"/>
<feBlend mode="normal" in2="BackgroundImageFix" result="effect1_dropShadow_2011_823"/>
<feBlend mode="normal" in="SourceGraphic" in2="effect1_dropShadow_2011_823" result="shape"/>
</filter>
<filter id="filter6_d_2011_823" x="56.5853" y="47.4663" width="25.6669" height="14.1826" filterUnits="userSpaceOnUse" color-interpolation-filters="sRGB">
<feFlood flood-opacity="0" result="BackgroundImageFix"/>
<feColorMatrix in="SourceAlpha" type="matrix" values="0 0 0 0 0 0 0 0 0 0 0 0 0 0 0 0 0 0 127 0" result="hardAlpha"/>
<feOffset dx="1" dy="1"/>
<feGaussianBlur stdDeviation="1.5"/>
<feComposite in2="hardAlpha" operator="out"/>
<feColorMatrix type="matrix" values="0 0 0 0 0 0 0 0 0 0 0 0 0 0 0 0 0 0 0.25 0"/>
<feBlend mode="normal" in2="BackgroundImageFix" result="effect1_dropShadow_2011_823"/>
<feBlend mode="normal" in="SourceGraphic" in2="effect1_dropShadow_2011_823" result="shape"/>
</filter>
<filter id="filter7_d_2011_823" x="41.7442" y="24.3511" width="15.6259" height="12.9669" filterUnits="userSpaceOnUse" color-interpolation-filters="sRGB">
<feFlood flood-opacity="0" result="BackgroundImageFix"/>
<feColorMatrix in="SourceAlpha" type="matrix" values="0 0 0 0 0 0 0 0 0 0 0 0 0 0 0 0 0 0 127 0" result="hardAlpha"/>
<feOffset dx="0.5" dy="1"/>
<feGaussianBlur stdDeviation="0.45"/>
<feComposite in2="hardAlpha" operator="out"/>
<feColorMatrix type="matrix" values="0 0 0 0 0 0 0 0 0 0 0 0 0 0 0 0 0 0 0.25 0"/>
<feBlend mode="normal" in2="BackgroundImageFix" result="effect1_dropShadow_2011_823"/>
<feBlend mode="normal" in="SourceGraphic" in2="effect1_dropShadow_2011_823" result="shape"/>
</filter>
<filter id="filter8_d_2011_823" x="97.2242" y="45.6597" width="26.0251" height="21.3246" filterUnits="userSpaceOnUse" color-interpolation-filters="sRGB">
<feFlood flood-opacity="0" result="BackgroundImageFix"/>
<feColorMatrix in="SourceAlpha" type="matrix" values="0 0 0 0 0 0 0 0 0 0 0 0 0 0 0 0 0 0 127 0" result="hardAlpha"/>
<feOffset dx="1" dy="1"/>
<feGaussianBlur stdDeviation="0.45"/>
<feComposite in2="hardAlpha" operator="out"/>
<feColorMatrix type="matrix" values="0 0 0 0 0 0 0 0 0 0 0 0 0 0 0 0 0 0 0.25 0"/>
<feBlend mode="normal" in2="BackgroundImageFix" result="effect1_dropShadow_2011_823"/>
<feBlend mode="normal" in="SourceGraphic" in2="effect1_dropShadow_2011_823" result="shape"/>
</filter>
<filter id="filter9_d_2011_823" x="70.3139" y="23.0645" width="20.7924" height="17.4408" filterUnits="userSpaceOnUse" color-interpolation-filters="sRGB">
<feFlood flood-opacity="0" result="BackgroundImageFix"/>
<feColorMatrix in="SourceAlpha" type="matrix" values="0 0 0 0 0 0 0 0 0 0 0 0 0 0 0 0 0 0 127 0" result="hardAlpha"/>
<feOffset dx="0.5" dy="1"/>
<feGaussianBlur stdDeviation="0.45"/>
<feComposite in2="hardAlpha" operator="out"/>
<feColorMatrix type="matrix" values="0 0 0 0 0 0 0 0 0 0 0 0 0 0 0 0 0 0 0.25 0"/>
<feBlend mode="normal" in2="BackgroundImageFix" result="effect1_dropShadow_2011_823"/>
<feBlend mode="normal" in="SourceGraphic" in2="effect1_dropShadow_2011_823" result="shape"/>
</filter>
<clipPath id="clip0_2011_823">
<rect width="13" height="16" fill="none" transform="translate(47.5594 18.842) rotate(31.0785)"/>
</clipPath>
</defs>
</svg>
