<svg width="88" height="174" viewBox="0 0 88 174" fill="none" xmlns="http://www.w3.org/2000/svg">
<g filter="url(#filter0_d_2011_805)">
<path d="M48.0349 52.5461C48.0349 61.9199 41.7369 69.5189 33.9679 69.5189C26.199 69.5189 20.6938 60.1333 20.6938 50.7595C20.6938 41.3856 23.5182 32 33.9679 32C41.7369 32 48.0349 43.1722 48.0349 52.5461Z" fill="#849F80" fill-opacity="0.44"/>
<g filter="url(#filter1_d_2011_805)">
<path d="M51.2614 137.967C51.2614 154.002 49.6419 167 47.6442 167C45.6465 167 44.027 154.002 44.027 137.967C44.027 121.933 43.223 89.2825 51.2612 101.789C55.6823 114.742 51.2614 121.933 51.2614 137.967Z" fill="#849F80" fill-opacity="0.44" shape-rendering="crispEdges"/>
</g>
<path d="M85.0001 73.092C85.0001 74.0787 75.2832 74.8786 63.2967 74.8786C51.3103 74.8786 41.5934 75.8653 41.5934 74.8786C42.7991 69.9653 51.3103 71.3054 63.2967 71.3054C75.2832 71.3054 85.0001 72.1053 85.0001 73.092Z" fill="#849F80" fill-opacity="0.44"/>
<path d="M35.9665 73.5388C35.9665 74.7722 26.6095 75.7721 15.067 75.7721C3.5245 75.7721 1 65.3927 1 64.1593C1 62.9259 3.5245 71.3056 15.067 71.3056C26.6095 71.3056 35.9665 72.3054 35.9665 73.5388Z" fill="#849F80" fill-opacity="0.44"/>
<g filter="url(#filter2_d_2011_805)">
<path d="M36.7703 125.798C36.7703 135.171 67.3158 137.411 63.6986 147.684C60.4833 149.917 29.5359 135.171 29.5359 125.798C29.5359 116.424 31.1554 108.825 33.1531 108.825C46.8182 109.271 37.1723 115.078 36.7703 125.798Z" fill="#849F80" fill-opacity="0.44" shape-rendering="crispEdges"/>
</g>
<path d="M54.4545 101.678C54.4545 120.426 48.5164 118.651 41.1913 118.651C33.8663 118.651 26.7224 108.366 26.7224 89.6185C26.7224 70.8708 33.0624 66.8391 40.3875 66.8391C47.7125 66.8391 51.6411 81.5787 54.4545 101.678Z" fill="#FDD19B"/>
<path d="M52.4138 73.7337C52.4138 75.5376 50.9549 76.9999 49.1552 76.9999C47.3555 76.9999 42.6379 71.5458 42.6379 69.7419C42.6379 67.9381 47.3555 70.4676 49.1552 70.4676C50.9549 70.4676 52.4138 71.9299 52.4138 73.7337Z" fill="#FDD19B"/>
<path d="M34.1589 69.6157C34.1589 70.9649 33.3059 75.5484 30.6139 75.5484C27.9219 75.5484 27.069 73.059 27.069 71.7099C27.069 70.3608 29.6944 69.6156 32.3864 69.6156C35.0784 69.6156 34.1589 68.2666 34.1589 69.6157Z" fill="#FDD19B"/>
</g>
<g clip-path="url(#clip0_2011_805)">
<g filter="url(#filter3_d_2011_805)">
<path d="M5.4659 29.9752L10.4886 27.7538V31.4471C10.1902 31.2358 9.83526 31.1133 9.45452 31.1133C8.39388 31.1133 7.5341 32.0639 7.5341 33.2366C7.5341 34.4093 8.39388 35.3599 9.45452 35.3599C10.5152 35.3599 11.375 34.4093 11.375 33.2366V26.9948C11.375 26.2482 11.375 25.622 11.3275 25.1231C11.3208 25.0526 11.3128 24.9825 11.304 24.917C11.2583 24.5762 11.1774 24.2582 11.0213 23.9927C10.9432 23.8599 10.8463 23.7403 10.7257 23.6374C10.703 23.6182 10.6795 23.5995 10.6552 23.5814L10.6503 23.5778C10.2324 23.2703 9.76262 23.2923 9.27864 23.4286C8.81059 23.5605 8.2303 23.829 7.51877 24.1583L6.28133 24.731C5.94783 24.8853 5.66524 25.016 5.44343 25.1515C5.20745 25.2956 5.00418 25.4655 4.85175 25.7188C4.69931 25.972 4.63599 26.245 4.60688 26.5413C4.57952 26.8198 4.57953 27.1585 4.57955 27.5582V32.7537C4.28105 32.5425 3.92619 32.4199 3.54545 32.4199C2.48481 32.4199 1.625 33.3706 1.625 34.5433C1.625 35.7159 2.48481 36.6666 3.54545 36.6666C4.60609 36.6666 5.4659 35.7159 5.4659 34.5433V29.9752Z" fill="#E6C392"/>
</g>
</g>
<g filter="url(#filter4_d_2011_805)">
<path d="M74.5299 9.02331C73.2098 8.83854 71.9572 9.7675 71.5046 11.2669C71.4026 11.6049 71.3668 11.9702 71.35 12.3532C71.3374 12.6421 71.3343 12.9865 71.3336 13.3921L71.3333 13.9608C71.3333 13.9668 71.3333 13.9728 71.3333 13.9788V24.062C70.4482 23.0651 69.2575 22.4546 67.9479 22.4546C65.2153 22.4546 63 25.1128 63 28.3921C63 31.6713 65.2153 34.3296 67.9479 34.3296C70.6806 34.3296 72.8958 31.6713 72.8958 28.3921V17.4053C73.005 17.4752 73.1232 17.546 73.2528 17.6237L76.0731 19.3158C76.5089 19.5772 76.8634 19.79 77.154 19.942C77.4469 20.0952 77.7352 20.2202 78.0327 20.2618C79.3527 20.4466 80.6053 19.5176 81.0579 18.0182C81.16 17.6803 81.1957 17.3149 81.2126 16.9319C81.2292 16.5522 81.2292 16.0765 81.2292 15.4919L81.2293 15.3884C81.2294 14.9537 81.2295 14.6137 81.1781 14.2914C81.0458 13.4619 80.6636 12.7199 80.1046 12.2069C79.8873 12.0076 79.6339 11.8557 79.3098 11.6615L76.4895 9.96932C76.0537 9.70789 75.6992 9.49514 75.4086 9.34316C75.1157 9.18991 74.8274 9.06495 74.5299 9.02331Z" fill="#AAB7A4"/>
</g>
<g filter="url(#filter5_d_2011_805)">
<path d="M32.1212 14.4648L38.8182 11.2993V16.5622C38.4202 16.2611 37.947 16.0865 37.4394 16.0865C36.0252 16.0865 34.8788 17.4412 34.8788 19.1122C34.8788 20.7833 36.0252 22.138 37.4394 22.138C38.8535 22.138 40 20.7833 40 19.1122V10.2177C40 9.15376 40 8.26145 39.9367 7.55048C39.9277 7.45 39.9171 7.35011 39.9054 7.25691C39.8444 6.77119 39.7365 6.31808 39.5284 5.93971C39.4242 5.75052 39.2951 5.58002 39.1342 5.43347C39.104 5.40599 39.0727 5.37935 39.0402 5.35359L39.0337 5.34845C38.4765 4.91025 37.8502 4.94159 37.2049 5.1359C36.5808 5.32382 35.8071 5.7065 34.8584 6.17575L33.2084 6.99173C32.7638 7.21166 32.387 7.39798 32.0912 7.59097C31.7766 7.79631 31.5056 8.03848 31.3023 8.39937C31.0991 8.76026 31.0147 9.14918 30.9758 9.57143C30.9394 9.96829 30.9394 10.4509 30.9394 11.0206V18.4242C30.5414 18.1231 30.0683 17.9485 29.5606 17.9485C28.1464 17.9485 27 19.3032 27 20.9743C27 22.6453 28.1464 24 29.5606 24C30.9748 24 32.1212 22.6453 32.1212 20.9743V14.4648Z" fill="#E6C392"/>
</g>
<defs>
<filter id="filter0_d_2011_805" x="1" y="32" width="84.0001" height="136" filterUnits="userSpaceOnUse" color-interpolation-filters="sRGB">
<feFlood flood-opacity="0" result="BackgroundImageFix"/>
<feColorMatrix in="SourceAlpha" type="matrix" values="0 0 0 0 0 0 0 0 0 0 0 0 0 0 0 0 0 0 127 0" result="hardAlpha"/>
<feOffset dy="1"/>
<feComposite in2="hardAlpha" operator="out"/>
<feColorMatrix type="matrix" values="0 0 0 0 0 0 0 0 0 0 0 0 0 0 0 0 0 0 0.07 0"/>
<feBlend mode="normal" in2="BackgroundImageFix" result="effect1_dropShadow_2011_805"/>
<feBlend mode="normal" in="SourceGraphic" in2="effect1_dropShadow_2011_805" result="shape"/>
</filter>
<filter id="filter1_d_2011_805" x="42.0046" y="98.998" width="13.2216" height="75.002" filterUnits="userSpaceOnUse" color-interpolation-filters="sRGB">
<feFlood flood-opacity="0" result="BackgroundImageFix"/>
<feColorMatrix in="SourceAlpha" type="matrix" values="0 0 0 0 0 0 0 0 0 0 0 0 0 0 0 0 0 0 127 0" result="hardAlpha"/>
<feOffset dy="5"/>
<feGaussianBlur stdDeviation="1"/>
<feComposite in2="hardAlpha" operator="out"/>
<feColorMatrix type="matrix" values="0 0 0 0 0 0 0 0 0 0 0 0 0 0 0 0 0 0 0.25 0"/>
<feBlend mode="normal" in2="BackgroundImageFix" result="effect1_dropShadow_2011_805"/>
<feBlend mode="normal" in="SourceGraphic" in2="effect1_dropShadow_2011_805" result="shape"/>
</filter>
<filter id="filter2_d_2011_805" x="25.5359" y="108.825" width="42.4603" height="47.0859" filterUnits="userSpaceOnUse" color-interpolation-filters="sRGB">
<feFlood flood-opacity="0" result="BackgroundImageFix"/>
<feColorMatrix in="SourceAlpha" type="matrix" values="0 0 0 0 0 0 0 0 0 0 0 0 0 0 0 0 0 0 127 0" result="hardAlpha"/>
<feOffset dy="4"/>
<feGaussianBlur stdDeviation="2"/>
<feComposite in2="hardAlpha" operator="out"/>
<feColorMatrix type="matrix" values="0 0 0 0 0 0 0 0 0 0 0 0 0 0 0 0 0 0 0.25 0"/>
<feBlend mode="normal" in2="BackgroundImageFix" result="effect1_dropShadow_2011_805"/>
<feBlend mode="normal" in="SourceGraphic" in2="effect1_dropShadow_2011_805" result="shape"/>
</filter>
<filter id="filter3_d_2011_805" x="1.225" y="23.3333" width="11.55" height="15.2333" filterUnits="userSpaceOnUse" color-interpolation-filters="sRGB">
<feFlood flood-opacity="0" result="BackgroundImageFix"/>
<feColorMatrix in="SourceAlpha" type="matrix" values="0 0 0 0 0 0 0 0 0 0 0 0 0 0 0 0 0 0 127 0" result="hardAlpha"/>
<feOffset dx="0.5" dy="1"/>
<feGaussianBlur stdDeviation="0.45"/>
<feComposite in2="hardAlpha" operator="out"/>
<feColorMatrix type="matrix" values="0 0 0 0 0 0 0 0 0 0 0 0 0 0 0 0 0 0 0.25 0"/>
<feBlend mode="normal" in2="BackgroundImageFix" result="effect1_dropShadow_2011_805"/>
<feBlend mode="normal" in="SourceGraphic" in2="effect1_dropShadow_2011_805" result="shape"/>
</filter>
<filter id="filter4_d_2011_805" x="63" y="9" width="20.1292" height="27.2296" filterUnits="userSpaceOnUse" color-interpolation-filters="sRGB">
<feFlood flood-opacity="0" result="BackgroundImageFix"/>
<feColorMatrix in="SourceAlpha" type="matrix" values="0 0 0 0 0 0 0 0 0 0 0 0 0 0 0 0 0 0 127 0" result="hardAlpha"/>
<feOffset dx="1" dy="1"/>
<feGaussianBlur stdDeviation="0.45"/>
<feComposite in2="hardAlpha" operator="out"/>
<feColorMatrix type="matrix" values="0 0 0 0 0 0 0 0 0 0 0 0 0 0 0 0 0 0 0.25 0"/>
<feBlend mode="normal" in2="BackgroundImageFix" result="effect1_dropShadow_2011_805"/>
<feBlend mode="normal" in="SourceGraphic" in2="effect1_dropShadow_2011_805" result="shape"/>
</filter>
<filter id="filter5_d_2011_805" x="26.6" y="5" width="14.8" height="20.9" filterUnits="userSpaceOnUse" color-interpolation-filters="sRGB">
<feFlood flood-opacity="0" result="BackgroundImageFix"/>
<feColorMatrix in="SourceAlpha" type="matrix" values="0 0 0 0 0 0 0 0 0 0 0 0 0 0 0 0 0 0 127 0" result="hardAlpha"/>
<feOffset dx="0.5" dy="1"/>
<feGaussianBlur stdDeviation="0.45"/>
<feComposite in2="hardAlpha" operator="out"/>
<feColorMatrix type="matrix" values="0 0 0 0 0 0 0 0 0 0 0 0 0 0 0 0 0 0 0.25 0"/>
<feBlend mode="normal" in2="BackgroundImageFix" result="effect1_dropShadow_2011_805"/>
<feBlend mode="normal" in="SourceGraphic" in2="effect1_dropShadow_2011_805" result="shape"/>
</filter>
<clipPath id="clip0_2011_805">
<rect width="13" height="16" fill="none" transform="translate(0 22)"/>
</clipPath>
</defs>
</svg>
