<svg width="72" height="192" viewBox="0 0 72 192" fill="none" xmlns="http://www.w3.org/2000/svg">
<path d="M33.1458 56.4364C29.4354 55.512 26.676 51.7454 26.5405 47.5455C26.5205 46.7901 26.4717 46.017 26.3872 45.2548C25.9546 41.8456 23.9632 38.0116 20.6018 38.2551C18.9007 38.361 17.5357 39.5415 16.8252 41.2029C14.7547 46.3102 19.531 58.3127 20.502 61.3885C20.9151 62.7405 21.3667 64.1161 22.2238 65.2344C24.1461 67.7437 27.4623 67.9656 30.3366 67.9423C35.2095 68.4037 37.2465 65.308 37.6507 63.3598C38.0549 61.4116 37.5859 57.5 33.1458 56.4364Z" fill="#849F80" fill-opacity="0.36"/>
<path d="M39.9156 67.7566C38.6737 68.1378 38.1575 70.0525 38.7627 72.0332C39.3679 74.0139 40.8654 75.3106 42.1073 74.9295C43.3493 74.5483 43.8655 72.6336 43.2603 70.6528C42.6551 68.6721 41.1576 67.3754 39.9156 67.7566Z" fill="#849F80" fill-opacity="0.36"/>
<path d="M34.978 70.2018C34.2407 70.4281 33.9354 71.5684 34.2961 72.7488C34.6567 73.9292 35.5468 74.7027 36.2841 74.4764C37.0214 74.2501 37.3268 73.1098 36.9661 71.9294C36.6054 70.749 35.7153 69.9755 34.978 70.2018Z" fill="#849F80" fill-opacity="0.36"/>
<path d="M30.4896 70.4104C29.8311 70.6125 29.5554 71.6209 29.8737 72.6626C30.192 73.7044 30.9839 74.3851 31.6423 74.1831C32.3008 73.981 32.5765 72.9726 32.2582 71.9308C31.9398 70.889 31.148 70.2083 30.4896 70.4104Z" fill="#849F80" fill-opacity="0.36"/>
<path d="M26.4194 70.6856C25.8359 70.8647 25.591 71.7565 25.8724 72.6776C26.1539 73.5987 26.8551 74.2002 27.4386 74.0211C28.0221 73.842 28.267 72.9501 27.9856 72.029C27.7042 71.108 27.003 70.5065 26.4194 70.6856Z" fill="#849F80" fill-opacity="0.36"/>
<path d="M24.3766 70.9357C24.277 70.0897 23.7536 69.4343 23.2075 69.4719C22.6614 69.5095 22.2994 70.2258 22.399 71.0718C22.4986 71.9179 23.022 72.5733 23.5681 72.5357C24.1142 72.4981 24.4762 71.7818 24.3766 70.9357Z" fill="#849F80" fill-opacity="0.36"/>
<path d="M42.2159 24.3568C44.6007 21.5616 44.7014 16.9173 42.5249 13.3437C42.1301 12.7034 41.748 12.0325 41.3997 11.3513C39.8841 8.27449 39.3505 3.99304 42.0982 2.36163C43.4794 1.52155 45.1828 1.76027 46.6383 2.75694C51.024 5.88267 53.8286 18.4903 54.7441 21.5831C55.1573 22.9351 55.5533 24.3278 55.494 25.7274C55.3615 28.8673 52.9019 30.8619 50.6529 32.4111C47.112 35.4548 43.8452 33.9869 42.4723 32.5841C41.0993 31.1814 39.339 27.666 42.2159 24.3568Z" fill="#849F80" fill-opacity="0.36"/>
<path d="M43.0989 37.4839C44.2724 37.1237 45.7142 38.4375 46.3195 40.4182C46.9247 42.3989 46.4641 44.2966 45.2906 44.6567C44.1172 45.0169 42.6753 43.7031 42.07 41.7224C41.4648 39.7417 41.9255 37.844 43.0989 37.4839Z" fill="#849F80" fill-opacity="0.36"/>
<path d="M48.2691 36.8271C48.9657 36.6133 49.8228 37.3968 50.1835 38.5772C50.5442 39.7576 50.2719 40.8878 49.5752 41.1016C48.8786 41.3154 48.0215 40.5319 47.6608 39.3515C47.3002 38.1711 47.5725 37.0409 48.2691 36.8271Z" fill="#849F80" fill-opacity="0.36"/>
<path d="M51.8749 34.5513C52.497 34.3604 53.2594 35.0501 53.5777 36.0919C53.896 37.1337 53.6497 38.133 53.0276 38.324C52.4055 38.5149 51.6431 37.8251 51.3248 36.7834C51.0065 35.7416 51.2528 34.7423 51.8749 34.5513Z" fill="#849F80" fill-opacity="0.36"/>
<path d="M55.1911 32.5593C55.7424 32.3901 56.4175 32.9996 56.6989 33.9207C56.9804 34.8417 56.7616 35.7256 56.2103 35.8948C55.6589 36.064 54.9838 35.4545 54.7024 34.5334C54.421 33.6124 54.6398 32.7285 55.1911 32.5593Z" fill="#849F80" fill-opacity="0.36"/>
<path d="M56.9166 31.6529C56.5344 30.8936 56.5856 30.0619 57.0309 29.7952C57.4762 29.5285 58.1471 29.9278 58.5292 30.6872C58.9114 31.4465 58.8602 32.2782 58.4149 32.5449C57.9696 32.8116 57.2987 32.4122 56.9166 31.6529Z" fill="#849F80" fill-opacity="0.36"/>
<path d="M53.4181 102.476C56.8908 101.288 59.3378 97.3422 59.281 93.1559C59.2666 92.4032 59.2788 91.6309 59.3252 90.8669C59.5847 87.4454 61.3014 83.4886 64.4951 83.4873C66.1106 83.4694 67.4552 84.5444 68.2012 86.1451C70.3868 91.0738 66.3929 103.355 65.609 106.484C65.2773 107.858 64.9104 109.259 64.1481 110.433C62.4383 113.068 59.3079 113.529 56.5852 113.714C51.9912 114.525 49.926 111.594 49.4574 109.686C48.9887 107.778 49.2605 103.855 53.4181 102.476Z" fill="#849F80" fill-opacity="0.36"/>
<path d="M47.5064 114.223C48.6993 114.512 49.2725 116.378 48.7866 118.392C48.3008 120.405 46.94 121.803 45.7471 121.514C44.5543 121.225 43.9811 119.358 44.4669 117.345C44.9527 115.331 46.3136 113.934 47.5064 114.223Z" fill="#849F80" fill-opacity="0.36"/>
<path d="M52.2898 116.297C52.9979 116.468 53.3373 117.58 53.0478 118.78C52.7583 119.98 51.9495 120.814 51.2414 120.642C50.5332 120.47 50.1939 119.359 50.4834 118.159C50.7729 116.959 51.5817 116.125 52.2898 116.297Z" fill="#849F80" fill-opacity="0.36"/>
<path d="M56.5491 116.179C57.1815 116.332 57.487 117.315 57.2315 118.374C56.976 119.433 56.2562 120.167 55.6238 120.014C54.9914 119.861 54.6858 118.878 54.9414 117.819C55.1969 116.76 55.9167 116.026 56.5491 116.179Z" fill="#849F80" fill-opacity="0.36"/>
<path d="M60.4155 116.158C60.9759 116.294 61.2471 117.163 61.0212 118.099C60.7953 119.035 60.1578 119.684 59.5974 119.548C59.0369 119.413 58.7657 118.543 58.9916 117.607C59.2175 116.671 59.855 116.022 60.4155 116.158Z" fill="#849F80" fill-opacity="0.36"/>
<path d="M62.3609 116.259C62.4179 115.41 62.8846 114.72 63.4034 114.718C63.9222 114.716 64.2965 115.402 64.2395 116.251C64.1825 117.099 63.7157 117.789 63.197 117.791C62.6782 117.793 62.3039 117.107 62.3609 116.259Z" fill="#849F80" fill-opacity="0.36"/>
<path d="M26.7697 166.794C23.062 168.648 18.4774 167.513 15.8697 164.18C15.4044 163.577 14.904 162.98 14.3797 162.417C11.9882 159.938 8.01747 158.208 5.30017 160.771C3.91469 162.053 3.45308 163.977 3.83414 165.833C5.10222 171.459 16.2915 177.9 18.9435 179.729C20.0976 180.542 21.2984 181.347 22.6918 181.658C25.8176 182.355 28.7726 180.204 31.206 178.163C35.6286 175.113 35.5257 171.153 34.7137 169.278C33.9018 167.403 31.1811 164.54 26.7697 166.794Z" fill="#849F80" fill-opacity="0.36"/>
<path d="M39.2512 171.275C38.42 172.46 39.1168 174.386 40.8076 175.578C42.4983 176.769 44.5427 176.775 45.3739 175.59C46.2051 174.406 45.5084 172.479 43.8176 171.288C42.1269 170.096 40.0824 170.091 39.2512 171.275Z" fill="#849F80" fill-opacity="0.36"/>
<path d="M36.4987 176.744C36.0052 177.447 36.422 178.593 37.4296 179.303C38.4372 180.013 39.654 180.019 40.1474 179.316C40.6409 178.612 40.2241 177.467 39.2165 176.756C38.209 176.046 36.9921 176.041 36.4987 176.744Z" fill="#849F80" fill-opacity="0.36"/>
<path d="M32.801 180.071C32.3603 180.699 32.724 181.716 33.6133 182.343C34.5025 182.97 35.5806 182.969 36.0213 182.341C36.462 181.713 36.0983 180.696 35.2091 180.069C34.3198 179.442 33.2417 179.443 32.801 180.071Z" fill="#849F80" fill-opacity="0.36"/>
<path d="M29.4991 183.158C29.1086 183.715 29.4293 184.615 30.2155 185.169C31.0017 185.723 31.9557 185.721 32.3462 185.165C32.7368 184.608 32.416 183.708 31.6298 183.153C30.8436 182.599 29.8896 182.601 29.4991 183.158Z" fill="#849F80" fill-opacity="0.36"/>
<path d="M27.9082 184.798C27.3214 184.178 26.4868 184.011 26.0442 184.425C25.6015 184.84 25.7185 185.68 26.3053 186.3C26.8922 186.921 27.7267 187.088 28.1694 186.673C28.612 186.259 28.4951 185.419 27.9082 184.798Z" fill="#849F80" fill-opacity="0.36"/>
<path d="M25.0001 13C16 28.5 29.5 42 34.5 43C39.5478 44.0096 63.8783 55.6579 60 66C58.5 70 28.5075 101.971 26.5001 110C24.5 118 17.5001 155 52.5001 157" stroke="#849F80" stroke-opacity="0.21" stroke-width="0.7"/>
</svg>
