<?xml version="1.0" encoding="UTF-8" standalone="no"?>
<svg
   width="395"
   height="329"
   viewBox="0 0 395 329"
   fill="none"
   version="1.1"
   id="svg76"
   sodipodi:docname="intro-sequence-animated.svg"
   inkscape:version="1.4.2 (f4327f4, 2025-05-13)"
   xmlns:inkscape="http://www.inkscape.org/namespaces/inkscape"
   xmlns:sodipodi="http://sodipodi.sourceforge.net/DTD/sodipodi-0.dtd"
   xmlns="http://www.w3.org/2000/svg"
   xmlns:svg="http://www.w3.org/2000/svg">
  <sodipodi:namedview
     id="namedview76"
     pagecolor="#ffffff"
     bordercolor="#000000"
     borderopacity="0.25"
     inkscape:showpageshadow="2"
     inkscape:pageopacity="0.0"
     inkscape:pagecheckerboard="0"
     inkscape:deskcolor="#d1d1d1"
     inkscape:zoom="1.2264438"
     inkscape:cx="210.36431"
     inkscape:cy="187.12639"
     inkscape:window-width="1920"
     inkscape:window-height="1009"
     inkscape:window-x="-8"
     inkscape:window-y="-8"
     inkscape:window-maximized="1"
     inkscape:current-layer="g72" />
  <g
     clip-path="url(#clip0_6_43)"
     filter="url(#filter0_d_6_43)"
     id="g72">
    <g
       id="background_wind">
      <path
         opacity="0.1"
         d="M383.515 85.4083C379.684 75.9232 374.506 67.1237 368.165 59.3189L155.191 57.0808L330.54 30.8107C319.212 25.9988 307.153 23.4466 294.961 23.2808C278.187 8.97943 257.533 0.835749 236.072 0.0611166C214.61 -0.713516 193.487 5.92229 175.846 18.9815C161.747 11.2505 146.118 7.23297 130.265 7.26476C82.9445 7.26476 43.5118 42.222 34.6669 88.5826L383.515 85.4083Z"
         fill="#6C63FF"
         id="path1" />
      <path
         opacity="0.1"
         d="M391.004 124.287C391.014 111.716 388.761 99.259 384.366 87.594L15.2557 128.92C11.4495 136.263 8.53789 144.095 6.59168 152.225L120.893 170.403L3.98117 183.662C7.49952 236.142 49.6783 277.585 101.203 277.585C127.139 277.585 150.709 267.081 168.168 249.956C185.689 267.407 209.481 278.135 235.695 278.135C274.593 278.135 308.164 254.513 323.797 220.355C355.165 209.739 379.53 183.076 387.87 149.721L243.338 125.79H391.004C390.996 125.288 391.004 124.789 391.004 124.287Z"
         fill="#6C63FF"
         id="path2" />
    </g>
    <path
       d="M111.992 321C159.218 321 197.502 314.306 197.502 306.049C197.502 297.791 159.218 291.097 111.992 291.097C64.7656 291.097 26.4813 297.791 26.4813 306.049C26.4813 314.306 64.7656 321 111.992 321Z"
       fill="#E6BB54"
       id="floor_under_woman" />
    <path
       d="M200.429 209.736C196.583 210.764 192.635 208.763 192.635 208.763C192.635 208.763 189.267 204.604 186.427 204.042C183.587 203.479 182.487 208.402 180.799 209.667C179.631 210.555 171.208 209.92 166.108 209.446L165.23 209.362C165.144 209.294 165.057 209.221 164.963 209.157C164.963 209.157 160.066 207.55 159.045 206.127C158.024 204.705 151.202 202.073 149.085 202.226C146.968 202.378 140.711 202.74 140.711 202.74C140.711 202.74 138.259 199.763 137.151 200.072C136.044 200.381 132.194 200.048 132.194 200.048C132.194 200.048 131.135 197.147 130.077 192.988C129.583 191.048 127.941 189.685 126.332 188.789C127.779 183.566 125.202 168.667 117.201 165.754C115.457 165.119 114.564 163.009 113.08 161.852C111.75 160.82 109.573 158.385 110.639 153.985C112.146 147.825 115.883 138.125 115.883 138.125L118.667 132.195C118.407 132.615 118.112 133.009 117.785 133.372C118.162 132.858 118.539 132.351 118.863 131.926C121.641 133.422 124.671 134.313 127.775 134.545C130.917 135.899 134.055 137.093 135.275 137.049C138.067 136.944 145.186 140.745 145.186 140.745C145.186 140.745 162.315 145.969 165.874 146.391C169.434 146.813 171.167 141.874 171.167 141.874C171.167 141.874 173.017 132.139 169.732 129.559C166.447 126.979 164.537 138.8 164.537 138.8L142.127 130.186L140.745 129.41C141.818 128.199 142.67 126.784 143.257 125.239C143.604 124.319 143.92 123.267 144.745 122.809C144.967 122.691 145.207 122.616 145.454 122.588C145.658 122.573 145.863 122.573 146.068 122.588C149.955 122.841 153.296 126.103 157.191 126.119C157.335 126.119 157.478 126.119 157.621 126.119C158.363 126.117 159.089 125.879 159.704 125.436C160.052 125.135 160.337 124.76 160.543 124.336C160.749 123.911 160.871 123.446 160.902 122.969C160.845 123.098 160.782 123.225 160.714 123.347C160.815 122.756 160.815 122.15 160.714 121.559C160.473 120.149 159.783 118.883 159.165 117.609C158.991 117.312 158.892 116.971 158.879 116.621C158.897 116.438 158.949 116.26 159.032 116.1C159.116 115.939 159.229 115.797 159.365 115.684C159.371 115.722 159.378 115.76 159.388 115.797C159.681 115.502 160.008 115.247 160.36 115.038C161.312 114.372 162.125 113.504 162.75 112.489C163.375 111.473 163.797 110.332 163.991 109.135C163.897 109.432 163.784 109.726 163.663 110.015C164.243 107.975 164.102 105.78 163.268 103.843C163.052 103.292 162.707 102.809 162.266 102.441C160.861 101.388 158.973 102.509 157.259 102.63C155.753 102.734 154.291 102.015 152.931 101.288C150.611 100.046 148.301 98.7041 146.369 96.8678C144.173 94.7664 142.542 92.0863 140.56 89.7599C138.579 87.4334 136.036 85.3601 133.087 85.127C127.726 84.685 122.671 90.3505 117.574 88.5022C115.088 87.6062 113.453 85.1552 111.724 83.0497C109.995 80.9442 107.618 78.9231 105.026 79.3772C103.226 79.6986 101.666 81.1893 99.8431 81.1331C98.89 81.1009 98.0048 80.6469 97.1007 80.3294C94.9121 79.5459 91.9136 79.9276 91.1338 82.2501C90.9807 82.7231 90.9266 83.2262 90.9754 83.724C91.0242 84.2218 91.1747 84.7021 91.4164 85.131C91.3011 85.3036 91.1979 85.4849 91.1075 85.6735C90.9202 86.0416 90.8552 86.4664 90.9229 86.8789C89.3737 88.3622 88.2258 90.2615 87.5987 92.3789C86.9717 94.4963 86.8885 96.7544 87.3579 98.9177C87.8272 101.081 88.8319 103.071 90.2672 104.679C91.7026 106.287 93.516 107.456 95.5186 108.062C95.5902 108.356 95.6617 108.649 95.7295 108.946C96.4603 112.229 96.8408 115.926 95.7597 118.417C95.6919 118.569 95.6203 118.718 95.5412 118.863L95.447 118.907L95.3114 118.758L94.4902 117.842C94.445 116.886 93.9402 114.322 90.4294 109.565C85.8073 103.301 84.9409 92.9342 84.9409 92.9342C84.9409 92.9342 83.7882 87.5981 84.9409 86.0592C86.0936 84.5203 88.0223 67.5761 88.0223 67.5761L91.2092 58.0372C91.2092 58.0372 106.703 41.2014 100.25 39.1522C95.8689 37.7579 90.6441 44.9423 87.7436 49.6916C86.3189 52.0237 85.3976 54.6642 85.0464 57.4224L76.2882 82.9814C76.2882 82.9814 75.4218 86.0632 76.2882 91.3992C77.1546 96.7352 79.0795 106.182 79.0795 106.182L83.9766 119.421C83.9766 119.421 85.781 125.139 85.6228 127.622C85.408 127.771 84.6547 129.362 84.003 130.809L83.5246 131.612L83.4907 131.938C83.1705 132.665 82.9482 133.187 82.9482 133.187C82.9482 133.187 80.2209 141.774 82.4999 147.042C84.779 152.309 84.8694 154.752 84.8694 154.752L86.5683 162.555L87.2765 169.386L93.3865 185.503L99.0144 194.073C99.0144 194.073 98.487 200.386 97.3305 201.257C96.1741 202.129 96.7052 206.646 96.7052 206.646L95.9819 218.499C95.9819 218.499 93.7218 222.043 93.5786 227.789C93.4355 233.535 92.6143 235.182 92.6143 235.182C92.6143 235.182 92.2376 240.004 93.2886 242.214C94.3395 244.424 91.6047 246.73 91.6047 246.73L93.9515 255.325L93.0362 266.206C93.0362 266.206 93.4618 266.33 94.1663 266.519L94.0231 267.298L90.1959 287.911C90.1959 287.911 88.1278 293.561 88.0336 294.891L81.3435 307.777C81.3435 307.777 75.7608 313.679 78.409 314.242C81.0572 314.804 88.7569 309.725 88.7569 309.725C88.7569 309.725 95.108 302.437 97.6093 301.774C100.111 301.111 102.883 299.202 102.084 296.434C101.286 293.665 99.4476 289.454 101.218 284.986C102.348 282.173 104.751 274.539 106.401 269.211C106.492 268.918 106.578 268.637 106.665 268.363C107.101 268.321 107.533 268.234 107.953 268.102C111.995 266.768 114.112 267.7 114.112 267.7L121.33 236.548L122.916 220.918L133.023 229.91C135.022 231.689 137.505 232.736 140.104 232.896C144.086 233.145 150.298 233.76 154.796 235.242L156.679 226.877C156.679 226.877 162.066 227.086 163.222 225.133C163.693 224.329 164.157 223.646 164.537 223.124L165.411 222.979L189.252 219.045C193.678 219.045 199.743 215.859 199.743 215.859L203.45 215.092C203.45 215.092 208.98 213.91 209.477 212.934C209.974 211.958 204.282 208.715 200.429 209.736Z"
       fill="url(#paint0_linear_6_43)"
       id="path4" />
    <g
       opacity="0.1"
       id="g7">
      <path
         d="M159.632 125.279C158.944 125.76 158.13 125.992 157.308 125.942C153.5 125.942 150.23 122.728 146.425 122.487C145.939 122.426 145.446 122.505 144.998 122.716C144.188 123.162 143.868 124.195 143.54 125.095C141.777 129.796 137.396 133.063 132.725 133.959C128.054 134.855 123.176 133.593 118.998 131.198C118.693 131.042 118.412 130.836 118.166 130.587C117.817 130.135 117.571 129.603 117.446 129.032C116.165 124.709 114.433 120.193 110.884 117.693C108.579 116.066 105.456 115.186 104.416 112.47C103.757 110.75 104.168 108.801 104.006 106.957C103.843 105.372 103.264 103.867 102.335 102.618C101.406 101.368 100.165 100.424 98.7544 99.8933C98.1367 99.6723 97.4586 99.5116 97.0066 99.0133C96.6391 98.5194 96.4059 97.9273 96.3323 97.3016C95.7672 94.5854 95.3981 91.7085 94.6145 89.0565C94.0872 87.2806 92.4259 85.8421 92.5088 83.9456C92.46 84.0457 92.4172 84.149 92.3807 84.2549C91.5746 86.6377 93.7067 88.2328 94.3132 90.2821C95.0967 92.934 95.4659 95.8109 96.0309 98.5271C96.1045 99.1528 96.3378 99.7449 96.7052 100.239C97.1572 100.737 97.8353 100.898 98.4531 101.119C99.8638 101.649 101.105 102.594 102.034 103.845C102.963 105.095 103.542 106.6 103.704 108.187C103.866 110.031 103.456 111.98 104.115 113.699C105.155 116.428 108.277 117.316 110.583 118.923C114.124 121.426 115.856 125.938 117.145 130.262C117.27 130.832 117.516 131.364 117.864 131.817C118.11 132.065 118.391 132.271 118.697 132.428C122.874 134.838 127.738 136.08 132.424 135.188C137.11 134.296 141.464 131.025 143.239 126.324C143.578 125.424 143.89 124.391 144.696 123.945C145.145 123.735 145.638 123.656 146.124 123.716C149.929 123.962 153.199 127.156 157.007 127.172C157.829 127.218 158.644 126.981 159.331 126.497C159.672 126.203 159.952 125.837 160.154 125.422C160.356 125.007 160.476 124.552 160.506 124.086C160.316 124.557 160.015 124.968 159.632 125.279Z"
         fill="black"
         id="path6" />
      <path
         d="M160.288 115.094C159.712 115.496 159.007 115.897 158.973 116.633C158.97 116.78 158.992 116.927 159.037 117.067C159.324 116.778 159.642 116.528 159.987 116.323C160.918 115.672 161.715 114.824 162.326 113.83C162.937 112.837 163.35 111.72 163.539 110.549C162.982 112.42 161.833 114.027 160.288 115.094Z"
         fill="black"
         id="path7" />
    </g>
    <path
       opacity="0.1"
       d="M165.765 220.882C165.765 220.882 165.43 221.283 164.94 221.97L161.81 222.489V208.373C161.81 208.373 163.384 208.55 165.614 208.775C169.359 211.929 165.765 220.882 165.765 220.882Z"
       fill="black"
       id="path10" />
    <path
       d="M120.705 217.619L133.237 228.773C135.195 230.514 137.624 231.538 140.169 231.694C144.064 231.939 150.143 232.538 154.558 233.993L156.397 225.804C156.397 225.804 161.67 226.005 162.801 224.096C163.464 222.969 164.203 221.895 165.012 220.882C165.012 220.882 168.828 211.391 164.496 208.478C164.496 208.478 159.693 206.919 158.702 205.513C157.711 204.106 151.029 201.547 148.957 201.695C146.885 201.844 140.764 202.198 140.764 202.198C140.764 202.198 138.36 199.284 137.279 199.586C136.198 199.887 132.427 199.586 132.427 199.586C132.427 199.586 131.391 196.745 130.356 192.675C129.32 188.604 123.153 187.15 123.153 187.15L120.705 217.619Z"
       fill="#F2ECE3"
       id="path11" />
    <path
       d="M115.099 117.617L113.713 117.894H113.626L113.423 117.935L111.05 118.405L110.319 119.329L110.289 119.361L107.942 122.326L105.964 124.396L105.946 124.42L104.273 126.156L101.444 129.157L100.969 130.407L99.9373 133.175L99.6698 133.878L96.8446 137.093L95.0402 141.211L90.8212 143.823L86.282 141.312L84.2101 138.097L84.681 133.493L84.7752 132.572L86.1577 130.206L87.4121 128.052L89.8606 124.335L94.5693 120.92L95.4131 120.683L96.3586 120.418C96.4309 120.308 96.4975 120.194 96.5583 120.076C96.638 119.935 96.7097 119.789 96.773 119.638C97.8315 117.203 97.4586 113.583 96.7429 110.373C96.1943 107.971 95.4675 105.62 94.5693 103.341L107 101.432C107 101.432 106.88 104.004 106.88 108.014C106.88 109.019 106.88 110.107 106.906 111.273C106.966 114.889 110.116 116.456 112.493 117.123C113.105 117.297 113.726 117.431 114.353 117.525C114.813 117.601 115.099 117.617 115.099 117.617Z"
       fill="#CC818C"
       id="path13" />
    <path
       opacity="0.1"
       d="M118.32 134.32C117.25 135.747 116.06 137.253 115.759 137.306C115.194 137.406 106.435 138.712 106.435 138.712L100.502 135.799L99.9373 133.175L99.6698 133.878L96.8446 137.093L95.0402 141.211L90.8212 143.823L86.282 141.312L84.2101 138.097L84.681 133.492C84.9183 132.946 85.5663 131.459 86.1577 130.206C86.4371 129.515 86.7884 128.86 87.2049 128.253C87.5816 127.988 87.9771 125.139 87.9771 125.139C89.6873 119.879 95.4169 119.072 95.4169 119.072L96.3323 119.988L96.7316 120.43C96.5696 120.402 96.7617 120.028 96.5545 120.088C96.223 120.189 96.0761 120.723 95.6504 121.016C93.3338 122.624 89.7137 126.372 88.2822 128.152C87.9357 128.582 87.5778 129.004 87.2124 129.414C85.1444 131.749 85.5248 134.843 85.5248 134.843C85.0087 137.253 89.5743 139.062 89.5743 139.062C90.8475 136.803 99.4626 130.575 99.4626 130.575L105.264 123.644C107.042 120.341 110.538 118.159 112.489 117.139C113.351 116.689 113.916 116.464 113.916 116.464L116.086 117.452C115.513 117.289 114.907 117.317 114.35 117.533C114.029 117.638 113.718 117.773 113.419 117.934C113.306 117.995 113.193 118.059 113.088 118.127C112.494 118.495 111.937 118.924 111.423 119.409L106.548 125.087C102.823 129.422 105.629 136.434 111.14 136.534H111.189C114.557 137.362 116.972 135.698 118.32 134.32Z"
       fill="black"
       id="path16" />
    <path
       opacity="0.1"
       d="M108.835 261.814C108.835 261.814 108.138 264.112 107.177 267.218C103.493 267.511 97.4096 265.993 95.0628 265.35L95.56 262.67L108.835 261.814Z"
       fill="black"
       id="path17" />
    <path
       opacity="0.1"
       d="M107 101.432C107 101.432 106.88 104.004 106.88 108.014C105.485 109.233 103.839 110.082 102.077 110.492C100.315 110.901 98.4867 110.859 96.7429 110.369C96.1943 107.967 95.4675 105.616 94.5693 103.337L107 101.432Z"
       fill="black"
       id="path29" />
    <path
       opacity="0.1"
       d="M102.642 105.25C102.962 110.22 103.942 115.905 107.987 118.405C110.91 120.209 114.595 119.735 117.83 118.706C121.066 117.677 124.234 116.143 127.602 115.97C130.19 115.837 132.748 116.516 135.328 116.689C137.908 116.862 140.734 116.432 142.576 114.495C145.213 111.739 144.73 106.728 142.233 103.831C139.735 100.934 135.829 99.8814 132.13 99.9899C127.609 100.122 122.562 101.597 118.987 98.6719C116.587 96.7031 115.679 93.2877 113.66 90.8809C110.289 86.8628 95.3792 81.0607 92.2225 87.6102C90.7421 90.676 97.4699 92.8658 99.0294 95.0838C101.493 98.5835 102.348 100.661 102.642 105.25Z"
       fill="black"
       id="path31" />
    <g
       id="woman">
      <path
         d="M92.2451 84.2632C92.9985 81.997 95.9443 81.6152 98.0877 82.3827C98.9692 82.6961 99.8393 83.1421 100.77 83.1863C102.555 83.2426 104.081 81.78 105.844 81.4706C108.379 81.0206 110.703 82.9975 112.395 85.0587C114.086 87.12 115.691 89.5188 118.124 90.3988C123.108 92.1908 128.058 86.6619 133.301 87.0919C136.179 87.3289 138.666 89.35 140.606 91.6283C142.546 93.9065 144.143 96.5263 146.29 98.5836C148.173 100.392 150.434 101.706 152.713 102.923C154.042 103.634 155.462 104.337 156.947 104.233C158.627 104.116 160.473 103.028 161.844 104.048C162.275 104.409 162.613 104.882 162.823 105.422C164.511 109.167 163.151 114.154 159.847 116.356C159.271 116.737 158.57 117.159 158.536 117.894C158.547 118.238 158.643 118.572 158.815 118.863C159.418 120.108 160.096 121.35 160.322 122.728C160.548 124.106 160.243 125.694 159.192 126.529C158.506 127.016 157.691 127.254 156.868 127.208C153.055 127.188 149.786 123.994 145.981 123.749C145.494 123.689 145.001 123.77 144.553 123.982C143.747 124.428 143.423 125.46 143.096 126.361C141.333 131.058 136.955 134.324 132.284 135.22C127.613 136.116 122.735 134.855 118.554 132.46C118.248 132.304 117.967 132.098 117.721 131.849C117.372 131.397 117.126 130.865 117.002 130.294C115.721 125.975 113.988 121.454 110.44 118.959C108.138 117.352 105.015 116.448 103.972 113.736C103.316 112.02 103.727 110.071 103.561 108.223C103.398 106.638 102.819 105.135 101.891 103.885C100.963 102.636 99.7228 101.691 98.3137 101.159C97.6959 100.938 97.0179 100.781 96.5658 100.279C96.1988 99.7861 95.9645 99.1958 95.8878 98.5715C95.3265 95.8513 94.9536 92.9784 94.1701 90.3224C93.5711 88.2411 91.4428 86.6459 92.2451 84.2632Z"
         fill="#663D5B"
         id="path5" />
      <path
         d="M102.103 282.648C100.359 287.019 102.152 291.134 102.951 293.85C103.749 296.566 101.022 298.418 98.5736 299.073C96.1251 299.728 89.9096 306.856 89.9096 306.856C89.9096 306.856 82.3756 311.827 79.784 311.276C77.1923 310.726 82.6544 304.948 82.6544 304.948L89.2014 292.339C89.2956 291.037 91.3184 285.508 91.3184 285.508L95.0628 265.338L95.5601 262.658L108.835 261.802C108.835 261.802 108.138 264.1 107.177 267.206C105.561 272.43 103.196 279.919 102.103 282.648Z"
         fill="#CC818C"
         id="path8" />
      <path
         d="M208.049 212.142C207.579 213.099 202.165 214.252 202.165 214.252L198.538 215.003C198.538 215.003 192.605 218.121 188.273 218.121L164.94 221.974L161.81 222.493V208.373C161.81 208.373 163.384 208.55 165.614 208.775C170.598 209.241 178.844 209.86 179.985 208.992C181.635 207.738 182.717 202.917 185.493 203.471C188.269 204.026 191.569 208.092 191.569 208.092C191.569 208.092 195.43 210.049 199.197 209.044C202.964 208.04 208.52 211.186 208.049 212.142Z"
         fill="#CC818C"
         id="path9" />
      <path
         opacity="0.1"
         d="M120.705 217.619L133.237 228.773C135.195 230.514 137.624 231.538 140.169 231.694C144.064 231.939 150.143 232.538 154.558 233.993L156.397 225.804C156.397 225.804 161.67 226.005 162.801 224.096C163.464 222.969 164.203 221.895 165.012 220.882C165.012 220.882 168.828 211.391 164.496 208.478C164.496 208.478 159.693 206.919 158.702 205.513C157.711 204.106 151.029 201.547 148.957 201.695C146.885 201.844 140.764 202.198 140.764 202.198C140.764 202.198 138.36 199.284 137.279 199.586C136.198 199.887 132.427 199.586 132.427 199.586C132.427 199.586 131.391 196.745 130.356 192.675C129.32 188.604 123.153 187.15 123.153 187.15L120.705 217.619Z"
         fill="#F2ECE3"
         id="path12" />
      <path
         d="M95.5111 119.514C95.5111 119.514 96.0761 117.103 91.5558 110.975C87.0354 104.848 86.1878 94.702 86.1878 94.702C86.1878 94.702 85.0577 89.4785 86.1878 87.9718C87.3179 86.465 89.2014 69.8904 89.2014 69.8904L92.3092 60.5484C92.3092 60.5484 107.471 44.0743 101.162 42.0652C96.8747 40.6991 91.7441 47.7347 88.9227 52.3796C87.529 54.6621 86.6284 57.2464 86.2858 59.9457L77.7121 84.9582C77.7121 84.9582 76.8646 87.9718 77.7121 93.1953C78.5597 98.4188 80.4432 107.66 80.4432 107.66L85.2461 120.631C85.2461 120.631 87.7737 128.707 86.4628 129.691L89.3898 125.075L95.5111 119.514Z"
         fill="#CC818C"
         id="path14" />
      <path
         d="M170.568 142.63C170.568 142.63 168.873 147.451 165.388 147.049C161.904 146.648 145.141 141.525 145.141 141.525C145.141 141.525 138.172 137.808 135.441 137.908C132.71 138.009 120.185 131.781 120.185 131.781C120.185 131.781 119.303 133.018 118.32 134.32C117.25 135.747 116.06 137.253 115.759 137.306C115.194 137.406 106.435 138.712 106.435 138.712L100.502 135.799L99.9373 133.175L99.6698 131.97L100.985 130.407L102.714 128.353L105.957 124.408L105.976 124.383L110.304 119.365L110.334 119.333L113.107 118.127L113.642 117.894H113.728C114.06 117.834 115.333 117.709 117.039 118.738C118.228 119.456 119.547 119.892 120.908 120.016C123.616 120.222 126.181 121.394 128.19 123.343L142.127 131.166L164.07 139.604C164.07 139.604 165.953 128.052 169.155 130.563C172.357 133.075 170.568 142.63 170.568 142.63Z"
         fill="#CC818C"
         id="path15" />
      <path
         d="M96.7353 120.43L95.5299 119.112C95.5299 119.112 91.179 119.747 88.4781 124.705C88.4781 124.705 87.2162 128.422 86.8282 128.687C86.4402 128.952 84.2101 134.148 84.2101 134.148C84.2101 134.148 81.5431 142.549 83.7694 147.709C85.9957 152.868 86.0936 155.242 86.0936 155.242L87.7586 162.877L88.448 169.571L94.4299 185.342L99.9373 193.711C99.9373 193.711 99.4212 199.887 98.2911 200.743C97.161 201.599 97.6771 206.015 97.6771 206.015L96.9726 217.619C96.9726 217.619 94.7577 221.083 94.6183 226.708C94.4789 232.333 93.6765 233.94 93.6765 233.94C93.6765 233.94 93.2999 238.662 94.3358 240.823C95.3717 242.985 92.6858 245.243 92.6858 245.243L94.995 253.629L94.0984 264.277C94.0984 264.277 104.74 267.443 108.695 266.137C112.651 264.831 114.723 265.735 114.723 265.735L121.786 235.234L124.234 211.278C124.234 211.278 124.377 194.302 126.494 189.127C128.31 184.707 125.929 168.96 117.751 165.987C116.045 165.368 115.178 163.303 113.721 162.17C112.417 161.161 110.289 158.778 111.332 154.471C112.794 148.444 116.467 138.953 116.467 138.953L119.186 133.175C119.186 133.175 116.229 138.278 110.816 136.972H110.767C105.256 136.868 102.45 129.856 106.175 125.525L111.05 119.843C111.05 119.843 113.736 117.203 115.713 117.87L113.547 116.882C113.547 116.882 107.449 119.293 104.883 124.062L99.0822 130.993C99.0822 130.993 90.4746 137.193 89.2014 139.467C89.2014 139.467 84.6358 137.659 85.1519 135.248C85.1519 135.248 84.7752 132.151 86.8395 129.816C87.2162 129.414 87.5628 128.988 87.9093 128.558C89.7664 126.244 94.9008 120.104 96.7353 120.43Z"
         fill="#EFD8CF"
         id="path18" />
      <path
         opacity="0.1"
         d="M97.4435 161.816C97.4435 161.816 96.0761 172.416 97.112 174.573L97.4435 161.816Z"
         fill="black"
         id="path19" />
      <path
         opacity="0.1"
         d="M98.3363 165.934L99.7979 172.014C99.7979 172.014 100.314 168.297 98.3363 165.934Z"
         fill="black"
         id="path20" />
      <path
         opacity="0.1"
         d="M89.6723 164.516C89.6723 164.516 92.5917 179.986 95.7936 184.659L89.6723 164.516Z"
         fill="black"
         id="path21" />
      <path
         opacity="0.1"
         d="M110.251 183.164C110.251 183.164 105.26 188.187 103.328 187.821C103.328 187.821 111.005 188.175 113.404 183.855C113.404 183.867 111.852 182.662 110.251 183.164Z"
         fill="black"
         id="path22" />
      <path
         opacity="0.1"
         d="M117.171 182.762C117.171 182.762 110.767 187.733 109.498 188.187C109.498 188.187 116.418 186.077 117.171 182.762Z"
         fill="black"
         id="path23" />
      <path
         opacity="0.1"
         d="M95.5111 145.844C95.5111 145.844 92.3092 150.216 90.7082 149.713C90.7082 149.713 94.6183 149.862 95.5111 145.844Z"
         fill="black"
         id="path24" />
      <path
         opacity="0.1"
         d="M99.1387 151.469C99.1387 151.469 106.108 141.376 109.404 141.778C109.404 141.778 101.493 149.111 99.1387 151.469Z"
         fill="black"
         id="path25" />
      <path
         opacity="0.1"
         d="M108.79 147.797C108.79 147.797 104.363 150.164 104.834 150.855C105.305 151.546 108.79 147.797 108.79 147.797Z"
         fill="black"
         id="path26" />
      <path
         opacity="0.1"
         d="M111.992 225.302C111.992 225.302 97.2062 234.495 95.8426 234.945C95.8426 234.945 98.3853 237.006 100.785 236.002C103.184 234.997 111.992 225.302 111.992 225.302Z"
         fill="black"
         id="path27" />
      <path
         opacity="0.1"
         d="M99.6096 244.44C99.6096 244.44 93.6766 243.785 93.9101 245.846C94.1437 247.907 99.6096 244.44 99.6096 244.44Z"
         fill="black"
         id="path28" />
      <path
         d="M99.6547 109.987C105.948 109.987 111.05 104.545 111.05 97.8322C111.05 91.1193 105.948 85.6775 99.6547 85.6775C93.3614 85.6775 88.2596 91.1193 88.2596 97.8322C88.2596 104.545 93.3614 109.987 99.6547 109.987Z"
         fill="#CC818C"
         id="path30" />
      <path
         d="M102.992 104.819C103.316 109.794 104.292 115.479 108.338 117.975C111.261 119.779 114.945 119.305 118.181 118.28C121.417 117.255 124.585 115.717 127.956 115.544C130.54 115.411 133.098 116.086 135.682 116.263C138.266 116.44 141.084 116.006 142.926 114.069C145.563 111.309 145.081 106.302 142.583 103.405C140.086 100.508 136.179 99.4554 132.484 99.5639C127.964 99.6924 122.912 101.171 119.337 98.2419C116.938 96.273 116.03 92.8617 114.011 90.4509C110.639 86.4328 95.7296 80.6347 92.5728 87.1842C91.0924 90.2459 97.8202 92.4358 99.3835 94.6578C101.843 98.1535 102.698 100.227 102.992 104.819Z"
         fill="#663D5B"
         id="path32" />
      <path
         opacity="0.1"
         d="M89.2881 139.058C89.4629 137.472 89.9528 135.944 90.7252 134.576C91.4975 133.209 92.5346 132.032 93.767 131.126"
         fill="black"
         id="path33" />
      <path
         opacity="0.1"
         d="M132.013 201.997C131.978 202.39 131.888 202.776 131.746 203.142C131.252 204.719 130.658 206.259 129.968 207.75C130.973 207.658 131.802 206.814 132.228 205.842C132.6 204.841 132.805 203.779 132.834 202.704C132.871 202.368 132.88 202.029 132.861 201.691C132.834 201.378 132.646 200.18 132.16 200.393C131.768 200.57 132.021 201.679 132.013 201.997Z"
         fill="black"
         id="path34" />
      <path
         opacity="0.1"
         d="M143.604 112.812C141.758 114.748 138.941 115.182 136.356 115.005C133.772 114.829 131.203 114.154 128.63 114.29C125.24 114.463 122.098 115.998 118.859 117.027C115.619 118.055 111.939 118.529 109.012 116.725C104.97 114.226 103.991 108.54 103.67 103.57C103.377 98.9814 102.518 96.904 100.058 93.4043C98.5699 91.2867 92.392 89.1973 93.1002 86.3525C92.8955 86.6091 92.7186 86.8894 92.5728 87.1883C91.0924 90.2501 97.8202 92.4399 99.3835 94.6619C101.843 98.1576 102.698 100.239 102.992 104.824C103.316 109.798 104.292 115.484 108.338 117.979C111.261 119.783 114.945 119.309 118.181 118.284C121.417 117.26 124.585 115.721 127.956 115.548C130.54 115.415 133.098 116.09 135.682 116.267C138.266 116.444 141.084 116.01 142.926 114.073C143.449 113.52 143.865 112.861 144.15 112.137C143.985 112.376 143.802 112.602 143.604 112.812Z"
         fill="black"
         id="path35" />
    </g>
    <path
       opacity="0.1"
       d="M88.4706 149.348L87.333 152.562H87.0881L88.4706 149.348Z"
       fill="black"
       id="path36" />
    <path
       opacity="0.1"
       d="M256.414 301.645C264.943 301.645 271.858 300.632 271.858 299.383C271.858 298.133 264.943 297.121 256.414 297.121C247.884 297.121 240.969 298.133 240.969 299.383C240.969 300.632 247.884 301.645 256.414 301.645Z"
       fill="#6C63FF"
       id="path38" />
    <g
       id="plant">
      <path
         d="M256.749 298.876C256.749 298.876 235.089 223.136 260.139 192.799C278.876 170.105 300.148 172.821 309.675 175.626C312.14 176.326 314.433 177.59 316.395 179.329C318.356 181.069 319.94 183.242 321.036 185.699C324.366 193.366 323.767 205.79 300.257 220.323C260.892 244.632 258.444 277.982 258.444 277.982L256.749 298.876Z"
         fill="#3F5C3F"
         id="path42" />
      <path
         d="M306.285 186.37C306.285 186.37 242.434 207.666 256.749 298.876"
         stroke="#C08969"
         stroke-miterlimit="10"
         id="path43" />
      <path
         d="M268.992 194.005C268.992 194.005 277.78 200.325 274.989 209.82"
         stroke="#C08969"
         stroke-miterlimit="10"
         id="path44" />
      <path
         d="M299.881 199.63C299.881 199.63 294.505 193.796 287.962 197.014"
         stroke="#C08969"
         stroke-miterlimit="10"
         id="path45" />
      <path
         d="M274.642 228.962C274.642 228.962 265.202 223.851 262.761 230.252"
         stroke="#C08969"
         stroke-miterlimit="10"
         id="path46" />
      <path
         d="M251.287 239.61C251.287 239.61 258.372 239.007 258.5 242.623"
         stroke="#C08969"
         stroke-miterlimit="10"
         id="path47" />
      <path
         d="M255.89 299.479C255.89 299.479 281.257 244.432 288.226 245.637C291.537 246.208 293.062 249.683 293.752 253.171C294.603 257.686 294.113 262.371 292.35 266.575C288.753 275.379 279.083 292.106 255.89 299.479Z"
         fill="#3F5C3F"
         id="path48" />
      <path
         d="M288.018 256.084C288.018 256.084 261.393 297.269 256.248 299.077"
         stroke="#C08969"
         stroke-miterlimit="10"
         id="path49" />
      <path
         d="M290.467 262.513H284.252"
         stroke="#C08969"
         stroke-miterlimit="10"
         id="path50" />
      <path
         d="M283.024 277.581L273.282 278.027"
         stroke="#C08969"
         stroke-miterlimit="10"
         id="path51" />
      <path
         d="M277.094 265.526L278.153 270.939"
         stroke="#C08969"
         stroke-miterlimit="10"
         id="path52" />
      <path
         d="M266.735 282L266.923 286.919"
         stroke="#C08969"
         stroke-miterlimit="10"
         id="path53" />
      <path
         d="M256.643 299.479C256.643 299.479 231.277 244.432 224.308 245.637C220.997 246.208 219.471 249.683 218.782 253.171C217.918 257.681 218.395 262.367 220.145 266.575C223.743 275.379 233.412 292.106 256.643 299.479Z"
         fill="#3F5C3F"
         id="path54" />
      <path
         d="M224.477 256.084C224.477 256.084 251.102 297.269 256.248 299.077"
         stroke="#C08969"
         stroke-miterlimit="10"
         id="path55" />
      <path
         d="M222.025 262.513H228.24"
         stroke="#C08969"
         stroke-miterlimit="10"
         id="path56" />
      <path
         d="M229.472 277.581L239.214 278.027"
         stroke="#C08969"
         stroke-miterlimit="10"
         id="path57" />
      <path
         d="M235.398 265.526L234.343 270.939"
         stroke="#C08969"
         stroke-miterlimit="10"
         id="path58" />
      <path
         d="M245.757 282L245.568 286.919"
         stroke="#C08969"
         stroke-miterlimit="10"
         id="path59" />
    </g>
    <g
       id="g78">
      <path
         opacity="0.1"
         d="M294.136 317.601C300.198 317.601 305.113 316.881 305.113 315.993C305.113 315.106 300.198 314.386 294.136 314.386C288.074 314.386 283.159 315.106 283.159 315.993C283.159 316.881 288.074 317.601 294.136 317.601Z"
         fill="#6C63FF"
         id="path41" />
      <path
         d="M300.182 312.333C300.875 311.734 301.379 310.924 301.629 310.011C301.813 309.086 301.444 307.981 300.619 307.644C299.692 307.266 298.702 307.949 297.952 308.64C297.202 309.331 296.34 310.123 295.357 309.974C295.862 309.486 296.239 308.866 296.452 308.175C296.666 307.484 296.707 306.746 296.573 306.033C296.533 305.736 296.415 305.458 296.234 305.229C295.722 304.642 294.788 304.896 294.17 305.358C292.211 306.828 291.665 309.665 291.657 312.22C291.458 311.296 291.623 310.336 291.62 309.408C291.616 308.48 291.371 307.399 290.625 306.909C290.165 306.637 289.645 306.498 289.118 306.507C288.237 306.475 287.258 306.567 286.655 307.254C285.901 308.106 286.101 309.54 286.753 310.469C287.404 311.397 288.391 311.995 289.299 312.646C290.031 313.108 290.655 313.741 291.122 314.499C291.178 314.603 291.223 314.714 291.258 314.828H296.777C298.012 314.164 299.157 313.325 300.182 312.333Z"
         fill="#D9A373"
         id="path60" />
    </g>
    <g
       id="g76">
      <path
         opacity="0.1"
         d="M197.253 295.248C205.783 295.248 212.698 294.235 212.698 292.986C212.698 291.737 205.783 290.724 197.253 290.724C188.723 290.724 181.809 291.737 181.809 292.986C181.809 294.235 188.723 295.248 197.253 295.248Z"
         fill="#6C63FF"
         id="path37" />
      <path
         d="M203.529 290.165C204.221 289.564 204.724 288.753 204.972 287.839C205.16 286.915 204.791 285.83 203.962 285.472C203.036 285.095 202.049 285.778 201.295 286.473C200.542 287.168 199.683 287.951 198.704 287.807C199.208 287.315 199.585 286.693 199.797 286C200.009 285.307 200.049 284.567 199.913 283.853C199.871 283.557 199.753 283.279 199.574 283.049C199.058 282.463 198.127 282.712 197.509 283.174C195.551 284.645 195.004 287.481 194.993 290.037C194.797 289.117 194.963 288.156 194.959 287.224C194.955 286.292 194.711 285.215 193.961 284.721C193.499 284.456 192.979 284.325 192.454 284.343C191.576 284.307 190.593 284.399 189.994 285.087C189.241 285.942 189.441 287.373 190.088 288.301C190.736 289.229 191.727 289.828 192.639 290.479C193.368 290.943 193.99 291.576 194.458 292.331C194.515 292.437 194.56 292.549 194.594 292.665H200.116C201.354 291.998 202.501 291.158 203.529 290.165Z"
         fill="#D9A373"
         id="path61" />
    </g>
    <g
       id="g77">
      <path
         opacity="0.1"
         d="M232.734 319.208C238.797 319.208 243.711 318.488 243.711 317.601C243.711 316.713 238.797 315.993 232.734 315.993C226.672 315.993 221.757 316.713 221.757 317.601C221.757 318.488 226.672 319.208 232.734 319.208Z"
         fill="#6C63FF"
         id="path40" />
      <path
         d="M235.733 312.333C236.425 311.734 236.93 310.924 237.179 310.011C237.364 309.086 236.995 307.981 236.17 307.644C235.243 307.266 234.252 307.949 233.503 308.64C232.753 309.331 231.891 310.123 230.907 309.974C231.413 309.486 231.791 308.866 232.005 308.175C232.219 307.484 232.261 306.746 232.128 306.033C232.087 305.736 231.97 305.458 231.789 305.229C231.277 304.642 230.342 304.896 229.725 305.358C227.766 306.828 227.22 309.665 227.212 312.22C227.012 311.296 227.178 310.336 227.174 309.408C227.171 308.48 226.926 307.399 226.18 306.909C225.719 306.637 225.2 306.498 224.673 306.507C223.792 306.475 222.812 306.567 222.209 307.254C221.456 308.106 221.656 309.54 222.307 310.469C222.959 311.397 223.946 311.995 224.854 312.646C225.586 313.108 226.21 313.741 226.677 314.499C226.733 314.603 226.778 314.714 226.813 314.828H232.331C233.565 314.164 234.709 313.324 235.733 312.333Z"
         fill="#D9A373"
         id="path62" />
    </g>
    <path
       d="M327.086 267.52C327.086 267.52 329.158 270.405 326.133 274.752C323.108 279.1 320.614 282.788 321.612 285.504C321.612 285.504 326.178 277.412 329.9 277.3C333.621 277.187 331.188 272.385 327.086 267.52Z"
       fill="#D9A373"
       id="path63" />
    <path
       opacity="0.1"
       d="M327.086 267.52C327.267 267.797 327.409 268.102 327.508 268.424C331.135 272.964 333.064 277.203 329.579 277.312C326.336 277.408 322.445 283.6 321.511 285.163C321.541 285.283 321.578 285.401 321.62 285.517C321.62 285.517 326.185 277.424 329.907 277.312C333.629 277.199 331.188 272.385 327.086 267.52Z"
       fill="black"
       id="path64" />
    <path
       d="M330.947 271.196C330.947 272.213 330.841 273.036 330.71 273.036C330.578 273.036 330.476 272.201 330.476 271.196C330.476 270.192 330.608 270.662 330.74 270.662C330.872 270.662 330.947 270.192 330.947 271.196Z"
       fill="#FFD037"
       id="path65" />
    <path
       d="M316.162 267.52C316.162 267.52 314.09 270.405 317.115 274.752C320.139 279.1 322.633 282.788 321.635 285.504C321.635 285.504 317.073 277.412 313.348 277.3C309.622 277.187 312.086 272.385 316.162 267.52Z"
       fill="#D9A373"
       id="path67" />
    <path
       d="M312.323 271.196C312.323 272.213 312.432 273.036 312.564 273.036C312.696 273.036 312.801 272.213 312.801 271.196C312.801 270.179 312.67 270.662 312.538 270.662C312.406 270.662 312.323 270.192 312.323 271.196Z"
       fill="#FFD037"
       id="path69" />
    <path
       d="M311.005 272.41C311.841 272.896 312.568 273.189 312.632 273.068C312.696 272.948 312.071 272.45 311.234 271.964C310.398 271.477 310.726 271.831 310.662 271.964C310.598 272.096 310.168 271.923 311.005 272.41Z"
       fill="#FFD037"
       id="path70" />
    <g
       id="g79">
      <path
         opacity="0.1"
         d="M326.099 292.986C334.629 292.986 341.543 291.973 341.543 290.724C341.543 289.474 334.629 288.462 326.099 288.462C317.569 288.462 310.654 289.474 310.654 290.724C310.654 291.973 317.569 292.986 326.099 292.986Z"
         fill="#6C63FF"
         id="path39" />
      <path
         d="M332.269 272.41C331.433 272.896 330.702 273.189 330.642 273.068C330.581 272.948 331.203 272.45 332.039 271.964C332.876 271.477 332.548 271.831 332.608 271.964C332.668 272.096 333.113 271.923 332.269 272.41Z"
         fill="#FFD037"
         id="path66" />
      <path
         opacity="0.1"
         d="M316.162 267.52C315.98 267.798 315.836 268.102 315.736 268.424C312.112 272.964 310.183 277.203 313.664 277.312C316.911 277.408 320.821 283.6 321.737 285.163C321.706 285.283 321.669 285.401 321.624 285.517C321.624 285.517 317.062 277.424 313.336 277.312C309.611 277.199 312.086 272.385 316.162 267.52Z"
         fill="black"
         id="path68" />
      <path
         d="M312.982 285.139C312.982 285.139 318.768 284.95 320.516 283.624C322.264 282.298 329.418 280.719 329.851 282.844C330.284 284.97 338.545 293.408 332.013 293.464C325.481 293.52 316.836 292.379 315.096 291.246C313.355 290.113 312.982 285.139 312.982 285.139Z"
         fill="#A8A8A8"
         id="path71" />
    </g>
    <path
       opacity="0.2"
       d="M332.126 292.725C325.594 292.781 316.945 291.64 315.205 290.507C313.883 289.647 313.351 286.557 313.178 285.131H312.982C312.982 285.131 313.359 290.109 315.092 291.238C316.825 292.367 325.477 293.512 332.009 293.456C333.893 293.456 334.544 292.725 334.51 291.664C334.243 292.311 333.527 292.713 332.126 292.725Z"
       fill="black"
       id="path72" />
  </g>
  <defs
     id="defs76">
    <filter
       id="filter0_d_6_43"
       x="0"
       y="0"
       width="395"
       height="329"
       filterUnits="userSpaceOnUse"
       color-interpolation-filters="sRGB">
      <feFlood
         flood-opacity="0"
         result="BackgroundImageFix"
         id="feFlood72" />
      <feColorMatrix
         in="SourceAlpha"
         type="matrix"
         values="0 0 0 0 0 0 0 0 0 0 0 0 0 0 0 0 0 0 127 0"
         result="hardAlpha"
         id="feColorMatrix72" />
      <feOffset
         dy="4"
         id="feOffset72" />
      <feGaussianBlur
         stdDeviation="2"
         id="feGaussianBlur72" />
      <feColorMatrix
         type="matrix"
         values="0 0 0 0 0 0 0 0 0 0 0 0 0 0 0 0 0 0 0.25 0"
         id="feColorMatrix73" />
      <feBlend
         mode="normal"
         in2="BackgroundImageFix"
         result="effect1_dropShadow_6_43"
         id="feBlend73" />
      <feBlend
         mode="normal"
         in="SourceGraphic"
         in2="effect1_dropShadow_6_43"
         result="shape"
         id="feBlend74" />
    </filter>
    <linearGradient
       id="paint0_linear_6_43"
       x1="142.707"
       y1="314.274"
       x2="142.707"
       y2="38.9634"
       gradientUnits="userSpaceOnUse">
      <stop
         stop-color="#808080"
         stop-opacity="0.25"
         id="stop74" />
      <stop
         offset="0.54"
         stop-color="#808080"
         stop-opacity="0.12"
         id="stop75" />
      <stop
         offset="1"
         stop-color="#808080"
         stop-opacity="0.1"
         id="stop76" />
    </linearGradient>
    <clipPath
       id="clip0_6_43">
      <rect
         width="387"
         height="321"
         fill="white"
         transform="translate(4)"
         id="rect76" />
    </clipPath>
  </defs>
</svg>