<svg viewBox="0 0 143 66" fill="none" xmlns="http://www.w3.org/2000/svg">
<path d="M70.872 33V32.88L71.364 32.76C71.692 32.688 71.856 32.488 71.856 32.16V25.32H70.836C70.54 25.32 70.328 25.4 70.2 25.56C70.072 25.712 69.936 25.924 69.792 26.196L69.36 27.036H69.24L69.3 25.08H76.224L76.272 27.036H76.152L75.72 26.196C75.584 25.924 75.452 25.712 75.324 25.56C75.196 25.4 74.984 25.32 74.688 25.32H73.668V32.16C73.668 32.488 73.832 32.688 74.16 32.76L74.652 32.88V33H70.872ZM77.8358 33.18C77.3718 33.18 76.9798 33.048 76.6598 32.784C76.3478 32.52 76.1918 32.14 76.1918 31.644C76.1918 31.268 76.3838 30.924 76.7678 30.612C77.1518 30.292 77.7558 30.052 78.5798 29.892C78.7078 29.868 78.8518 29.844 79.0117 29.82C79.1718 29.788 79.3398 29.756 79.5158 29.724V28.776C79.5158 28.232 79.4478 27.852 79.3118 27.636C79.1838 27.412 78.9798 27.3 78.6998 27.3C78.5078 27.3 78.3558 27.364 78.2438 27.492C78.1318 27.612 78.0598 27.824 78.0278 28.128L78.0038 28.26C77.9878 28.604 77.9038 28.856 77.7518 29.016C77.5998 29.176 77.4118 29.256 77.1878 29.256C76.9798 29.256 76.8078 29.192 76.6718 29.064C76.5358 28.936 76.4678 28.764 76.4678 28.548C76.4678 28.22 76.5798 27.944 76.8038 27.72C77.0358 27.496 77.3398 27.328 77.7158 27.216C78.0918 27.104 78.4998 27.048 78.9398 27.048C79.6518 27.048 80.1998 27.224 80.5838 27.576C80.9758 27.92 81.1718 28.484 81.1718 29.268V31.92C81.1718 32.28 81.3398 32.46 81.6758 32.46H81.9398L82.0478 32.556C81.8958 32.748 81.7278 32.896 81.5438 33C81.3678 33.104 81.1158 33.156 80.7878 33.156C80.4358 33.156 80.1558 33.076 79.9478 32.916C79.7478 32.748 79.6158 32.528 79.5518 32.256C79.3118 32.512 79.0638 32.732 78.8078 32.916C78.5598 33.092 78.2358 33.18 77.8358 33.18ZM78.5678 32.448C78.7278 32.448 78.8758 32.412 79.0117 32.34C79.1558 32.26 79.3238 32.14 79.5158 31.98V29.964C79.4358 29.98 79.3558 29.996 79.2758 30.012C79.1958 30.028 79.1038 30.044 78.9998 30.06C78.6318 30.156 78.3358 30.32 78.1118 30.552C77.8958 30.776 77.7878 31.08 77.7878 31.464C77.7878 31.792 77.8638 32.04 78.0158 32.208C78.1678 32.368 78.3518 32.448 78.5678 32.448ZM82.2713 33V32.88L82.4393 32.832C82.7193 32.752 82.8593 32.556 82.8593 32.244V28.488C82.8593 28.312 82.8313 28.184 82.7753 28.104C82.7193 28.016 82.6113 27.956 82.4513 27.924L82.2713 27.876V27.756L84.3233 27.06L84.4433 27.18L84.5393 27.9C84.8193 27.652 85.1353 27.448 85.4873 27.288C85.8393 27.128 86.1873 27.048 86.5313 27.048C87.0593 27.048 87.4633 27.192 87.7433 27.48C88.0313 27.768 88.1753 28.208 88.1753 28.8V32.256C88.1753 32.568 88.3273 32.764 88.6313 32.844L88.7393 32.88V33H85.9073V32.88L86.0633 32.832C86.3433 32.744 86.4833 32.548 86.4833 32.244V28.416C86.4833 27.904 86.2273 27.648 85.7153 27.648C85.3633 27.648 84.9793 27.824 84.5633 28.176V32.256C84.5633 32.568 84.7033 32.764 84.9833 32.844L85.0913 32.88V33H82.2713ZM89.2448 33V32.808L92.5208 27.468H90.7088C90.5008 27.468 90.3368 27.524 90.2168 27.636C90.0968 27.748 89.9848 27.896 89.8808 28.08L89.4488 28.884H89.3288L89.4128 27.228H94.2128V27.396L91.0088 32.76H92.8928C93.1488 32.76 93.3368 32.7 93.4568 32.58C93.5768 32.46 93.6888 32.296 93.7928 32.088L94.2128 31.2H94.3328L94.2248 33H89.2448ZM94.7869 33V32.88L94.9549 32.832C95.1069 32.792 95.2109 32.724 95.2669 32.628C95.3309 32.532 95.3669 32.404 95.3749 32.244V28.488C95.3749 28.312 95.3469 28.184 95.2909 28.104C95.2349 28.016 95.1269 27.956 94.9669 27.924L94.7869 27.876V27.756L96.8389 27.06L96.9589 27.18L97.0549 27.996C97.3189 27.732 97.6189 27.508 97.9549 27.324C98.2989 27.14 98.6549 27.048 99.0229 27.048C99.4069 27.048 99.7149 27.128 99.9469 27.288C100.179 27.44 100.355 27.68 100.475 28.008C100.787 27.712 101.123 27.48 101.483 27.312C101.851 27.136 102.207 27.048 102.551 27.048C103.119 27.048 103.535 27.184 103.799 27.456C104.071 27.728 104.207 28.156 104.207 28.74V32.256C104.207 32.568 104.351 32.764 104.639 32.844L104.771 32.88V33H101.999V32.88L102.119 32.844C102.271 32.796 102.375 32.724 102.431 32.628C102.495 32.532 102.527 32.404 102.527 32.244V28.572C102.527 28.236 102.467 28.008 102.347 27.888C102.227 27.76 102.035 27.696 101.771 27.696C101.563 27.696 101.359 27.744 101.159 27.84C100.967 27.928 100.763 28.064 100.547 28.248C100.587 28.376 100.611 28.516 100.619 28.668C100.635 28.82 100.643 28.98 100.643 29.148V32.256C100.651 32.568 100.795 32.764 101.075 32.844L101.183 32.88V33H98.3989V32.88L98.5669 32.832C98.7189 32.784 98.8229 32.716 98.8789 32.628C98.9429 32.532 98.9749 32.404 98.9749 32.244V28.584C98.9749 28.264 98.9149 28.036 98.7949 27.9C98.6829 27.764 98.4869 27.696 98.2069 27.696C98.0229 27.696 97.8389 27.744 97.6549 27.84C97.4709 27.928 97.2789 28.06 97.0789 28.236V32.256C97.0789 32.568 97.2189 32.764 97.4989 32.844L97.6069 32.88V33H94.7869ZM108.276 33.18C107.668 33.18 107.14 33.056 106.692 32.808C106.244 32.552 105.896 32.192 105.648 31.728C105.408 31.264 105.288 30.72 105.288 30.096C105.288 29.472 105.416 28.932 105.672 28.476C105.936 28.02 106.292 27.668 106.74 27.42C107.196 27.172 107.708 27.048 108.276 27.048C108.844 27.048 109.352 27.172 109.8 27.42C110.248 27.66 110.6 28.008 110.856 28.464C111.12 28.92 111.252 29.464 111.252 30.096C111.252 30.728 111.128 31.276 110.88 31.74C110.64 32.196 110.296 32.552 109.848 32.808C109.408 33.056 108.884 33.18 108.276 33.18ZM108.276 32.94C108.556 32.94 108.78 32.86 108.948 32.7C109.116 32.54 109.236 32.256 109.308 31.848C109.388 31.44 109.428 30.864 109.428 30.12C109.428 29.368 109.388 28.788 109.308 28.38C109.236 27.972 109.116 27.688 108.948 27.528C108.78 27.368 108.556 27.288 108.276 27.288C107.996 27.288 107.768 27.368 107.592 27.528C107.424 27.688 107.3 27.972 107.22 28.38C107.148 28.788 107.112 29.368 107.112 30.12C107.112 30.864 107.148 31.44 107.22 31.848C107.3 32.256 107.424 32.54 107.592 32.7C107.768 32.86 107.996 32.94 108.276 32.94ZM111.779 33V32.88L111.947 32.832C112.099 32.792 112.203 32.724 112.259 32.628C112.323 32.532 112.359 32.404 112.367 32.244V28.488C112.367 28.312 112.339 28.184 112.283 28.104C112.227 28.016 112.119 27.956 111.959 27.924L111.779 27.876V27.756L113.831 27.06L113.951 27.18L114.047 27.996C114.311 27.732 114.611 27.508 114.947 27.324C115.291 27.14 115.647 27.048 116.015 27.048C116.399 27.048 116.707 27.128 116.939 27.288C117.171 27.44 117.347 27.68 117.467 28.008C117.779 27.712 118.115 27.48 118.475 27.312C118.843 27.136 119.199 27.048 119.543 27.048C120.111 27.048 120.527 27.184 120.791 27.456C121.063 27.728 121.199 28.156 121.199 28.74V32.256C121.199 32.568 121.343 32.764 121.631 32.844L121.763 32.88V33H118.991V32.88L119.111 32.844C119.263 32.796 119.367 32.724 119.423 32.628C119.487 32.532 119.519 32.404 119.519 32.244V28.572C119.519 28.236 119.459 28.008 119.339 27.888C119.219 27.76 119.027 27.696 118.763 27.696C118.555 27.696 118.351 27.744 118.151 27.84C117.959 27.928 117.755 28.064 117.539 28.248C117.579 28.376 117.603 28.516 117.611 28.668C117.627 28.82 117.635 28.98 117.635 29.148V32.256C117.643 32.568 117.787 32.764 118.067 32.844L118.175 32.88V33H115.391V32.88L115.559 32.832C115.711 32.784 115.815 32.716 115.871 32.628C115.935 32.532 115.967 32.404 115.967 32.244V28.584C115.967 28.264 115.907 28.036 115.787 27.9C115.675 27.764 115.479 27.696 115.199 27.696C115.015 27.696 114.831 27.744 114.647 27.84C114.463 27.928 114.271 28.06 114.071 28.236V32.256C114.071 32.568 114.211 32.764 114.491 32.844L114.599 32.88V33H111.779ZM125.244 27.048C125.764 27.048 126.208 27.156 126.576 27.372C126.944 27.58 127.224 27.868 127.416 28.236C127.616 28.596 127.716 29.008 127.716 29.472C127.716 29.56 127.712 29.652 127.704 29.748C127.696 29.836 127.68 29.916 127.656 29.988H124.08C124.088 30.852 124.24 31.476 124.536 31.86C124.84 32.236 125.288 32.424 125.88 32.424C126.28 32.424 126.604 32.36 126.852 32.232C127.1 32.104 127.332 31.916 127.548 31.668L127.668 31.776C127.42 32.216 127.088 32.56 126.672 32.808C126.264 33.056 125.772 33.18 125.196 33.18C124.628 33.18 124.124 33.06 123.684 32.82C123.244 32.572 122.9 32.22 122.652 31.764C122.404 31.308 122.28 30.764 122.28 30.132C122.28 29.476 122.424 28.92 122.712 28.464C123 28 123.368 27.648 123.816 27.408C124.272 27.168 124.748 27.048 125.244 27.048ZM125.208 27.288C124.976 27.288 124.776 27.36 124.608 27.504C124.448 27.64 124.32 27.888 124.224 28.248C124.136 28.6 124.088 29.1 124.08 29.748H126.132C126.212 28.876 126.18 28.248 126.036 27.864C125.892 27.48 125.616 27.288 125.208 27.288ZM128.314 33V32.88L128.482 32.832C128.762 32.752 128.902 32.556 128.902 32.244V28.488C128.902 28.312 128.874 28.184 128.818 28.104C128.762 28.016 128.654 27.956 128.494 27.924L128.314 27.876V27.756L130.366 27.06L130.486 27.18L130.582 27.9C130.862 27.652 131.178 27.448 131.53 27.288C131.882 27.128 132.23 27.048 132.574 27.048C133.102 27.048 133.506 27.192 133.786 27.48C134.074 27.768 134.218 28.208 134.218 28.8V32.256C134.218 32.568 134.37 32.764 134.674 32.844L134.782 32.88V33H131.95V32.88L132.106 32.832C132.386 32.744 132.526 32.548 132.526 32.244V28.416C132.526 27.904 132.27 27.648 131.758 27.648C131.406 27.648 131.022 27.824 130.606 28.176V32.256C130.606 32.568 130.746 32.764 131.026 32.844L131.134 32.88V33H128.314ZM137.473 33.18C136.961 33.18 136.561 33.052 136.273 32.796C135.993 32.54 135.853 32.132 135.853 31.572V27.468H135.025V27.348L135.313 27.3C135.561 27.244 135.773 27.164 135.949 27.06C136.133 26.956 136.313 26.816 136.489 26.64L137.473 25.548H137.593L137.557 27.228H138.901V27.468H137.545V31.788C137.545 32.068 137.605 32.28 137.725 32.424C137.853 32.568 138.013 32.64 138.205 32.64C138.373 32.64 138.521 32.6 138.649 32.52C138.777 32.432 138.905 32.316 139.033 32.172L139.153 32.292C138.993 32.564 138.773 32.78 138.493 32.94C138.213 33.1 137.873 33.18 137.473 33.18Z" fill="#C08969"/>
<g clip-path="url(#clip0_241_4500)">
<g>
<path d="M18.2121 16.3933C18.2244 16.5014 18.2332 16.6545 18.2501 16.8813C18.3371 18.0474 18.5984 20.5116 20.6196 25.0469C20.5928 27.7989 18.8649 29.9158 16.8456 29.9158C14.8105 29.9158 13.0698 27.7654 13.0698 24.9819C13.0699 23.6175 13.7399 21.7848 14.6332 20.1678C15.0765 19.3654 15.5672 18.6298 16.0417 18.0474C16.4619 17.5317 16.8546 17.1554 17.1774 16.9499L17.3113 16.8722C17.6444 16.7004 17.9189 16.5447 18.085 16.4572C18.1348 16.4309 18.1768 16.4101 18.2121 16.3933Z" fill="#849F80" stroke="#7C9B77"/>
<path d="M18.4883 17.8427C18.4883 17.8427 15.5811 22.7352 16.8067 29.4354" stroke="#9C5953" stroke-width="0.5" stroke-miterlimit="10"/>
<path d="M16.6836 28.6788C16.6836 28.6788 19.5099 27.2222 18.8604 24.525" stroke="#9C5953" stroke-width="0.2" stroke-miterlimit="10"/>
<path d="M14.7607 23.9414C14.7607 23.9414 14.449 26.7489 16.6684 28.0713" stroke="#9C5953" stroke-width="0.2" stroke-miterlimit="10"/>
<path d="M16.5052 26.0876C16.5052 26.0876 18.4226 24.4896 18.1562 21.8521" stroke="#9C5953" stroke-width="0.2" stroke-miterlimit="10"/>
<path d="M15.5136 21.0629C15.5136 21.0629 14.7608 23.229 16.5218 25.1887" stroke="#9C5953" stroke-width="0.2" stroke-miterlimit="10"/>
<path d="M17.1662 21.7069C17.1662 21.7069 17.9965 19.9377 19.1493 19.7748" stroke="#9C5953" stroke-width="0.2" stroke-miterlimit="10"/>
</g>
<path d="M42.2856 57.1294C46.5824 56.8073 65.3559 55.7535 68 34.5" stroke="#9C5953" stroke-width="0.5" stroke-miterlimit="10"/>
<g>
<path d="M52.1553 33.1731C50.0973 35.013 51.6239 37.4523 46.5351 37.9402C44.3467 38.15 42.1844 34.9374 42.1844 31.0112C42.1844 27.0851 45.7958 25.575 48.1485 25.575C52.3909 27.3074 50.4529 28.7827 52.1553 33.1731Z" fill="#E9C1B2"/>
<path d="M49.9551 23.4931C57.9371 30.2442 41.6331 34.5302 41.6331 30.4398C40.2807 36.1715 29.6992 25.9354 39.2058 25.1276C44.6487 21.845 41.9295 21.997 45.1006 21.45C48.9082 23.4931 49.9551 23.4931 49.9551 23.4931Z" fill="#8C5C4A"/>
<path d="M46.9209 30.8292C45.8275 32.564 48.0018 31.693 43.955 36.3C34.7796 36.0121 34.7395 30.2533 32.2136 29.4125C35.9415 28.5256 32.9743 27.938 37.0217 27.938C40.9563 28.8485 50.0152 20.4207 46.9209 30.8292Z" fill="#8C5C4A"/>
<path d="M36.9498 26.8124C37.9336 26.4982 35.9141 25.1175 37.8744 25.7297C39.4443 24.947 53.1788 28.5157 41.0786 29.6577C37.0613 29.8092 35.4872 33.7729 37.6584 34.6466C31.7521 34.7992 33.3949 29.6429 36.9498 26.8124Z" fill="#8C5C4A"/>
<path d="M52.1119 27.1049C52.1119 27.1049 50.7953 32.0241 43.1677 32.4186C41.6421 33.0079 36.0485 31.1431 36.0485 30.0563C36.0485 28.9696 35.54 32.0241 48.236 31.11C52.8294 30.0563 52.1119 27.1049 52.1119 27.1049Z" fill="#885A49"/>
<path d="M46.5236 31.4043C46.5236 31.4043 45.7721 34.7735 39.7658 34.8934C38.8 34.6232 33.0054 32.2971 33.9712 31.4043C34.5533 30.866 30.3197 34.4827 43.146 35.475C48.1865 33.3197 46.5236 31.4043 46.5236 31.4043Z" fill="#885A49"/>
<mask id="mask0_241_4500" style="mask-type:luminance" maskUnits="userSpaceOnUse" x="16" y="20" width="47" height="36">
<path d="M60.532 20.6334C61.9464 24.0309 62.6197 27.7236 62.5023 31.436C62.385 35.1484 61.4794 38.7848 59.8541 42.0738C58.2282 45.3629 55.9242 48.2197 53.1137 50.4312C50.3031 52.6427 47.0586 54.1518 43.6222 54.8459C40.1857 55.5401 36.6459 55.4014 33.2671 54.44C29.8881 53.4788 26.7572 51.7197 24.1079 49.2943C21.4585 46.8687 19.3591 43.8393 17.9662 40.4319C16.5733 37.0246 15.923 33.3273 16.0636 29.6158L17.1323 29.6614C16.9982 33.202 17.6186 36.7292 18.9474 39.9797C20.2761 43.2302 22.2789 46.1202 24.8063 48.434C27.3337 50.7479 30.3205 52.4259 33.5438 53.343C36.7672 54.26 40.144 54.3924 43.4223 53.7302C46.7005 53.068 49.7957 51.6284 52.4768 49.5187C55.158 47.4089 57.356 44.6836 58.9067 41.546C60.4576 38.4084 61.3214 34.9394 61.4335 31.3979C61.5456 27.8564 60.9032 24.3337 59.5538 21.0926L60.532 20.6334Z" fill="white"/>
</mask>
<g mask="url(#mask0_241_4500)">
<path d="M60.532 20.6334C61.9464 24.0309 62.6197 27.7236 62.5023 31.436C62.385 35.1484 61.4794 38.7848 59.8541 42.0738C58.2282 45.3629 55.9242 48.2197 53.1137 50.4312C50.3031 52.6427 47.0586 54.1518 43.6222 54.8459C40.1857 55.5401 36.6459 55.4014 33.2671 54.44C29.8881 53.4788 26.7572 51.7197 24.1079 49.2943C21.4585 46.8687 19.3591 43.8393 17.9662 40.4319C16.5733 37.0246 15.923 33.3273 16.0636 29.6158L17.1323 29.6614C16.9982 33.202 17.6186 36.7292 18.9474 39.9797C20.2761 43.2302 22.2789 46.1202 24.8063 48.434C27.3337 50.7479 30.3205 52.4259 33.5438 53.343C36.7672 54.26 40.144 54.3924 43.4223 53.7302C46.7005 53.068 49.7957 51.6284 52.4768 49.5187C55.158 47.4089 57.356 44.6836 58.9067 41.546C60.4576 38.4084 61.3214 34.9394 61.4335 31.3979C61.5456 27.8564 60.9032 24.3337 59.5538 21.0926L60.532 20.6334Z" stroke="#849F80" stroke-width="4"/>
</g>
<path d="M54.8398 47.8499C54.0728 51.1499 45.7508 53.6249 44.8689 53.6249C43.987 53.6249 38.8499 45.2968 42.5758 43.0826C40.4467 43.0826 48.2054 37.1249 49.0873 37.1249C50.6213 36.7124 51.919 46.1893 54.8398 47.8499Z" fill="#DE7C5D"/>
<path d="M38.8991 37.5679C40.2498 37.8335 42.3577 36.3614 44.1019 39.1875C43.7132 41.2257 41.6553 42.8046 37.8308 41.3088C37.0013 41.5551 20.4266 32.2666 21.2865 29.4212C22.5153 28.1992 25.5603 34.9456 38.8991 37.5679Z" fill="#E9C1B2"/>
<path d="M22.9248 30.2361C23.2622 30.5143 25.0257 32.68 24.1536 32.6799C23.1904 32.6799 20.8768 30.6432 21.2865 29.014C21.4045 28.5441 21.2865 28.6065 22.1057 28.1993C25.792 27.7919 22.443 28.885 22.9248 30.2361Z" fill="#E9C1B2"/>
<path d="M47.8807 37.3499C49.8084 36.4819 44.8421 42.0749 43.6829 42.0749C42.5237 42.0749 42.1084 41.6545 42.1086 40.2897C41.034 37.9499 44.102 37.3499 43.8018 36.2999C43.8018 36.7124 47.8807 37.3499 47.8807 37.3499Z" fill="#E9C1B2"/>
<path d="M42.9515 42.075C43.6005 43.9686 45.1529 50.5425 40.5569 46.9577C38.4277 45.297 38.1538 41.8731 40.6505 39.1875C41.034 38.775 42.9515 37.5375 42.9515 37.5375C42.9515 37.5375 41.2995 40.6686 42.9515 42.075Z" fill="#DE7C5D"/>
<path d="M46.4762 46.3943C47.9738 45.7334 48.528 44.3625 48.3198 44.9C48.4115 45.1057 47.7329 45.6915 47.1502 46.3943C46.1164 46.8505 44.7382 46.5161 44.6464 46.3104C44.5547 46.1048 45.4424 46.8505 46.4762 46.3943Z" fill="#CC6C4E"/>
<path d="M52.1554 41.6625C52.1554 40.8375 52.3628 44.9 51.187 44.9C50.0111 44.9 49.139 43.374 49.139 41.234C49.139 39.0939 48.6785 37.5375 49.8544 37.5375C51.0303 37.5375 52.1554 41.8309 52.1554 41.6625Z" fill="#E9C1B2"/>
<path d="M54.2861 39.2078C62.2706 43.0832 71.8517 47.5112 71.319 48.0647C70.1433 48.0647 50.0278 42.1495 50.0278 40.3149C50.0278 38.4804 48.3204 37.125 50.5601 37.5471C50.5601 37.5471 51.6246 37.5469 54.2861 39.2078Z" fill="#E9C1B2"/>
<path d="M71.319 50.2791C71.8517 51.9398 70.2548 49.172 70.2548 48.0649C70.2548 47.5113 68.1253 47.3212 68.1253 46.4041C68.1253 45.4869 70.7869 47.5113 70.7869 47.5113C72.3838 48.0649 71.319 52.2505 71.319 50.2791Z" fill="#E9C1B2"/>
<path d="M16.8357 29.4354C16.3542 30.9472 16.8357 55.8413 42.6162 57.1293" stroke="#9C5953" stroke-width="0.5" stroke-miterlimit="10"/>
</g>
<g>
<path d="M8.56421 30.9863C9.17648 31.27 10.501 31.7147 13.3812 31.5869C13.4197 31.5863 13.512 31.6071 13.6644 31.6873C13.8089 31.7634 13.9811 31.8786 14.1703 32.0281C14.5484 32.327 14.9735 32.7462 15.3543 33.2116C15.7363 33.6784 16.063 34.1789 16.2549 34.6384C16.4517 35.1099 16.4801 35.4721 16.3742 35.7128C16.2529 35.9884 16.0105 36.2141 15.6557 36.3826C15.3009 36.5512 14.8536 36.6524 14.3649 36.688C13.3834 36.7593 12.3003 36.563 11.5862 36.2113C10.8975 35.872 10.1345 34.9862 9.53666 33.9907C9.24189 33.4999 8.99584 32.9969 8.82584 32.5451C8.67461 32.1432 8.59171 31.8027 8.57592 31.5557L8.57308 31.4554C8.57601 31.2683 8.57032 31.1133 8.56421 30.9863Z" fill="#849F80" stroke="#7C9B77"/>
<path d="M8.42285 31.4662C8.42285 31.4662 12.1814 35.8671 17.1361 35.4592" stroke="#9C5953" stroke-width="0.5" stroke-miterlimit="10"/>
<path d="M13.9706 35.0976C13.9706 35.0976 13.939 33.0366 12.1985 32.722" stroke="#9C5953" stroke-width="0.2" stroke-miterlimit="10"/>
<path d="M11.037 35.2206C11.037 35.2206 12.5646 36.1312 13.9601 35.159" stroke="#9C5953" stroke-width="0.2" stroke-miterlimit="10"/>
<path d="M12.3162 34.314C12.3162 34.314 11.9434 32.7576 10.3472 32.2306" stroke="#9C5953" stroke-width="0.2" stroke-miterlimit="10"/>
<path d="M9.13916 33.5988C9.13916 33.5988 10.1717 34.6069 11.8033 34.0697" stroke="#9C5953" stroke-width="0.2" stroke-miterlimit="10"/>
<path d="M9.98135 32.7797C9.98135 32.7797 9.19796 31.8252 9.43394 31.0963" stroke="#9C5953" stroke-width="0.2" stroke-miterlimit="10"/>
</g>
<g>
<path d="M22.6498 33.4344C22.4716 33.5829 22.2154 33.8251 21.8284 34.1786C21.39 34.5791 20.8048 35.0991 20.0247 35.7235L20.0144 35.7316L20.004 35.7387C20.004 35.7387 19.9905 35.7493 19.9643 35.7817C19.9383 35.814 19.907 35.8592 19.8713 35.9187C19.7997 36.0381 19.7196 36.1994 19.6372 36.3935C19.4726 36.781 19.3072 37.2771 19.1844 37.7822C19.061 38.2901 18.9851 38.7904 18.9888 39.1892C18.9906 39.3886 19.0122 39.5488 19.0497 39.6666C19.0869 39.7836 19.1325 39.839 19.1705 39.8653C19.3106 39.9615 19.5072 39.9974 19.7647 39.9537C20.0221 39.91 20.3158 39.7904 20.6161 39.6126C21.2197 39.2552 21.7925 38.6984 22.0934 38.205C22.2311 37.9791 22.3427 37.6456 22.4277 37.24C22.5117 36.8392 22.5654 36.3902 22.5994 35.9487C22.6335 35.5068 22.6475 35.0792 22.6527 34.7231L22.6544 33.9256C22.6544 33.7215 22.6543 33.5608 22.6498 33.4344Z" fill="#849F80" stroke="#7C9B77"/>
<path d="M20.5231 38.4291C20.5231 38.4291 19.7776 37.1848 20.7034 36.3354" stroke="#9C5953" stroke-width="0.2" stroke-miterlimit="10"/>
<path d="M22.4557 37.1307C22.4557 37.1307 21.8793 38.2591 20.6802 38.2055" stroke="#9C5953" stroke-width="0.2" stroke-miterlimit="10"/>
<path d="M21.2379 37.5031C21.2379 37.5031 20.884 36.4306 21.6447 35.5088" stroke="#9C5953" stroke-width="0.2" stroke-miterlimit="10"/>
<path d="M22.877 35.8666C22.877 35.8666 22.633 36.8639 21.455 37.1622" stroke="#9C5953" stroke-width="0.2" stroke-miterlimit="10"/>
<path d="M22.0689 35.6991C22.0689 35.6991 22.1837 34.8313 21.7723 34.4852" stroke="#9C5953" stroke-width="0.2" stroke-miterlimit="10"/>
<path d="M22.5122 33.9252C22.5122 33.9252 21.8127 38.4124 18.5883 40.2076" stroke="#9C5953" stroke-width="0.5" stroke-miterlimit="10"/>
</g>
<path d="M25.3107 11.1257C25.4318 11.0029 25.5785 10.8709 25.7531 10.7326C26.3799 10.2359 26.8951 8.85272 27.9246 8.35016C29.3677 7.64569 30.8238 7.86839 32.2813 7.42493C32.2813 8.96698 30.8198 8.52096 29.9534 9.12301C28.6415 10.0346 28.3729 10.5141 27.3438 10.8174L25.3107 11.1257Z" stroke="#849F80" stroke-width="2"/>
<path d="M31.8411 7.88129C31.7163 7.8522 29.5546 8.87245 28.96 9.17323C28.3974 10.1397 25.5532 11.1626 25.4747 10.9919C25.3962 10.8212 27.5927 8.76726 28.3403 8.42348C29.0879 8.07971 31.7626 7.71057 31.8411 7.88129Z" fill="#9C5953"/>
</g>
<line x1="68" y1="34.75" x2="139" y2="34.75" stroke="#8B4E49" stroke-width="0.5"/>
<defs>
<filter id="filter0_d_241_4500" x="8.56982" y="15.6412" width="16.5508" height="22.7747" filterUnits="userSpaceOnUse" color-interpolation-filters="sRGB">
<feFlood flood-opacity="0" result="BackgroundImageFix"/>
<feColorMatrix in="SourceAlpha" type="matrix" values="0 0 0 0 0 0 0 0 0 0 0 0 0 0 0 0 0 0 127 0" result="hardAlpha"/>
<feOffset dy="4"/>
<feGaussianBlur stdDeviation="2"/>
<feComposite in2="hardAlpha" operator="out"/>
<feColorMatrix type="matrix" values="0 0 0 0 0 0 0 0 0 0 0 0 0 0 0 0 0 0 0.15 0"/>
<feBlend mode="normal" in2="BackgroundImageFix" result="effect1_dropShadow_241_4500"/>
<feBlend mode="normal" in="SourceGraphic" in2="effect1_dropShadow_241_4500" result="shape"/>
</filter>
<filter id="filter1_d_241_4500" x="12.0448" y="20.6334" width="98.1795" height="44.7456" filterUnits="userSpaceOnUse" color-interpolation-filters="sRGB">
<feFlood flood-opacity="0" result="BackgroundImageFix"/>
<feColorMatrix in="SourceAlpha" type="matrix" values="0 0 0 0 0 0 0 0 0 0 0 0 0 0 0 0 0 0 127 0" result="hardAlpha"/>
<feOffset dy="4"/>
<feGaussianBlur stdDeviation="2"/>
<feComposite in2="hardAlpha" operator="out"/>
<feColorMatrix type="matrix" values="0 0 0 0 0 0 0 0 0 0 0 0 0 0 0 0 0 0 0.25 0"/>
<feBlend mode="normal" in2="BackgroundImageFix" result="effect1_dropShadow_241_4500"/>
<feBlend mode="normal" in="SourceGraphic" in2="effect1_dropShadow_241_4500" result="shape"/>
</filter>
<filter id="filter2_d_241_4500" x="4.02496" y="30.1846" width="17.1307" height="15.0179" filterUnits="userSpaceOnUse" color-interpolation-filters="sRGB">
<feFlood flood-opacity="0" result="BackgroundImageFix"/>
<feColorMatrix in="SourceAlpha" type="matrix" values="0 0 0 0 0 0 0 0 0 0 0 0 0 0 0 0 0 0 127 0" result="hardAlpha"/>
<feOffset dy="4"/>
<feGaussianBlur stdDeviation="2"/>
<feComposite in2="hardAlpha" operator="out"/>
<feColorMatrix type="matrix" values="0 0 0 0 0 0 0 0 0 0 0 0 0 0 0 0 0 0 0.1 0"/>
<feBlend mode="normal" in2="BackgroundImageFix" result="effect1_dropShadow_241_4500"/>
<feBlend mode="normal" in="SourceGraphic" in2="effect1_dropShadow_241_4500" result="shape"/>
</filter>
<filter id="filter3_d_241_4500" x="14.4667" y="32.3978" width="12.6877" height="16.0742" filterUnits="userSpaceOnUse" color-interpolation-filters="sRGB">
<feFlood flood-opacity="0" result="BackgroundImageFix"/>
<feColorMatrix in="SourceAlpha" type="matrix" values="0 0 0 0 0 0 0 0 0 0 0 0 0 0 0 0 0 0 127 0" result="hardAlpha"/>
<feOffset dy="4"/>
<feGaussianBlur stdDeviation="2"/>
<feComposite in2="hardAlpha" operator="out"/>
<feColorMatrix type="matrix" values="0 0 0 0 0 0 0 0 0 0 0 0 0 0 0 0 0 0 0.15 0"/>
<feBlend mode="normal" in2="BackgroundImageFix" result="effect1_dropShadow_241_4500"/>
<feBlend mode="normal" in="SourceGraphic" in2="effect1_dropShadow_241_4500" result="shape"/>
</filter>
<clipPath id="clip0_241_4500">
<rect width="79" height="66" fill="white"/>
</clipPath>
</defs>
</svg>
