<svg viewBox="0 0 141 117" fill="none" xmlns="http://www.w3.org/2000/svg">
<g>
<path d="M32.5052 29.0609C32.527 29.2525 32.5428 29.524 32.573 29.9259C32.7282 31.9931 33.1945 36.3616 36.802 44.4014C36.7542 49.2799 33.6702 53.0327 30.0661 53.0327C26.4339 53.0327 23.3271 49.2204 23.3271 44.2861C23.3273 41.8674 24.5231 38.6185 26.1174 35.752C26.9086 34.3296 27.7844 33.0257 28.6314 31.9932C29.3814 31.079 30.0821 30.4119 30.6584 30.0476L30.8973 29.9099C31.4918 29.6053 31.9818 29.3294 32.2783 29.1742C32.3672 29.1276 32.4421 29.0907 32.5052 29.0609Z" fill="#849F80" stroke="#7C9B77"/>
<path d="M32 30C32 30 27.8125 40.6224 30 52.5" stroke="#9C5953" stroke-width="0.5" stroke-miterlimit="10"/>
<path d="M29.777 50.8399C29.777 50.8399 34.8215 48.2577 33.6621 43.4763" stroke="#9C5953" stroke-width="0.2" stroke-miterlimit="10"/>
<path d="M26.345 42.4417C26.345 42.4417 25.7886 47.4185 29.7498 49.7628" stroke="#9C5953" stroke-width="0.2" stroke-miterlimit="10"/>
<path d="M29.4585 46.2461C29.4585 46.2461 32.8806 43.4134 32.4053 38.7377" stroke="#9C5953" stroke-width="0.2" stroke-miterlimit="10"/>
<path d="M27.6888 37.3389C27.6888 37.3389 26.3452 41.1788 29.4883 44.6529" stroke="#9C5953" stroke-width="0.2" stroke-miterlimit="10"/>
<path d="M30 38.4804C30 38.4804 30.8041 36.2889 32.8616 36" stroke="#9C5953" stroke-width="0.2" stroke-miterlimit="10"/>
</g>
<path d="M75.4718 101.275C83.1406 100.704 116.766 98.4205 121.485 60.7439" stroke="#9C5953" stroke-width="0.5" stroke-miterlimit="10"/>
<g>
<path d="M93.0874 58.807C89.4141 62.0685 92.1389 66.3929 83.0564 67.2578C79.1504 67.6297 75.2913 61.9346 75.2913 54.9746C75.2913 48.0145 81.7368 45.3375 85.936 45.3375C93.5078 48.4087 90.0489 51.024 93.0874 58.807Z" fill="#E9C1B2"/>
<path d="M89.1606 41.647C103.407 53.6148 74.3072 61.2128 74.3072 53.9617C71.8935 64.1223 53.0075 45.9766 69.975 44.5446C79.6895 38.7254 74.8363 38.9947 80.4961 38.025C87.2921 41.6469 89.1606 41.647 89.1606 41.647Z" fill="#8C5C4A"/>
<path d="M83.745 54.6519C81.7934 57.7272 85.6742 56.1832 78.4514 64.35C62.075 63.8397 62.0036 53.6309 57.4952 52.1405C64.1489 50.5682 58.8529 49.5265 66.0767 49.5265C73.0994 51.1406 89.2677 36.2004 83.745 54.6519Z" fill="#8C5C4A"/>
<path d="M65.9484 47.5313C67.7043 46.9742 64.0998 44.5267 67.5987 45.6118C70.4007 44.2243 94.9141 50.5506 73.3175 52.5751C66.1474 52.8437 63.3379 59.8702 67.2131 61.4192C56.6715 61.6895 59.6036 52.5488 65.9484 47.5313Z" fill="#8C5C4A"/>
<path d="M93.0098 48.0496C93.0098 48.0496 90.6601 56.77 77.0461 57.4693C74.3233 58.514 64.3398 55.2082 64.3398 53.2817C64.3398 51.3553 63.4322 56.77 86.0921 55.1495C94.2905 53.2817 93.0098 48.0496 93.0098 48.0496Z" fill="#885A49"/>
<path d="M83.0359 55.6713C83.0359 55.6713 81.6945 61.6439 70.9744 61.8565C69.2507 61.3775 58.9083 57.254 60.6321 55.6712C61.6712 54.717 54.115 61.1285 77.0074 62.8875C86.0038 59.0667 83.0359 55.6713 83.0359 55.6713Z" fill="#885A49"/>
<mask id="mask0_20_1133" style="mask-type:luminance" maskUnits="userSpaceOnUse" x="28" y="36" width="84" height="62">
<path d="M108.038 36.5774C110.563 42.6003 111.764 49.1464 111.555 55.7275C111.345 62.3085 109.729 68.7548 106.828 74.5853C103.926 80.416 99.8141 85.4803 94.7978 89.4007C89.7816 93.3211 83.9907 95.9963 77.8573 97.2268C71.7238 98.4574 65.4061 98.2115 59.3754 96.5073C53.3447 94.8033 47.7566 91.6849 43.028 87.3852C38.2993 83.0854 34.5524 77.7151 32.0663 71.6748C29.5803 65.6345 28.4195 59.0801 28.6705 52.5007L30.5779 52.5816C30.3385 58.8581 31.4459 65.1108 33.8175 70.873C36.189 76.6353 39.7636 81.7584 44.2745 85.8603C48.7855 89.9622 54.1163 92.9368 59.8694 94.5625C65.6226 96.1881 71.6495 96.4228 77.5006 95.249C83.3516 94.075 88.8759 91.523 93.6612 87.783C98.4466 84.0431 102.37 79.2119 105.137 73.6497C107.905 68.0876 109.447 61.938 109.647 55.6599C109.847 49.3817 108.701 43.1369 106.292 37.3914L108.038 36.5774Z" fill="white"/>
</mask>
<g mask="url(#mask0_20_1133)">
<path d="M108.038 36.5774C110.563 42.6003 111.764 49.1464 111.555 55.7275C111.345 62.3085 109.729 68.7548 106.828 74.5853C103.926 80.416 99.8141 85.4803 94.7978 89.4007C89.7816 93.3211 83.9907 95.9963 77.8573 97.2268C71.7238 98.4574 65.4061 98.2115 59.3754 96.5073C53.3447 94.8033 47.7566 91.6849 43.028 87.3852C38.2993 83.0854 34.5524 77.7151 32.0663 71.6748C29.5803 65.6345 28.4195 59.0801 28.6705 52.5007L30.5779 52.5816C30.3385 58.8581 31.4459 65.1108 33.8175 70.873C36.189 76.6353 39.7636 81.7584 44.2745 85.8603C48.7855 89.9622 54.1163 92.9368 59.8694 94.5625C65.6225 96.1881 71.6495 96.4228 77.5006 95.249C83.3516 94.075 88.8759 91.523 93.6612 87.783C98.4466 84.0431 102.37 79.2119 105.137 73.6497C107.905 68.0876 109.447 61.938 109.647 55.6599C109.847 49.3817 108.701 43.1369 106.292 37.3914L108.038 36.5774Z" stroke="#849F80" stroke-width="4"/>
</g>
<path d="M104.78 32C106.28 33 106.608 35 105.78 35C104.952 35 103.78 32.5 103.28 32C103.28 31.1716 101.28 31 102.28 31C101.94 31.0386 103.78 31 104.78 32Z" fill="#849F80"/>
<path d="M97.8786 84.8249C96.5097 90.6749 81.6565 95.0623 80.0825 95.0623C78.5085 95.0623 69.3397 80.2989 75.9898 76.3738C72.1898 76.3738 86.0376 65.8124 87.6116 65.8124C90.3495 65.0812 92.6655 81.8811 97.8786 84.8249Z" fill="#DE7C5D"/>
<path d="M69.4275 66.5978C71.8383 67.0686 75.6006 64.459 78.7136 69.4688C78.0198 73.082 74.347 75.8811 67.5209 73.2294C66.0404 73.6661 36.4578 57.2 37.9924 52.1559C40.1855 49.9896 45.6204 61.9492 69.4275 66.5978Z" fill="#E9C1B2"/>
<path d="M40.9166 53.6003C41.5187 54.0936 44.6662 57.9327 43.1097 57.9326C41.3905 57.9326 37.2612 54.3221 37.9924 51.4339C38.2031 50.601 37.9924 50.7116 39.4545 49.9896C46.0339 49.2675 40.0566 51.2052 40.9166 53.6003Z" fill="#E9C1B2"/>
<path d="M85.458 66.2114C88.8986 64.6725 80.0346 74.5875 77.9657 74.5875C75.8968 74.5875 75.1555 73.8423 75.1558 71.4228C73.2379 67.275 78.7137 66.2114 78.1779 64.35C78.1779 65.0812 85.458 66.2114 85.458 66.2114Z" fill="#E9C1B2"/>
<path d="M76.6603 74.5875C77.8186 77.9444 80.5893 89.5981 72.3863 83.2432C68.5862 80.2993 68.0974 74.2296 72.5535 69.4687C73.2379 68.7375 76.6603 66.5437 76.6603 66.5437C76.6603 66.5437 73.7118 72.0944 76.6603 74.5875Z" fill="#DE7C5D"/>
<path d="M82.9512 82.2443C85.6242 81.0727 86.6133 78.6425 86.2416 79.5954C86.4054 79.9599 85.1942 80.9985 84.1542 82.2443C82.309 83.053 79.8491 82.4602 79.6854 82.0957C79.5216 81.7311 81.106 83.053 82.9512 82.2443Z" fill="#CC6C4E"/>
<path d="M93.0875 73.8562C93.0875 72.3937 93.4577 79.5954 91.359 79.5954C89.2602 79.5954 87.7038 76.8903 87.7038 73.0965C87.7038 69.3029 86.8819 66.5437 88.9807 66.5437C91.0794 66.5437 93.0875 74.1548 93.0875 73.8562Z" fill="#E9C1B2"/>
<path d="M96.8903 69.5048C111.141 76.3748 128.242 84.2245 127.291 85.2058C125.192 85.2058 89.2901 74.7196 89.2901 71.4674C89.2901 68.2154 86.2428 65.8125 90.2402 66.5609C90.2402 66.5609 92.1402 66.5606 96.8903 69.5048Z" fill="#E9C1B2"/>
<path d="M127.291 89.131C128.242 92.0749 125.392 87.1684 125.392 85.2058C125.392 84.2244 121.591 83.8875 121.591 82.2617C121.591 80.6358 126.341 84.2244 126.341 84.2244C129.191 85.2058 127.291 92.6257 127.291 89.131Z" fill="#E9C1B2"/>
<path d="M30.0485 52.1809C29.1892 54.8609 30.0486 98.9913 76.0618 101.275" stroke="#9C5953" stroke-width="0.5" stroke-miterlimit="10"/>
</g>
<g>
<path d="M15.2855 54.9287C16.3782 55.4318 18.7421 56.2206 23.8824 55.9946C23.9511 55.9935 24.1158 56.0304 24.3877 56.1725C24.6458 56.3074 24.953 56.5117 25.2907 56.7769C25.9655 57.3069 26.7244 58.0502 27.4041 58.8754C28.0859 59.7032 28.669 60.5905 29.0115 61.4053C29.3629 62.2413 29.4136 62.8834 29.2246 63.3103C29.0082 63.7989 28.5757 64.1989 27.9426 64.4977C27.3093 64.7964 26.511 64.9758 25.6388 65.0389C23.8871 65.1651 21.9542 64.8169 20.6797 64.193C19.4506 63.5914 18.0887 62.0208 17.0215 60.2556C16.4954 59.3854 16.0561 58.4936 15.7527 57.6925C15.4827 56.9799 15.3347 56.3762 15.3065 55.9382L15.3014 55.7603C15.3066 55.4286 15.2964 55.1537 15.2855 54.9287Z" fill="#849F80" stroke="#7C9B77"/>
<path d="M15.0331 55.7793C15.0331 55.7793 21.7419 63.5832 30.5846 62.8609" stroke="#9C5953" stroke-width="0.5" stroke-miterlimit="10"/>
<path d="M24.9348 62.2186C24.9348 62.2186 24.8781 58.5646 21.772 58.0067" stroke="#9C5953" stroke-width="0.2" stroke-miterlimit="10"/>
<path d="M19.6988 62.4358C19.6988 62.4358 22.4255 64.0513 24.916 62.327" stroke="#9C5953" stroke-width="0.2" stroke-miterlimit="10"/>
<path d="M21.982 60.8296C21.982 60.8296 21.3165 58.0702 18.4678 57.1355" stroke="#9C5953" stroke-width="0.2" stroke-miterlimit="10"/>
<path d="M16.3116 59.5607C16.3116 59.5607 18.1546 61.3488 21.0667 60.3964" stroke="#9C5953" stroke-width="0.2" stroke-miterlimit="10"/>
<path d="M17.8147 58.1093C17.8147 58.1093 16.4168 56.417 16.8377 55.125" stroke="#9C5953" stroke-width="0.2" stroke-miterlimit="10"/>
</g>
<g>
<path d="M40.4255 59.2701C40.1074 59.5333 39.6502 59.9626 38.9595 60.5893C38.1771 61.2993 37.1326 62.2212 35.7403 63.3281L35.7219 63.3423L35.7033 63.355C35.7033 63.355 35.6791 63.3737 35.6323 63.4312C35.586 63.4884 35.5301 63.5685 35.4664 63.674C35.3387 63.8856 35.1957 64.1717 35.0485 64.5158C34.7548 65.2027 34.4595 66.0822 34.2405 66.9776C34.0202 67.8779 33.8846 68.7647 33.8913 69.4717C33.8946 69.8253 33.9332 70.1092 34 70.3181C34.0665 70.5254 34.1479 70.6237 34.2157 70.6702C34.4657 70.8409 34.8165 70.9045 35.2762 70.827C35.7356 70.7496 36.2598 70.5376 36.7957 70.2223C37.873 69.5887 38.8954 68.6017 39.4325 67.7271C39.6782 67.3266 39.8774 66.7354 40.029 66.0163C40.1791 65.3058 40.2749 64.5099 40.3356 63.7272C40.3964 62.9439 40.4214 62.1858 40.4307 61.5545L40.4338 60.1408C40.4338 59.779 40.4336 59.4942 40.4255 59.2701Z" fill="#849F80" stroke="#7C9B77"/>
<path d="M36.6297 68.1245C36.6297 68.1245 35.2992 65.9185 36.9516 64.413" stroke="#9C5953" stroke-width="0.2" stroke-miterlimit="10"/>
<path d="M40.0791 65.8226C40.0791 65.8226 39.0504 67.8229 36.9103 67.7279" stroke="#9C5953" stroke-width="0.2" stroke-miterlimit="10"/>
<path d="M37.9056 66.4828C37.9056 66.4828 37.2738 64.5815 38.6316 62.9474" stroke="#9C5953" stroke-width="0.2" stroke-miterlimit="10"/>
<path d="M40.5 63.5C40.5 63.5 40.3955 65.3497 38.2931 65.8786" stroke="#9C5953" stroke-width="0.2" stroke-miterlimit="10"/>
<path d="M39.3886 63.2849C39.3886 63.2849 39.5935 61.7465 38.8594 61.1329" stroke="#9C5953" stroke-width="0.2" stroke-miterlimit="10"/>
<path d="M40.18 60.1401C40.18 60.1401 38.9314 68.0948 33.1765 71.2771" stroke="#9C5953" stroke-width="0.5" stroke-miterlimit="10"/>
</g>
<path d="M45.1747 19.7229C45.391 19.5053 45.6528 19.2713 45.9644 19.0261C47.0832 18.1456 48.0026 15.6936 49.8402 14.8027C52.4158 13.5538 55.0145 13.9486 57.6159 13.1625C57.6159 15.8961 55.0076 15.1054 53.4612 16.1727C51.1196 17.7887 50.6402 18.6388 48.8034 19.1765L45.1747 19.7229Z" fill="#849F80" stroke="#849F80" stroke-width="2"/>
<defs>
<filter id="filter0_d_20_1133" x="18.8271" y="28.311" width="22.476" height="33.2217" filterUnits="userSpaceOnUse" color-interpolation-filters="sRGB">
<feFlood flood-opacity="0" result="BackgroundImageFix"/>
<feColorMatrix in="SourceAlpha" type="matrix" values="0 0 0 0 0 0 0 0 0 0 0 0 0 0 0 0 0 0 127 0" result="hardAlpha"/>
<feOffset dy="4"/>
<feGaussianBlur stdDeviation="2"/>
<feComposite in2="hardAlpha" operator="out"/>
<feColorMatrix type="matrix" values="0 0 0 0 0 0 0 0 0 0 0 0 0 0 0 0 0 0 0.15 0"/>
<feBlend mode="normal" in2="BackgroundImageFix" result="effect1_dropShadow_20_1133"/>
<feBlend mode="normal" in="SourceGraphic" in2="effect1_dropShadow_20_1133" result="shape"/>
</filter>
<filter id="filter1_d_20_1133" x="24.637" y="31" width="107.275" height="78.5243" filterUnits="userSpaceOnUse" color-interpolation-filters="sRGB">
<feFlood flood-opacity="0" result="BackgroundImageFix"/>
<feColorMatrix in="SourceAlpha" type="matrix" values="0 0 0 0 0 0 0 0 0 0 0 0 0 0 0 0 0 0 127 0" result="hardAlpha"/>
<feOffset dy="4"/>
<feGaussianBlur stdDeviation="2"/>
<feComposite in2="hardAlpha" operator="out"/>
<feColorMatrix type="matrix" values="0 0 0 0 0 0 0 0 0 0 0 0 0 0 0 0 0 0 0.25 0"/>
<feBlend mode="normal" in2="BackgroundImageFix" result="effect1_dropShadow_20_1133"/>
<feBlend mode="normal" in="SourceGraphic" in2="effect1_dropShadow_20_1133" result="shape"/>
</filter>
<filter id="filter2_d_20_1133" x="10.746" y="54.1292" width="23.8582" height="19.4354" filterUnits="userSpaceOnUse" color-interpolation-filters="sRGB">
<feFlood flood-opacity="0" result="BackgroundImageFix"/>
<feColorMatrix in="SourceAlpha" type="matrix" values="0 0 0 0 0 0 0 0 0 0 0 0 0 0 0 0 0 0 127 0" result="hardAlpha"/>
<feOffset dy="4"/>
<feGaussianBlur stdDeviation="2"/>
<feComposite in2="hardAlpha" operator="out"/>
<feColorMatrix type="matrix" values="0 0 0 0 0 0 0 0 0 0 0 0 0 0 0 0 0 0 0.1 0"/>
<feBlend mode="normal" in2="BackgroundImageFix" result="effect1_dropShadow_20_1133"/>
<feBlend mode="normal" in="SourceGraphic" in2="effect1_dropShadow_20_1133" result="shape"/>
</filter>
<filter id="filter3_d_20_1133" x="29.0555" y="58.238" width="15.8783" height="21.2578" filterUnits="userSpaceOnUse" color-interpolation-filters="sRGB">
<feFlood flood-opacity="0" result="BackgroundImageFix"/>
<feColorMatrix in="SourceAlpha" type="matrix" values="0 0 0 0 0 0 0 0 0 0 0 0 0 0 0 0 0 0 127 0" result="hardAlpha"/>
<feOffset dy="4"/>
<feGaussianBlur stdDeviation="2"/>
<feComposite in2="hardAlpha" operator="out"/>
<feColorMatrix type="matrix" values="0 0 0 0 0 0 0 0 0 0 0 0 0 0 0 0 0 0 0.15 0"/>
<feBlend mode="normal" in2="BackgroundImageFix" result="effect1_dropShadow_20_1133"/>
<feBlend mode="normal" in="SourceGraphic" in2="effect1_dropShadow_20_1133" result="shape"/>
</filter>
</defs>
</svg>
